<svg xmlns="http://www.w3.org/2000/svg" xmlns:xlink="http://www.w3.org/1999/xlink" version="1.1" data-diagram-type="SEQUENCE" style="width:975px;height:579px;background:#FFFFFF;" width="975px" height="579px" viewBox="0 0 975 579" zoomAndPan="magnify" preserveAspectRatio="none" contentStyleType="text/css"><?plantuml 1.2026.7beta8?><defs/><g font-family="sans-serif" lengthAdjust="spacing"><g class="title" data-source-line="1"><text x="191.185" y="27.995" fill="#000" font-size="14" textLength="590.953" font-weight="700">Диаграмма последовательности: создание тренировки (POST /trainings)</text></g><g><title>............</title><rect x="61.05" y="123.594" width="8" height="368.859" fill="#000" fill-opacity="0"/><line x1="64.55" y1="123.594" x2="64.55" y2="492.453" style="stroke:#181818;stroke-width:0.5;stroke-dasharray:5,5;"/></g><g><title>......... ..........</title><rect x="338.776" y="123.594" width="8" height="368.859" fill="#000" fill-opacity="0"/><line x1="342.276" y1="123.594" x2="342.276" y2="492.453" style="stroke:#181818;stroke-width:0.5;stroke-dasharray:5,5;"/></g><g><title></title><rect x="337.276" y="152.727" width="10" height="321.727" fill="#FFF" style="stroke:#181818;stroke-width:1;"/></g><g><title>API Gateway</title><rect x="539.677" y="123.594" width="8" height="368.859" fill="#000" fill-opacity="0"/><line x1="543.177" y1="123.594" x2="543.177" y2="492.453" style="stroke:#181818;stroke-width:0.5;stroke-dasharray:5,5;"/></g><g><title></title><rect x="538.177" y="196.992" width="10" height="233.195" fill="#FFF" style="stroke:#181818;stroke-width:1;"/></g><g><title>.......</title><rect x="744.317" y="123.594" width="8" height="368.859" fill="#000" fill-opacity="0"/><line x1="747.817" y1="123.594" x2="747.817" y2="492.453" style="stroke:#181818;stroke-width:0.5;stroke-dasharray:5,5;"/></g><g><title></title><rect x="742.817" y="226.125" width="10" height="159.797" fill="#FFF" style="stroke:#181818;stroke-width:1;"/></g><g><title>PostgreSQL</title><rect x="917.447" y="123.594" width="8" height="368.859" fill="#000" fill-opacity="0"/><line x1="920.947" y1="123.594" x2="920.947" y2="492.453" style="stroke:#181818;stroke-width:0.5;stroke-dasharray:5,5;"/></g><g><title></title><rect x="915.947" y="312.523" width="10" height="29.133" fill="#FFF" style="stroke:#181818;stroke-width:1;"/></g><text x="10" y="120.292" fill="#000" font-size="14" textLength="103.1">Пользователь</text><ellipse cx="64.55" cy="55.797" rx="8" ry="8" fill="#E2E2F0" style="stroke:#181818;stroke-width:0.5;"/><path d="M64.55,63.797 L64.55,90.797 M51.55,71.797 L77.55,71.797 M64.55,90.797 L51.55,105.797 M64.55,90.797 L77.55,105.797" style="stroke:#181818;stroke-width:0.5;" fill="none"/><rect x="245.726" y="76" width="193.102" height="46.594" fill="#E2E2F0" style="stroke:#181818;stroke-width:0.5;" rx="2.5" ry="2.5"/><text x="252.726" y="95.995" fill="#000" font-size="14" textLength="179.102">Мобильное приложение</text><text x="277.54" y="112.292" fill="#000" font-size="14" textLength="129.473">(толстый клиент)</text><rect x="491.956" y="76" width="102.443" height="46.594" fill="#E2E2F0" style="stroke:#181818;stroke-width:0.5;" rx="2.5" ry="2.5"/><text x="498.956" y="95.995" fill="#000" font-size="14" textLength="88.443">API Gateway</text><text x="517.512" y="112.292" fill="#000" font-size="14" textLength="51.331">(Nginx)</text><rect x="708.534" y="76" width="78.565" height="46.594" fill="#E2E2F0" style="stroke:#181818;stroke-width:0.5;" rx="2.5" ry="2.5"/><text x="715.534" y="95.995" fill="#000" font-size="14" textLength="64.565">Монолит</text><text x="717.568" y="112.292" fill="#000" font-size="14" textLength="60.498">(Django)</text><text x="877.57" y="120.292" fill="#000" font-size="14" textLength="80.753">PostgreSQL</text><path d="M902.947,71.297 C902.947,61.297 920.947,61.297 920.947,61.297 C920.947,61.297 938.947,61.297 938.947,71.297 L938.947,97.297 C938.947,107.297 920.947,107.297 920.947,107.297 C920.947,107.297 902.947,107.297 902.947,97.297 L902.947,71.297" style="stroke:#181818;stroke-width:0.5;" fill="#E2E2F0"/><path d="M902.947,71.297 C902.947,81.297 920.947,81.297 920.947,81.297 C920.947,81.297 938.947,81.297 938.947,71.297" style="stroke:#181818;stroke-width:0.5;" fill="none"/><text x="10" y="505.448" fill="#000" font-size="14" textLength="103.1">Пользователь</text><ellipse cx="64.55" cy="517.25" rx="8" ry="8" fill="#E2E2F0" style="stroke:#181818;stroke-width:0.5;"/><path d="M64.55,525.25 L64.55,552.25 M51.55,533.25 L77.55,533.25 M64.55,552.25 L51.55,567.25 M64.55,552.25 L77.55,567.25" style="stroke:#181818;stroke-width:0.5;" fill="none"/><rect x="245.726" y="492.453" width="193.102" height="46.594" fill="#E2E2F0" style="stroke:#181818;stroke-width:0.5;" rx="2.5" ry="2.5"/><text x="252.726" y="512.448" fill="#000" font-size="14" textLength="179.102">Мобильное приложение</text><text x="277.54" y="528.745" fill="#000" font-size="14" textLength="129.473">(толстый клиент)</text><rect x="491.956" y="492.453" width="102.443" height="46.594" fill="#E2E2F0" style="stroke:#181818;stroke-width:0.5;" rx="2.5" ry="2.5"/><text x="498.956" y="512.448" fill="#000" font-size="14" textLength="88.443">API Gateway</text><text x="517.512" y="528.745" fill="#000" font-size="14" textLength="51.331">(Nginx)</text><rect x="708.534" y="492.453" width="78.565" height="46.594" fill="#E2E2F0" style="stroke:#181818;stroke-width:0.5;" rx="2.5" ry="2.5"/><text x="715.534" y="512.448" fill="#000" font-size="14" textLength="64.565">Монолит</text><text x="717.568" y="528.745" fill="#000" font-size="14" textLength="60.498">(Django)</text><text x="877.57" y="505.448" fill="#000" font-size="14" textLength="80.753">PostgreSQL</text><path d="M902.947,518.75 C902.947,508.75 920.947,508.75 920.947,508.75 C920.947,508.75 938.947,508.75 938.947,518.75 L938.947,544.75 C938.947,554.75 920.947,554.75 920.947,554.75 C920.947,554.75 902.947,554.75 902.947,544.75 L902.947,518.75" style="stroke:#181818;stroke-width:0.5;" fill="#E2E2F0"/><path d="M902.947,518.75 C902.947,528.75 920.947,528.75 920.947,528.75 C920.947,528.75 938.947,528.75 938.947,518.75" style="stroke:#181818;stroke-width:0.5;" fill="none"/><polygon points="325.276,148.727,335.276,152.727,325.276,156.727,329.276,152.727" fill="#181818" style="stroke:#181818;stroke-width:1;stroke-linejoin:miter;stroke-miterlimit:10;"/><line x1="64.55" y1="152.727" x2="331.276" y2="152.727" style="stroke:#181818;stroke-width:1;"/><text x="71.55" y="147.661" fill="#000" font-size="13" textLength="248.727">Нажимает «Сохранить тренировку»</text><polygon points="526.177,192.992,536.177,196.992,526.177,200.992,530.177,196.992" fill="#181818" style="stroke:#181818;stroke-width:1;stroke-linejoin:miter;stroke-miterlimit:10;"/><line x1="347.276" y1="196.992" x2="532.177" y2="196.992" style="stroke:#181818;stroke-width:1;"/><text x="354.276" y="176.793" fill="#000" font-size="13" textLength="144.466">POST /api/v1/trainings</text><text x="354.276" y="191.926" fill="#000" font-size="13" textLength="171.901">{type, duration, distance}</text><polygon points="730.817,222.125,740.817,226.125,730.817,230.125,734.817,226.125" fill="#181818" style="stroke:#181818;stroke-width:1;stroke-linejoin:miter;stroke-miterlimit:10;"/><line x1="548.177" y1="226.125" x2="736.817" y2="226.125" style="stroke:#181818;stroke-width:1;"/><text x="555.177" y="221.059" fill="#000" font-size="13" textLength="175.64">Передача запроса (с JWT)</text><line x1="752.817" y1="270.391" x2="794.817" y2="270.391" style="stroke:#181818;stroke-width:1;"/><line x1="794.817" y1="270.391" x2="794.817" y2="283.391" style="stroke:#181818;stroke-width:1;"/><line x1="753.817" y1="283.391" x2="794.817" y2="283.391" style="stroke:#181818;stroke-width:1;"/><polygon points="763.817,279.391,753.817,283.391,763.817,287.391,759.817,283.391" fill="#181818" style="stroke:#181818;stroke-width:1;stroke-linejoin:miter;stroke-miterlimit:10;"/><text x="759.817" y="250.192" fill="#000" font-size="13" textLength="135.891">Валидация данных,</text><text x="759.817" y="265.325" fill="#000" font-size="13" textLength="107.98">расчёт калорий</text><polygon points="903.947,308.523,913.947,312.523,903.947,316.523,907.947,312.523" fill="#181818" style="stroke:#181818;stroke-width:1;stroke-linejoin:miter;stroke-miterlimit:10;"/><line x1="752.817" y1="312.523" x2="909.947" y2="312.523" style="stroke:#181818;stroke-width:1;"/><text x="759.817" y="307.458" fill="#000" font-size="13" textLength="144.13">INSERT INTO trainings</text><polygon points="763.817,337.656,753.817,341.656,763.817,345.656,759.817,341.656" fill="#181818" style="stroke:#181818;stroke-width:1;stroke-linejoin:miter;stroke-miterlimit:10;"/><line x1="757.817" y1="341.656" x2="914.947" y2="341.656" style="stroke:#181818;stroke-width:1;stroke-dasharray:2,2;"/><text x="769.817" y="336.59" fill="#000" font-size="13" textLength="129.968">OK (id тренировки)</text><polygon points="559.177,381.922,549.177,385.922,559.177,389.922,555.177,385.922" fill="#181818" style="stroke:#181818;stroke-width:1;stroke-linejoin:miter;stroke-miterlimit:10;"/><line x1="553.177" y1="385.922" x2="741.817" y2="385.922" style="stroke:#181818;stroke-width:1;stroke-dasharray:2,2;"/><text x="565.177" y="365.723" fill="#000" font-size="13" textLength="80.679">201 Created</text><text x="565.177" y="380.856" fill="#000" font-size="13" textLength="87.077">{id, calories}</text><polygon points="358.276,426.188,348.276,430.188,358.276,434.188,354.276,430.188" fill="#181818" style="stroke:#181818;stroke-width:1;stroke-linejoin:miter;stroke-miterlimit:10;"/><line x1="352.276" y1="430.188" x2="537.177" y2="430.188" style="stroke:#181818;stroke-width:1;stroke-dasharray:2,2;"/><text x="364.276" y="409.989" fill="#000" font-size="13" textLength="80.679">201 Created</text><text x="364.276" y="425.122" fill="#000" font-size="13" textLength="87.077">{id, calories}</text><polygon points="75.55,470.453,65.55,474.453,75.55,478.453,71.55,474.453" fill="#181818" style="stroke:#181818;stroke-width:1;stroke-linejoin:miter;stroke-miterlimit:10;"/><line x1="69.55" y1="474.453" x2="336.276" y2="474.453" style="stroke:#181818;stroke-width:1;stroke-dasharray:2,2;"/><text x="81.55" y="454.254" fill="#000" font-size="13" textLength="177.411">Показывает уведомление</text><text x="81.55" y="469.387" fill="#000" font-size="13" textLength="172.84">«Тренировка сохранена»</text><?plantuml-src ZLFFQnD16BtlN_6HKm8fjHvp44mZKdyqqQHuoMNCBd4ap8RTiLgaq6wfFRGWYaUbwDNBMasJcYQ5_WNV_4U-sTqa6-r10jdvyStxthptHalTyuW_yOXZ_cdsy7-9NqnynLEppsCUy2-UyXd79i9uR4vuOdSm6rK85LCUeYB6weW7P29W3Em4NtliDu-esAWtMxIg0o6LLDsmv3YYe_s02doA8eivNEvH817ILkW5Jby4MdPaNoYDyiye-u566Gqqv2iqmW8cvsbZ7hHL4K0M63JDCLyGQ8pj3azCL4h0rtlIKteP_cvZW-uBxRqMEu3Ox4hr9YtE5cyWOqa0sKGuK7ifLDTFJppsbT-J-eNZ2YsUYz2ZGiCFTJVmcayU9HMrgkFO6zBAdOnCXVWBX3m7KJZ00nFHzNV-2hKF4sEig94vkK5ZSt0zjfBARH2TNSr9lnO_ur-Xr0ZHbwlRQmi_skgjtkbxPN9V1K9BNs4aGorKnzjTmCv4SBA11PvT4zHFGNWlIKjiZco0Xg1ipR4nYgbezkd1irPfWJUNo9cD_aBy203hcaLyXyk-fone4tDi3ijjPLM1nKVc0wI2nRPyciJXOWcpLgtGncRptjCMFgqwpI--80CtQbLQMI9GVqX5wTuOwPBZUlcpkNPvkM_VMgFrmCFKXSRIBLD7zFn0Uk5k7c2Xn5pQN2Z-4sHkpynsGDXy9TPC4tM6U0jdMRBC0ORfsxvCNddsSf2uR__SDquU-Zo6TZD6udBTqwP_0000?></g></svg>