<svg xmlns="http://www.w3.org/2000/svg" xmlns:xlink="http://www.w3.org/1999/xlink" version="1.1" data-diagram-type="DESCRIPTION" style="width:1975px;height:912px;background:#FFFFFF;" width="1975px" height="912px" viewBox="0 0 1975 912" zoomAndPan="magnify" preserveAspectRatio="none" contentStyleType="text/css"><?plantuml 1.2026.7beta8?><defs/><g font-family="sans-serif" lengthAdjust="spacing"><g class="title" data-source-line="1"><text x="767.728" y="22.995" fill="#000" font-size="14" textLength="432.544" font-weight="700">FitCommunity - Диаграмма развертывания (Monolith)</text></g><!--cluster Интернет--><g class="cluster" data-qualified-name="........" id="ent0001" data-source-line="3"><polygon points="1205,574.087,1215,564.087,1950,564.087,1950,728.377,1940,738.377,1205,738.377,1205,574.087" fill="none" style="stroke:#181818;stroke-width:1;stroke-linejoin:miter;stroke-miterlimit:10;"/><line x1="1940" y1="574.087" x2="1950" y2="564.087" style="stroke:#181818;stroke-width:1;"/><line x1="1205" y1="574.087" x2="1940" y2="574.087" style="stroke:#181818;stroke-width:1;"/><line x1="1940" y1="574.087" x2="1940" y2="738.377" style="stroke:#181818;stroke-width:1;"/><text x="1535.349" y="590.082" fill="#000" font-size="14" textLength="76.303" font-weight="700">Интернет</text></g><!--cluster external--><g class="cluster" data-qualified-name=".........external" id="ent0003" data-source-line="5"><polygon points="1229,622.087,1239,612.087,1771,612.087,1771,704.377,1761,714.377,1229,714.377,1229,622.087" fill="none" style="stroke:#181818;stroke-width:1;stroke-linejoin:miter;stroke-miterlimit:10;"/><line x1="1761" y1="622.087" x2="1771" y2="612.087" style="stroke:#181818;stroke-width:1;"/><line x1="1229" y1="622.087" x2="1761" y2="622.087" style="stroke:#181818;stroke-width:1;"/><line x1="1761" y1="622.087" x2="1761" y2="714.377" style="stroke:#181818;stroke-width:1;"/><text x="1443.568" y="638.082" fill="#000" font-size="14" textLength="104.863" font-weight="700">Внешние API</text></g><!--cluster Яндекс.Облако / AWS--><g class="cluster" data-qualified-name="............. . AWS" id="ent0007" data-source-line="12"><polygon points="16,53.297,26,43.297,1181,43.297,1181,877.677,1171,887.677,16,887.677,16,53.297" fill="none" style="stroke:#181818;stroke-width:1;stroke-linejoin:miter;stroke-miterlimit:10;"/><line x1="1171" y1="53.297" x2="1181" y2="43.297" style="stroke:#181818;stroke-width:1;"/><line x1="16" y1="53.297" x2="1171" y2="53.297" style="stroke:#181818;stroke-width:1;"/><line x1="1171" y1="53.297" x2="1171" y2="887.677" style="stroke:#181818;stroke-width:1;"/><text x="506.453" y="69.292" fill="#000" font-size="14" textLength="176.094" font-weight="700">Яндекс.Облако / AWS</text></g><!--cluster DMZ (публичная зона)--><g class="cluster" data-qualified-name="............. . AWS.DMZ .......... ....." id="ent0008" data-source-line="13"><polygon points="383,101.297,393,91.297,640,91.297,640,339.487,630,349.487,383,349.487,383,101.297" fill="none" style="stroke:#181818;stroke-width:1;stroke-linejoin:miter;stroke-miterlimit:10;"/><line x1="630" y1="101.297" x2="640" y2="91.297" style="stroke:#181818;stroke-width:1;"/><line x1="383" y1="101.297" x2="630" y2="101.297" style="stroke:#181818;stroke-width:1;"/><line x1="630" y1="101.297" x2="630" y2="349.487" style="stroke:#181818;stroke-width:1;"/><text x="416.76" y="117.292" fill="#000" font-size="14" textLength="181.48" font-weight="700">DMZ (публичная зона)</text></g><!--cluster Приватная подсеть--><g class="cluster" data-qualified-name="............. . AWS.......... ......." id="ent0011" data-source-line="17"><polygon points="40,408.487,50,398.487,593,398.487,593,712.527,583,722.527,40,722.527,40,408.487" fill="none" style="stroke:#181818;stroke-width:1;stroke-linejoin:miter;stroke-miterlimit:10;"/><line x1="583" y1="408.487" x2="593" y2="398.487" style="stroke:#181818;stroke-width:1;"/><line x1="40" y1="408.487" x2="583" y2="408.487" style="stroke:#181818;stroke-width:1;"/><line x1="583" y1="408.487" x2="583" y2="722.527" style="stroke:#181818;stroke-width:1;"/><text x="234.345" y="424.482" fill="#000" font-size="14" textLength="156.311" font-weight="700">Приватная подсеть</text></g><!--cluster БД-кластер (приватный)--><g class="cluster" data-qualified-name="............. . AWS...-....... ..........." id="ent0016" data-source-line="23"><polygon points="617,622.087,627,612.087,892,612.087,892,853.677,882,863.677,617,863.677,617,622.087" fill="none" style="stroke:#181818;stroke-width:1;stroke-linejoin:miter;stroke-miterlimit:10;"/><line x1="882" y1="622.087" x2="892" y2="612.087" style="stroke:#181818;stroke-width:1;"/><line x1="617" y1="622.087" x2="882" y2="622.087" style="stroke:#181818;stroke-width:1;"/><line x1="882" y1="622.087" x2="882" y2="863.677" style="stroke:#181818;stroke-width:1;"/><text x="650.589" y="638.082" fill="#000" font-size="14" textLength="199.821" font-weight="700">БД-кластер (приватный)</text></g><!--entity users--><g class="entity" data-qualified-name=".........users" id="ent0002" data-source-line="4"><polygon points="1790.03,662.087,1800.03,652.087,1933.977,652.087,1933.977,688.384,1923.977,698.384,1790.03,698.384,1790.03,662.087" fill="#F1F1F1" style="stroke:#181818;stroke-width:0.5;stroke-linejoin:miter;stroke-miterlimit:10;"/><line x1="1923.977" y1="662.087" x2="1933.977" y2="652.087" style="stroke:#181818;stroke-width:0.5;"/><line x1="1790.03" y1="662.087" x2="1923.977" y2="662.087" style="stroke:#181818;stroke-width:0.5;"/><line x1="1923.977" y1="662.087" x2="1923.977" y2="698.384" style="stroke:#181818;stroke-width:0.5;"/><text x="1805.03" y="685.082" fill="#000" font-size="14" textLength="103.947">Пользователи</text></g><!--entity fitness_api--><g class="entity" data-qualified-name=".........external.fitness_api" id="ent0004" data-source-line="6"><polygon points="1244.71,662.087,1254.71,652.087,1431.286,652.087,1431.286,688.384,1421.286,698.384,1244.71,698.384,1244.71,662.087" fill="#F1F1F1" style="stroke:#181818;stroke-width:0.5;stroke-linejoin:miter;stroke-miterlimit:10;"/><line x1="1421.286" y1="662.087" x2="1431.286" y2="652.087" style="stroke:#181818;stroke-width:0.5;"/><line x1="1244.71" y1="662.087" x2="1421.286" y2="662.087" style="stroke:#181818;stroke-width:0.5;"/><line x1="1421.286" y1="662.087" x2="1421.286" y2="698.384" style="stroke:#181818;stroke-width:0.5;"/><text x="1259.71" y="685.082" fill="#000" font-size="14" textLength="146.576">Garmin/Apple Health</text></g><!--entity payment_api--><g class="entity" data-qualified-name=".........external.payment_api" id="ent0005" data-source-line="7"><polygon points="1466.4,662.087,1476.4,652.087,1615.604,652.087,1615.604,688.384,1605.604,698.384,1466.4,698.384,1466.4,662.087" fill="#F1F1F1" style="stroke:#181818;stroke-width:0.5;stroke-linejoin:miter;stroke-miterlimit:10;"/><line x1="1605.604" y1="662.087" x2="1615.604" y2="652.087" style="stroke:#181818;stroke-width:0.5;"/><line x1="1466.4" y1="662.087" x2="1605.604" y2="662.087" style="stroke:#181818;stroke-width:0.5;"/><line x1="1605.604" y1="662.087" x2="1605.604" y2="698.384" style="stroke:#181818;stroke-width:0.5;"/><text x="1481.4" y="685.082" fill="#000" font-size="14" textLength="109.204">CloudPayments</text></g><!--entity email_api--><g class="entity" data-qualified-name=".........external.email_api" id="ent0006" data-source-line="8"><polygon points="1650.68,662.087,1660.68,652.087,1755.321,652.087,1755.321,688.384,1745.321,698.384,1650.68,698.384,1650.68,662.087" fill="#F1F1F1" style="stroke:#181818;stroke-width:0.5;stroke-linejoin:miter;stroke-miterlimit:10;"/><line x1="1745.321" y1="662.087" x2="1755.321" y2="652.087" style="stroke:#181818;stroke-width:0.5;"/><line x1="1650.68" y1="662.087" x2="1745.321" y2="662.087" style="stroke:#181818;stroke-width:0.5;"/><line x1="1745.321" y1="662.087" x2="1745.321" y2="698.384" style="stroke:#181818;stroke-width:0.5;"/><text x="1665.68" y="685.082" fill="#000" font-size="14" textLength="64.641">SendGrid</text></g><!--entity lb--><g class="entity" data-qualified-name="............. . AWS.DMZ .......... ......lb" id="ent0009" data-source-line="14"><polygon points="441.06,141.297,451.06,131.297,580.933,131.297,580.933,183.891,570.933,193.891,441.06,193.891,441.06,141.297" fill="#F1F1F1" style="stroke:#181818;stroke-width:0.5;stroke-linejoin:miter;stroke-miterlimit:10;"/><line x1="570.933" y1="141.297" x2="580.933" y2="131.297" style="stroke:#181818;stroke-width:0.5;"/><line x1="441.06" y1="141.297" x2="570.933" y2="141.297" style="stroke:#181818;stroke-width:0.5;"/><line x1="570.933" y1="141.297" x2="570.933" y2="193.891" style="stroke:#181818;stroke-width:0.5;"/><text x="456.06" y="164.292" fill="#000" font-size="14" textLength="99.873">Load Balancer</text><text x="456.06" y="180.589" fill="#000" font-size="14" textLength="83.029">(Nginx/ALB)</text></g><!--entity proxy--><g class="entity" data-qualified-name="............. . AWS.DMZ .......... ......proxy" id="ent0010" data-source-line="15"><polygon points="440.66,280.897,450.66,270.897,581.347,270.897,581.347,323.491,571.347,333.491,440.66,333.491,440.66,280.897" fill="#F1F1F1" style="stroke:#181818;stroke-width:0.5;stroke-linejoin:miter;stroke-miterlimit:10;"/><line x1="571.347" y1="280.897" x2="581.347" y2="270.897" style="stroke:#181818;stroke-width:0.5;"/><line x1="440.66" y1="280.897" x2="571.347" y2="280.897" style="stroke:#181818;stroke-width:0.5;"/><line x1="571.347" y1="280.897" x2="571.347" y2="333.491" style="stroke:#181818;stroke-width:0.5;"/><text x="455.66" y="303.892" fill="#000" font-size="14" textLength="100.687">Reverse Proxy</text><text x="455.66" y="320.189" fill="#000" font-size="14" textLength="51.331">(Nginx)</text></g><!--entity app1--><g class="entity" data-qualified-name="............. . AWS.......... ........app1" id="ent0012" data-source-line="18"><polygon points="445.47,448.487,455.47,438.487,576.538,438.487,576.538,491.081,566.538,501.081,445.47,501.081,445.47,448.487" fill="#F1F1F1" style="stroke:#181818;stroke-width:0.5;stroke-linejoin:miter;stroke-miterlimit:10;"/><line x1="566.538" y1="448.487" x2="576.538" y2="438.487" style="stroke:#181818;stroke-width:0.5;"/><line x1="445.47" y1="448.487" x2="566.538" y2="448.487" style="stroke:#181818;stroke-width:0.5;"/><line x1="566.538" y1="448.487" x2="566.538" y2="501.081" style="stroke:#181818;stroke-width:0.5;"/><text x="460.47" y="471.482" fill="#000" font-size="14" textLength="91.068">App Server 1</text><text x="460.47" y="487.779" fill="#000" font-size="14" textLength="71.148">(Monolith)</text></g><!--entity app2--><g class="entity" data-qualified-name="............. . AWS.......... ........app2" id="ent0013" data-source-line="19"><polygon points="279.47,448.487,289.47,438.487,410.538,438.487,410.538,491.081,400.538,501.081,279.47,501.081,279.47,448.487" fill="#F1F1F1" style="stroke:#181818;stroke-width:0.5;stroke-linejoin:miter;stroke-miterlimit:10;"/><line x1="400.538" y1="448.487" x2="410.538" y2="438.487" style="stroke:#181818;stroke-width:0.5;"/><line x1="279.47" y1="448.487" x2="400.538" y2="448.487" style="stroke:#181818;stroke-width:0.5;"/><line x1="400.538" y1="448.487" x2="400.538" y2="501.081" style="stroke:#181818;stroke-width:0.5;"/><text x="294.47" y="471.482" fill="#000" font-size="14" textLength="91.068">App Server 2</text><text x="294.47" y="487.779" fill="#000" font-size="14" textLength="71.148">(Monolith)</text></g><!--entity redis--><g class="entity" data-qualified-name="............. . AWS.......... ........redis" id="ent0014" data-source-line="20"><polygon points="377.8,653.937,387.8,643.937,504.199,643.937,504.199,696.531,494.199,706.531,377.8,706.531,377.8,653.937" fill="#F1F1F1" style="stroke:#181818;stroke-width:0.5;stroke-linejoin:miter;stroke-miterlimit:10;"/><line x1="494.199" y1="653.937" x2="504.199" y2="643.937" style="stroke:#181818;stroke-width:0.5;"/><line x1="377.8" y1="653.937" x2="494.199" y2="653.937" style="stroke:#181818;stroke-width:0.5;"/><line x1="494.199" y1="653.937" x2="494.199" y2="706.531" style="stroke:#181818;stroke-width:0.5;"/><text x="392.8" y="676.932" fill="#000" font-size="14" textLength="86.399">Redis Cache</text><text x="392.8" y="693.229" fill="#000" font-size="14" textLength="61.359">&amp; Queue</text></g><!--entity storage--><g class="entity" data-qualified-name="............. . AWS.......... ........storage" id="ent0015" data-source-line="21"><polygon points="139.14,662.087,149.14,652.087,300.868,652.087,300.868,688.384,290.868,698.384,139.14,698.384,139.14,662.087" fill="#F1F1F1" style="stroke:#181818;stroke-width:0.5;stroke-linejoin:miter;stroke-miterlimit:10;"/><line x1="290.868" y1="662.087" x2="300.868" y2="652.087" style="stroke:#181818;stroke-width:0.5;"/><line x1="139.14" y1="662.087" x2="290.868" y2="662.087" style="stroke:#181818;stroke-width:0.5;"/><line x1="290.868" y1="662.087" x2="290.868" y2="698.384" style="stroke:#181818;stroke-width:0.5;"/><text x="154.14" y="685.082" fill="#000" font-size="14" textLength="121.728">MinIO/S3 Storage</text></g><!--entity db_master--><g class="entity" data-qualified-name="............. . AWS...-....... ............db_master" id="ent0017" data-source-line="24"><polygon points="633.49,662.087,643.49,652.087,806.504,652.087,806.504,688.384,796.504,698.384,633.49,698.384,633.49,662.087" fill="#F1F1F1" style="stroke:#181818;stroke-width:0.5;stroke-linejoin:miter;stroke-miterlimit:10;"/><line x1="796.504" y1="662.087" x2="806.504" y2="652.087" style="stroke:#181818;stroke-width:0.5;"/><line x1="633.49" y1="662.087" x2="796.504" y2="662.087" style="stroke:#181818;stroke-width:0.5;"/><line x1="796.504" y1="662.087" x2="796.504" y2="698.384" style="stroke:#181818;stroke-width:0.5;"/><text x="648.49" y="685.082" fill="#000" font-size="14" textLength="133.014">PostgreSQL Master</text></g><!--entity db_replica--><g class="entity" data-qualified-name="............. . AWS...-....... ............db_replica" id="ent0018" data-source-line="25"><polygon points="637.76,811.377,647.76,801.377,814.246,801.377,814.246,837.674,804.246,847.674,637.76,847.674,637.76,811.377" fill="#F1F1F1" style="stroke:#181818;stroke-width:0.5;stroke-linejoin:miter;stroke-miterlimit:10;"/><line x1="804.246" y1="811.377" x2="814.246" y2="801.377" style="stroke:#181818;stroke-width:0.5;"/><line x1="637.76" y1="811.377" x2="804.246" y2="811.377" style="stroke:#181818;stroke-width:0.5;"/><line x1="804.246" y1="811.377" x2="804.246" y2="847.674" style="stroke:#181818;stroke-width:0.5;"/><text x="652.76" y="834.372" fill="#000" font-size="14" textLength="136.486">PostgreSQL Replica</text></g><g class="entity" data-qualified-name="GMN35" id="ent0036" data-source-line="47"><path d="M1196.98,442.087 L1196.98,465.787 L577.01,469.787 L1196.98,473.787 L1196.98,497.485 A0,0 0 0 0 1196.98,497.485 L1397.016,497.485 A0,0 0 0 0 1397.016,497.485 L1397.016,452.087 L1387.016,442.087 L1196.98,442.087 A0,0 0 0 0 1196.98,442.087" style="stroke:#181818;stroke-width:0.5;" fill="#FEFFDD"/><path d="M1387.016,442.087 L1387.016,452.087 L1397.016,452.087 L1387.016,442.087" style="stroke:#181818;stroke-width:0.5;" fill="#FEFFDD"/><text x="1202.98" y="459.154" fill="#000" font-size="13" textLength="179.036">Монолитное приложение:</text><text x="1202.98" y="474.287" fill="#000" font-size="13" textLength="107.117">- Django/FastAPI</text><text x="1202.98" y="489.419" fill="#000" font-size="13" textLength="177.188">- REST API для фронтенда</text></g><!--link users to lb--><g class="link" data-entity-1="ent0002" data-entity-2="ent0009" id="lnk19" data-source-line="29" data-link-type="dependency"><path d="M1849.45,652.047 C1833.88,626.157 1805.16,583.427 1771,556.087 C1634.76,447.047 1579.47,448.787 1415,390.487 C1112.07,283.107 739.932,206.712 586.132,177.432" style="stroke:#181818;stroke-width:1;" fill="none" id="users-to-lb"/><polygon points="581.22,176.497,589.313,182.109,586.132,177.432,590.809,174.251,581.22,176.497" fill="#181818" style="stroke:#181818;stroke-width:1;stroke-linejoin:miter;stroke-miterlimit:10;"/><text x="1388" y="378.554" fill="#000" font-size="13" textLength="70.941">HTTPS/443</text></g><!--link lb to proxy--><g class="link" data-entity-1="ent0009" data-entity-2="ent0010" id="lnk20" data-source-line="30" data-link-type="dependency"><path d="M511,194.137 C511,216.937 511,242.957 511,265.737" style="stroke:#181818;stroke-width:1;" fill="none" id="lb-to-proxy"/><polygon points="511,270.737,515,261.737,511,265.737,507,261.737,511,270.737" fill="#181818" style="stroke:#181818;stroke-width:1;stroke-linejoin:miter;stroke-miterlimit:10;"/><text x="512" y="236.964" fill="#000" font-size="13" textLength="54.418">HTTP/80</text></g><!--link proxy to app1--><g class="link" data-entity-1="ent0010" data-entity-2="ent0012" id="lnk21" data-source-line="31" data-link-type="dependency"><path d="M511,333.947 C511,363.697 511,403.507 511,433.197" style="stroke:#181818;stroke-width:1;" fill="none" id="proxy-to-app1"/><polygon points="511,438.197,515,429.197,511,433.197,507,429.197,511,438.197" fill="#181818" style="stroke:#181818;stroke-width:1;stroke-linejoin:miter;stroke-miterlimit:10;"/><text x="512" y="378.554" fill="#000" font-size="13" textLength="70.96">HTTP/8000</text></g><!--link proxy to app2--><g class="link" data-entity-1="ent0010" data-entity-2="ent0013" id="lnk22" data-source-line="32" data-link-type="dependency"><path d="M468.07,333.907 C455.65,343.497 442.38,354.467 431,365.487 C407.53,388.207 387.063,413.017 370.563,434.417" style="stroke:#181818;stroke-width:1;" fill="none" id="proxy-to-app2"/><polygon points="367.51,438.377,376.173,433.692,370.563,434.417,369.838,428.807,367.51,438.377" fill="#181818" style="stroke:#181818;stroke-width:1;stroke-linejoin:miter;stroke-miterlimit:10;"/><text x="432" y="378.554" fill="#000" font-size="13" textLength="70.96">HTTP/8000</text></g><!--link app1 to redis--><g class="link" data-entity-1="ent0012" data-entity-2="ent0014" id="lnk23" data-source-line="33" data-link-type="dependency"><path d="M500.52,501.247 C487.32,539.597 466.407,600.389 453.177,638.839" style="stroke:#181818;stroke-width:1;" fill="none" id="app1-to-redis"/><polygon points="451.55,643.567,458.261,636.358,453.177,638.839,450.696,633.755,451.55,643.567" fill="#181818" style="stroke:#181818;stroke-width:1;stroke-linejoin:miter;stroke-miterlimit:10;"/><text x="489" y="544.154" fill="#000" font-size="13" textLength="92.701">Redis Protocol</text></g><!--link app2 to redis--><g class="link" data-entity-1="ent0013" data-entity-2="ent0014" id="lnk24" data-source-line="34" data-link-type="dependency"><path d="M279.27,486.187 C235.91,499.307 191.46,520.437 217,548.087 C232.28,564.617 297.46,546.857 318,556.087 C360.41,575.127 393.982,611.316 415.992,639.496" style="stroke:#181818;stroke-width:1;" fill="none" id="app2-to-redis"/><polygon points="419.07,643.437,416.682,633.882,415.992,639.496,410.378,638.806,419.07,643.437" fill="#181818" style="stroke:#181818;stroke-width:1;stroke-linejoin:miter;stroke-miterlimit:10;"/><text x="218" y="544.154" fill="#000" font-size="13" textLength="92.701">Redis Protocol</text></g><!--link app1 to storage--><g class="link" data-entity-1="ent0012" data-entity-2="ent0015" id="lnk25" data-source-line="35" data-link-type="dependency"><path d="M445.11,499.707 C426.45,508.857 406.48,519.607 389,531.087 C332.59,568.117 277.704,618.181 246.494,648.191" style="stroke:#181818;stroke-width:1;" fill="none" id="app1-to-storage"/><polygon points="242.89,651.657,252.15,648.302,246.494,648.191,246.605,642.536,242.89,651.657" fill="#181818" style="stroke:#181818;stroke-width:1;stroke-linejoin:miter;stroke-miterlimit:10;"/><text x="390" y="544.154" fill="#000" font-size="13" textLength="87.35">S3 API/HTTPS</text></g><!--link app2 to storage--><g class="link" data-entity-1="ent0013" data-entity-2="ent0015" id="lnk26" data-source-line="36" data-link-type="dependency"><path d="M279.04,478.837 C217.56,487.867 132.37,504.777 112,531.087 C79.22,573.427 135.066,620.735 177.986,649.035" style="stroke:#181818;stroke-width:1;" fill="none" id="app2-to-storage"/><polygon points="182.16,651.787,176.848,643.493,177.986,649.035,172.444,650.172,182.16,651.787" fill="#181818" style="stroke:#181818;stroke-width:1;stroke-linejoin:miter;stroke-miterlimit:10;"/><text x="113" y="544.154" fill="#000" font-size="13" textLength="87.35">S3 API/HTTPS</text></g><!--link app1 to db_master--><g class="link" data-entity-1="ent0012" data-entity-2="ent0017" id="lnk27" data-source-line="37" data-link-type="dependency"><path d="M576.75,475.717 C650.37,482.777 762.84,498.647 789,531.087 C819.31,568.667 779.503,618.259 749.023,648.099" style="stroke:#181818;stroke-width:1;" fill="none" id="app1-to-db_master"/><polygon points="745.45,651.597,754.679,648.159,749.023,648.099,749.083,642.443,745.45,651.597" fill="#181818" style="stroke:#181818;stroke-width:1;stroke-linejoin:miter;stroke-miterlimit:10;"/><text x="797" y="544.154" fill="#000" font-size="13" textLength="110.151">SQL/5432 (write)</text></g><!--link app2 to db_master--><g class="link" data-entity-1="ent0013" data-entity-2="ent0017" id="lnk28" data-source-line="38" data-link-type="dependency"><path d="M410.82,495.937 C416.59,497.797 422.38,499.547 428,501.087 C498.64,520.367 526.03,495.447 590,531.087 C642.79,560.497 682.907,615.111 703.687,647.441" style="stroke:#181818;stroke-width:1;" fill="none" id="app2-to-db_master"/><polygon points="706.39,651.647,704.889,641.913,703.687,647.441,698.159,646.239,706.39,651.647" fill="#181818" style="stroke:#181818;stroke-width:1;stroke-linejoin:miter;stroke-miterlimit:10;"/><text x="612" y="544.154" fill="#000" font-size="13" textLength="110.151">SQL/5432 (write)</text></g><!--link app1 to db_replica--><g class="link" data-entity-1="ent0012" data-entity-2="ent0018" id="lnk29" data-source-line="39" data-link-type="dependency"><path d="M576.96,471.717 C697.58,475.047 945.76,489.957 994,556.087 C1043.85,624.407 1044.86,678.807 994,746.377 C972.16,775.397 888.817,795.987 819.477,808.817" style="stroke:#181818;stroke-width:1;" fill="none" id="app1-to-db_replica"/><polygon points="814.56,809.727,824.138,812.023,819.477,808.817,822.682,804.156,814.56,809.727" fill="#181818" style="stroke:#181818;stroke-width:1;stroke-linejoin:miter;stroke-miterlimit:10;"/><text x="1032" y="679.794" fill="#000" font-size="13" textLength="107.028">SQL/5432 (read)</text></g><!--link app2 to db_replica--><g class="link" data-entity-1="ent0013" data-entity-2="ent0018" id="lnk30" data-source-line="40" data-link-type="dependency"><path d="M410.69,496.457 C416.49,498.207 422.32,499.787 428,501.087 C514.62,520.847 761.97,492.477 824,556.087 C841.11,573.627 886.12,751.347 872,771.377 C858.36,790.737 841.568,801.331 819.208,809.021" style="stroke:#181818;stroke-width:1;" fill="none" id="app2-to-db_replica"/><polygon points="814.48,810.647,824.292,811.502,819.208,809.021,821.69,803.937,814.48,810.647" fill="#181818" style="stroke:#181818;stroke-width:1;stroke-linejoin:miter;stroke-miterlimit:10;"/><text x="875" y="679.794" fill="#000" font-size="13" textLength="107.028">SQL/5432 (read)</text></g><!--link db_master to db_replica--><g class="link" data-entity-1="ent0017" data-entity-2="ent0018" id="lnk31" data-source-line="41" data-link-type="dependency"><path d="M720.12,698.547 C720.31,717.837 720.78,746.457 722,771.377 C722.47,781.087 722.848,786.803 723.588,795.973" style="stroke:#181818;stroke-width:1;" fill="none" id="db_master-to-db_replica"/><polygon points="723.99,800.957,727.253,791.664,723.588,795.973,719.279,792.308,723.99,800.957" fill="#181818" style="stroke:#181818;stroke-width:1;stroke-linejoin:miter;stroke-miterlimit:10;"/><text x="723" y="767.444" fill="#000" font-size="13" textLength="144.079">Streaming Replication</text></g><!--link app1 to fitness_api--><g class="link" data-entity-1="ent0012" data-entity-2="ent0004" id="lnk32" data-source-line="42" data-link-type="dependency"><path d="M577.02,474.397 C722.75,483.147 1067.4,508.357 1173,556.087 C1227.74,580.817 1278.994,621.728 1309.634,648.488" style="stroke:#181818;stroke-width:1;" fill="none" id="app1-to-fitness_api"/><polygon points="1313.4,651.777,1309.253,642.844,1309.634,648.488,1303.99,648.869,1313.4,651.777" fill="#181818" style="stroke:#181818;stroke-width:1;stroke-linejoin:miter;stroke-miterlimit:10;"/><text x="1145" y="544.154" fill="#000" font-size="13" textLength="95.101">OAuth2/HTTPS</text></g><!--link app1 to payment_api--><g class="link" data-entity-1="ent0012" data-entity-2="ent0005" id="lnk33" data-source-line="43" data-link-type="dependency"><path d="M577.03,474.887 C706.26,483.207 1001.61,503.617 1249,531.087 C1302.97,537.077 1316.09,541.567 1370,548.087 C1387.52,550.197 1433.56,547.547 1449,556.087 C1488.36,577.847 1514.271,619.692 1528.401,647.432" style="stroke:#181818;stroke-width:1;" fill="none" id="app1-to-payment_api"/><polygon points="1530.67,651.887,1530.149,642.052,1528.401,647.432,1523.021,645.683,1530.67,651.887" fill="#181818" style="stroke:#181818;stroke-width:1;stroke-linejoin:miter;stroke-miterlimit:10;"/><text x="1371" y="544.154" fill="#000" font-size="13" textLength="66.695">HTTPS/API</text></g><!--link app1 to email_api--><g class="link" data-entity-1="ent0012" data-entity-2="ent0006" id="lnk34" data-source-line="44" data-link-type="dependency"><path d="M577.01,473.737 C775.54,482.817 1358.62,510.867 1442,531.087 C1460.38,535.537 1462.6,543.737 1481,548.087 C1497.46,551.967 1618.53,547.327 1633,556.087 C1668.29,577.437 1686.318,619.127 1695.288,646.997" style="stroke:#181818;stroke-width:1;" fill="none" id="app1-to-email_api"/><polygon points="1696.82,651.757,1697.87,641.964,1695.288,646.997,1690.255,644.415,1696.82,651.757" fill="#181818" style="stroke:#181818;stroke-width:1;stroke-linejoin:miter;stroke-miterlimit:10;"/><text x="1482" y="544.154" fill="#000" font-size="13" textLength="60.195">SMTP/API</text></g><?plantuml-src XPJTQXD1583lzoaEkP3a8cwRLf1U26bhVo2nIRSWIA5CizDaP3Exx4wqHGfj51GiYD8BBqGVmQYDniQchp3pHfwPtMRpqsW3PMRFT_xF7C64Hs6DYHM_sMnn9euW3_9SzcH7_b0d-FyF_ZfWZh_aTzbL9wgjtkAf8wzaJxs3RDddliT48sTPt7SfPEH7UQNQ6aMagzePU641_YNIBt8W--eCpGsq6KtAlknbW4JGYcWOZS8VZ8atsfViGh6oQJ1wA6Z8YPSOJlbr4ZOPjuj1W6bjKEA9Xb4uO8BJADeZ0PlGMF7ybbiXHqtAHMJO8BxSmZgKk-iXS-COceHvG-ZOEXwc_nMZlS2aBjNfNVbPViFiEl9I3i26ucDdl1ghvIUGbTVgfS5wwZNgTh2gfZfup6McSYpvn8LbuX5Ue-4kppwgCtve5qlBEHENjp_1RzDdM5GAbT0_FBhXOpRGdvBuHpk4dUiblKd2kSPmBjIfRgSwcuu92muE3T4HpAEBuKWOBoG8vcVpXTlumbGEBejWXTGQT9VVWMgBjgXXGosOWCkCRsxPpW8umWz9FGQZ-3oTx7jvdiVkO8_KQJorfY4Z5S1n_trB7of-9EeXTQebA9C81zBuSVVtckOsczwcWSTgv0OFusiwHkOHG3x_07i9Ix2nirDnxCN51Gkl-glfMYAmxyzPyLrBTALJmTo4g30cCgoMc1AYAAunJedmQxvd6OL_osFzfB98OCdnXTecu5H_jZpM7rPC4zMIVMzneG3Pvo4JD9TQ-Hyrj9MKSmmBAN77RSscKaVJg404zqlzfeM2-JnrFh9a4DugjaIZC9dio78PjXPhaWB3jQBzbR5PMegRHL08MRqXm3z87vJyPBR4mAoEjZbr8HdUFbv-uXOoctF9u7bOVKfutRVNC45jD_wu_T3PqOq1t5fzVEpg5HeOn3lShBAEXOiFT0n_0G00?></g></svg>