<svg xmlns="http://www.w3.org/2000/svg" xmlns:xlink="http://www.w3.org/1999/xlink" version="1.1" data-diagram-type="SEQUENCE" style="width:869px;height:424px;background:#FFFFFF;" width="869px" height="424px" viewBox="0 0 869 424" zoomAndPan="magnify" preserveAspectRatio="none" contentStyleType="text/css"><?plantuml 1.2026.7beta8?><defs/><g font-family="sans-serif" lengthAdjust="spacing"><g><title>............</title><rect x="61.05" y="86.297" width="8" height="251.063" fill="#000" fill-opacity="0"/><line x1="64.55" y1="86.297" x2="64.55" y2="337.359" style="stroke:#181818;stroke-width:0.5;stroke-dasharray:5,5;"/></g><g><title>......... ..........</title><rect x="242.599" y="86.297" width="8" height="251.063" fill="#000" fill-opacity="0"/><line x1="246.099" y1="86.297" x2="246.099" y2="337.359" style="stroke:#181818;stroke-width:0.5;stroke-dasharray:5,5;"/></g><g><title>API Gateway</title><rect x="415.375" y="86.297" width="8" height="251.063" fill="#000" fill-opacity="0"/><line x1="418.875" y1="86.297" x2="418.875" y2="337.359" style="stroke:#181818;stroke-width:0.5;stroke-dasharray:5,5;"/></g><g><title>payments.proxy</title><rect x="540.673" y="86.297" width="8" height="251.063" fill="#000" fill-opacity="0"/><line x1="544.173" y1="86.297" x2="544.173" y2="337.359" style="stroke:#181818;stroke-width:0.5;stroke-dasharray:5,5;"/></g><g><title>CloudPayments API</title><rect x="780.589" y="86.297" width="8" height="251.063" fill="#000" fill-opacity="0"/><line x1="784.089" y1="86.297" x2="784.089" y2="337.359" style="stroke:#181818;stroke-width:0.5;stroke-dasharray:5,5;"/></g><text x="10" y="82.995" fill="#000" font-size="14" textLength="103.1">Пользователь</text><ellipse cx="64.55" cy="18.5" rx="8" ry="8" fill="#E2E2F0" style="stroke:#181818;stroke-width:0.5;"/><path d="M64.55,26.5 L64.55,53.5 M51.55,34.5 L77.55,34.5 M64.55,53.5 L51.55,68.5 M64.55,53.5 L77.55,68.5" style="stroke:#181818;stroke-width:0.5;" fill="none"/><rect x="149.548" y="55" width="193.102" height="30.297" fill="#E2E2F0" style="stroke:#181818;stroke-width:0.5;" rx="2.5" ry="2.5"/><text x="156.548" y="74.995" fill="#000" font-size="14" textLength="179.102">Мобильное приложение</text><rect x="367.653" y="55" width="102.443" height="30.297" fill="#E2E2F0" style="stroke:#181818;stroke-width:0.5;" rx="2.5" ry="2.5"/><text x="374.653" y="74.995" fill="#000" font-size="14" textLength="88.443">API Gateway</text><rect x="480.097" y="55" width="128.153" height="30.297" fill="#E2E2F0" style="stroke:#181818;stroke-width:0.5;" rx="2.5" ry="2.5"/><text x="487.097" y="74.995" fill="#000" font-size="14" textLength="114.153">payments/proxy</text><rect x="709.188" y="55" width="149.803" height="30.297" fill="#E2E2F0" style="stroke:#181818;stroke-width:0.5;" rx="2.5" ry="2.5"/><text x="716.188" y="74.995" fill="#000" font-size="14" textLength="135.803">CloudPayments API</text><text x="10" y="350.354" fill="#000" font-size="14" textLength="103.1">Пользователь</text><ellipse cx="64.55" cy="362.156" rx="8" ry="8" fill="#E2E2F0" style="stroke:#181818;stroke-width:0.5;"/><path d="M64.55,370.156 L64.55,397.156 M51.55,378.156 L77.55,378.156 M64.55,397.156 L51.55,412.156 M64.55,397.156 L77.55,412.156" style="stroke:#181818;stroke-width:0.5;" fill="none"/><rect x="149.548" y="337.359" width="193.102" height="30.297" fill="#E2E2F0" style="stroke:#181818;stroke-width:0.5;" rx="2.5" ry="2.5"/><text x="156.548" y="357.354" fill="#000" font-size="14" textLength="179.102">Мобильное приложение</text><rect x="367.653" y="337.359" width="102.443" height="30.297" fill="#E2E2F0" style="stroke:#181818;stroke-width:0.5;" rx="2.5" ry="2.5"/><text x="374.653" y="357.354" fill="#000" font-size="14" textLength="88.443">API Gateway</text><rect x="480.097" y="337.359" width="128.153" height="30.297" fill="#E2E2F0" style="stroke:#181818;stroke-width:0.5;" rx="2.5" ry="2.5"/><text x="487.097" y="357.354" fill="#000" font-size="14" textLength="114.153">payments/proxy</text><rect x="709.188" y="337.359" width="149.803" height="30.297" fill="#E2E2F0" style="stroke:#181818;stroke-width:0.5;" rx="2.5" ry="2.5"/><text x="716.188" y="357.354" fill="#000" font-size="14" textLength="135.803">CloudPayments API</text><polygon points="234.099,111.43,244.099,115.43,234.099,119.43,238.099,115.43" fill="#181818" style="stroke:#181818;stroke-width:1;stroke-linejoin:miter;stroke-miterlimit:10;"/><line x1="64.55" y1="115.43" x2="240.099" y2="115.43" style="stroke:#181818;stroke-width:1;"/><text x="71.55" y="110.364" fill="#000" font-size="13" textLength="157.549">Нажимает «Оплатить»</text><polygon points="406.875,140.563,416.875,144.563,406.875,148.563,410.875,144.563" fill="#181818" style="stroke:#181818;stroke-width:1;stroke-linejoin:miter;stroke-miterlimit:10;"/><line x1="246.099" y1="144.563" x2="412.875" y2="144.563" style="stroke:#181818;stroke-width:1;"/><text x="253.099" y="139.497" fill="#000" font-size="13" textLength="148.776">POST /payments/proxy</text><polygon points="532.173,169.695,542.173,173.695,532.173,177.695,536.173,173.695" fill="#181818" style="stroke:#181818;stroke-width:1;stroke-linejoin:miter;stroke-miterlimit:10;"/><line x1="418.875" y1="173.695" x2="538.173" y2="173.695" style="stroke:#181818;stroke-width:1;"/><text x="425.875" y="168.629" fill="#000" font-size="13" textLength="96.916">запрос (с JWT)</text><polygon points="772.089,198.828,782.089,202.828,772.089,206.828,776.089,202.828" fill="#181818" style="stroke:#181818;stroke-width:1;stroke-linejoin:miter;stroke-miterlimit:10;"/><line x1="544.173" y1="202.828" x2="778.089" y2="202.828" style="stroke:#181818;stroke-width:1;"/><text x="551.173" y="197.762" fill="#000" font-size="13" textLength="107.459">POST /payments</text><polygon points="555.173,227.961,545.173,231.961,555.173,235.961,551.173,231.961" fill="#181818" style="stroke:#181818;stroke-width:1;stroke-linejoin:miter;stroke-miterlimit:10;"/><line x1="549.173" y1="231.961" x2="783.089" y2="231.961" style="stroke:#181818;stroke-width:1;stroke-dasharray:2,2;"/><text x="561.173" y="226.895" fill="#000" font-size="13" textLength="215.916">{transaction_id, status: success}</text><polygon points="429.875,257.094,419.875,261.094,429.875,265.094,425.875,261.094" fill="#181818" style="stroke:#181818;stroke-width:1;stroke-linejoin:miter;stroke-miterlimit:10;"/><line x1="423.875" y1="261.094" x2="543.173" y2="261.094" style="stroke:#181818;stroke-width:1;stroke-dasharray:2,2;"/><text x="435.875" y="256.028" fill="#000" font-size="13" textLength="47.703">200 OK</text><polygon points="257.099,286.227,247.099,290.227,257.099,294.227,253.099,290.227" fill="#181818" style="stroke:#181818;stroke-width:1;stroke-linejoin:miter;stroke-miterlimit:10;"/><line x1="251.099" y1="290.227" x2="417.875" y2="290.227" style="stroke:#181818;stroke-width:1;stroke-dasharray:2,2;"/><text x="263.099" y="285.161" fill="#000" font-size="13" textLength="47.703">200 OK</text><polygon points="75.55,315.359,65.55,319.359,75.55,323.359,71.55,319.359" fill="#181818" style="stroke:#181818;stroke-width:1;stroke-linejoin:miter;stroke-miterlimit:10;"/><line x1="69.55" y1="319.359" x2="245.099" y2="319.359" style="stroke:#181818;stroke-width:1;stroke-dasharray:2,2;"/><text x="81.55" y="314.293" fill="#000" font-size="13" textLength="123.462">«Оплата прошла»</text><?plantuml-src NP3FIiD04CRl-nH3JmgM5eyv29A3g8SkMF4eIvf3e4r2TeCM4JGd3tq4_po0boZ41c9Ro1FClf6poPOs7fQTtVc-Rt-pmbDH0Ztym3LMUe5BshynrnaMvjm38U5Q-WcBHQ82BuX5g4Z-Ih8lB1lBYke2SAEVp0KTViYxehfetEuqy4FLzP_oSpWJohyJyqPZwwue5lCPEUKWJgBxLiTDrLMvqoYTS2i52cuVvOmPREYVM007y0rpOYlnb_P2Pr1_uZjk2DcCM-fCB-gAjMhZir0EyD7L60PT76QxHjXGKVwISiqlhFKp7D2wk1aVigRPOF3_ISpbqD_v7rGYGYay5KJXRJ0v0gc4IgK3ClKyNyh7RTO-s_5m2AFB7StUlBQr7OWwvaUSxjWvMEGNSr5NVm00?></g></svg>