<svg xmlns="http://www.w3.org/2000/svg" xmlns:xlink="http://www.w3.org/1999/xlink" version="1.1" data-diagram-type="DESCRIPTION" style="width:375px;height:455px;background:#FFFFFF;" width="375px" height="455px" viewBox="0 0 375 455" zoomAndPan="magnify" preserveAspectRatio="none" contentStyleType="text/css"><?plantuml 1.2026.7beta8?><defs/><g font-family="sans-serif" lengthAdjust="spacing"><g class="title" data-source-line="1"><text x="37.777" y="22.995" fill="#000" font-size="14" textLength="293.31" font-weight="700">Модель ролей FitCommunity (RBAC)</text></g><!--entity USER--><g class="entity" data-qualified-name="USER" id="ent0001" data-source-line="5"><ellipse cx="36.514" cy="51.297" rx="8" ry="8" fill="#F1F1F1" style="stroke:#181818;stroke-width:0.5;"/><path d="M36.514,59.297 L36.514,86.297 M23.514,67.297 L49.514,67.297 M36.514,86.297 L23.514,101.297 M36.514,86.297 L49.514,101.297" style="stroke:#181818;stroke-width:0.5;" fill="none"/><text x="17.66" y="115.792" fill="#000" font-size="14" textLength="37.707">USER</text></g><!--entity TRAINER--><g class="entity" data-qualified-name="TRAINER" id="ent0002" data-source-line="6"><ellipse cx="36.516" cy="162.297" rx="8" ry="8" fill="#F1F1F1" style="stroke:#181818;stroke-width:0.5;"/><path d="M36.516,170.297 L36.516,197.297 M23.516,178.297 L49.516,178.297 M36.516,197.297 L23.516,212.297 M36.516,197.297 L49.516,212.297" style="stroke:#181818;stroke-width:0.5;" fill="none"/><text x="6" y="226.792" fill="#000" font-size="14" textLength="61.031">TRAINER</text></g><!--entity ADMIN--><g class="entity" data-qualified-name="ADMIN" id="ent0003" data-source-line="7"><ellipse cx="36.519" cy="273.297" rx="8" ry="8" fill="#F1F1F1" style="stroke:#181818;stroke-width:0.5;"/><path d="M36.519,281.297 L36.519,308.297 M23.519,289.297 L49.519,289.297 M36.519,308.297 L23.519,323.297 M36.519,308.297 L49.519,323.297" style="stroke:#181818;stroke-width:0.5;" fill="none"/><text x="13" y="337.792" fill="#000" font-size="14" textLength="47.038">ADMIN</text></g><!--entity U2--><g class="entity" data-qualified-name="U2" id="ent0004" data-source-line="9"><ellipse cx="244.445" cy="175.936" rx="108.595" ry="24.119" fill="#F1F1F1" style="stroke:#181818;stroke-width:0.5;"/><text x="147.026" y="180.584" fill="#000" font-size="14" textLength="194.838">Просмотр своего профиля</text></g><!--entity U3--><g class="entity" data-qualified-name="U3" id="ent0005" data-source-line="10"><ellipse cx="244.454" cy="95.938" rx="93.904" ry="21.181" fill="#F1F1F1" style="stroke:#181818;stroke-width:0.5;"/><text x="163.191" y="100.586" fill="#000" font-size="14" textLength="162.524">Создание тренировки</text></g><!--entity U8--><g class="entity" data-qualified-name="U8" id="ent0006" data-source-line="11"><ellipse cx="244.455" cy="254.934" rx="87.435" ry="19.887" fill="#F1F1F1" style="stroke:#181818;stroke-width:0.5;"/><text x="170.5" y="259.582" fill="#000" font-size="14" textLength="147.909">Создание программ</text></g><!--entity U10--><g class="entity" data-qualified-name="U10" id="ent0007" data-source-line="12"><ellipse cx="244.449" cy="418.933" rx="100.029" ry="22.406" fill="#F1F1F1" style="stroke:#181818;stroke-width:0.5;"/><text x="156.388" y="423.581" fill="#000" font-size="14" textLength="176.121">Удаление любого поста</text></g><!--entity U11--><g class="entity" data-qualified-name="U11" id="ent0008" data-source-line="13"><ellipse cx="244.447" cy="335.94" rx="117.417" ry="25.883" fill="#F1F1F1" style="stroke:#181818;stroke-width:0.5;"/><text x="137.53" y="340.589" fill="#000" font-size="14" textLength="213.835">Управление пользователями</text></g><!--link USER to U2--><g class="link" data-entity-1="ent0001" data-entity-2="ent0004" id="lnk9" data-source-line="15" data-link-type="dependency"><path d="M55.76,93.467 C73.43,105.227 101.26,122.787 127.03,134.937 C143.8,142.847 157.802,148.442 175.252,154.562" style="stroke:#181818;stroke-width:1;" fill="none" id="USER-to-U2"/><polygon points="179.97,156.217,172.801,149.464,175.252,154.562,170.153,157.013,179.97,156.217" fill="#181818" style="stroke:#181818;stroke-width:1;stroke-linejoin:miter;stroke-miterlimit:10;"/></g><!--link USER to U3--><g class="link" data-entity-1="ent0001" data-entity-2="ent0005" id="lnk10" data-source-line="16" data-link-type="dependency"><path d="M55.79,82.277 C78.14,83.897 112.563,86.403 149.523,89.103" style="stroke:#181818;stroke-width:1;" fill="none" id="USER-to-U3"/><polygon points="154.51,89.467,145.825,84.822,149.523,89.103,145.242,92.801,154.51,89.467" fill="#181818" style="stroke:#181818;stroke-width:1;stroke-linejoin:miter;stroke-miterlimit:10;"/></g><!--link TRAINER to U2--><g class="link" data-entity-1="ent0002" data-entity-2="ent0004" id="lnk11" data-source-line="18" data-link-type="dependency"><path d="M67.46,189.617 C87.2,188.077 109.345,186.366 136.385,184.256" style="stroke:#181818;stroke-width:1;" fill="none" id="TRAINER-to-U2"/><polygon points="141.37,183.867,132.086,180.579,136.385,184.256,132.708,188.555,141.37,183.867" fill="#181818" style="stroke:#181818;stroke-width:1;stroke-linejoin:miter;stroke-miterlimit:10;"/></g><!--link TRAINER to U3--><g class="link" data-entity-1="ent0002" data-entity-2="ent0005" id="lnk12" data-source-line="19" data-link-type="dependency"><path d="M67.44,169.757 C84.31,157.967 106.14,143.907 127.03,133.937 C144.68,125.517 159.916,119.755 178.306,113.895" style="stroke:#181818;stroke-width:1;" fill="none" id="TRAINER-to-U3"/><polygon points="183.07,112.377,173.28,111.298,178.306,113.895,175.709,118.921,183.07,112.377" fill="#181818" style="stroke:#181818;stroke-width:1;stroke-linejoin:miter;stroke-miterlimit:10;"/></g><!--link TRAINER to U8--><g class="link" data-entity-1="ent0002" data-entity-2="ent0006" id="lnk13" data-source-line="20" data-link-type="dependency"><path d="M67.46,201.097 C99.7,210.967 146.829,225.385 185.939,237.345" style="stroke:#181818;stroke-width:1;" fill="none" id="TRAINER-to-U8"/><polygon points="190.72,238.807,183.283,232.35,185.939,237.345,180.944,240,190.72,238.807" fill="#181818" style="stroke:#181818;stroke-width:1;stroke-linejoin:miter;stroke-miterlimit:10;"/></g><!--link ADMIN to U2--><g class="link" data-entity-1="ent0003" data-entity-2="ent0004" id="lnk14" data-source-line="22" data-link-type="dependency"><path d="M60.27,276.107 C77.12,257.637 101.5,233.697 127.03,217.937 C142.03,208.687 154.667,202.781 171.297,196.671" style="stroke:#181818;stroke-width:1;" fill="none" id="ADMIN-to-U2"/><polygon points="175.99,194.947,166.163,194.296,171.297,196.671,168.922,201.805,175.99,194.947" fill="#181818" style="stroke:#181818;stroke-width:1;stroke-linejoin:miter;stroke-miterlimit:10;"/></g><!--link ADMIN to U3--><g class="link" data-entity-1="ent0003" data-entity-2="ent0005" id="lnk15" data-source-line="23" data-link-type="dependency"><path d="M58.2,264.497 C61.17,258.947 64.18,253.297 67.03,247.937 C93.9,197.387 83.27,170.867 127.03,133.937 C139.87,123.107 151.147,116.989 167.137,111.429" style="stroke:#181818;stroke-width:1;" fill="none" id="ADMIN-to-U3"/><polygon points="171.86,109.787,162.046,108.965,167.137,111.429,164.673,116.521,171.86,109.787" fill="#181818" style="stroke:#181818;stroke-width:1;stroke-linejoin:miter;stroke-miterlimit:10;"/></g><!--link ADMIN to U8--><g class="link" data-entity-1="ent0003" data-entity-2="ent0006" id="lnk16" data-source-line="24" data-link-type="dependency"><path d="M60.34,297.617 C89.56,290.807 136.431,279.882 177.481,270.312" style="stroke:#181818;stroke-width:1;" fill="none" id="ADMIN-to-U8"/><polygon points="182.35,269.177,172.677,267.325,177.481,270.312,174.493,275.116,182.35,269.177" fill="#181818" style="stroke:#181818;stroke-width:1;stroke-linejoin:miter;stroke-miterlimit:10;"/></g><!--link ADMIN to U10--><g class="link" data-entity-1="ent0003" data-entity-2="ent0007" id="lnk17" data-source-line="25" data-link-type="dependency"><path d="M60.35,326.567 C77.43,343.107 102.05,364.727 127.03,378.937 C143.1,388.087 156.868,394.001 174.318,399.961" style="stroke:#181818;stroke-width:1;" fill="none" id="ADMIN-to-U10"/><polygon points="179.05,401.577,171.826,394.883,174.318,399.961,169.24,402.453,179.05,401.577" fill="#181818" style="stroke:#181818;stroke-width:1;stroke-linejoin:miter;stroke-miterlimit:10;"/></g><!--link ADMIN to U11--><g class="link" data-entity-1="ent0003" data-entity-2="ent0008" id="lnk18" data-source-line="26" data-link-type="dependency"><path d="M60.34,306.597 C81.91,310.057 110.833,314.686 143.593,319.936" style="stroke:#181818;stroke-width:1;" fill="none" id="ADMIN-to-U11"/><polygon points="148.53,320.727,140.276,315.353,143.593,319.936,139.01,323.252,148.53,320.727" fill="#181818" style="stroke:#181818;stroke-width:1;stroke-linejoin:miter;stroke-miterlimit:10;"/></g><?plantuml-src VP0nJiD044NxESKe5HIHC6vS8Pa0KWfI6780onYmbCIIlIdeGaGPaGiW8SG5Z8D5m26-mkoDc5qxi6veLlCrysR-VX69KOZqH5jwfu9AkK0vOr6o-CIpIFJYyNWwYSGTxdd7RcyVO1HU2nGn9j7DhS2hA0a34SKJ03yGSOB3YrElAIyzjp_uLUx9UNy0C4t3m4z3xD2pkYJlQSFlNCwGovnF5xIYBLAbkm-qPbFB3lef3WyD-8KdFzXpHjyyKg3Qm2WBxJ-dBrhNbFqFLL-X5RyP-zZKX6CGhtgwh5ShefIFzAOORL9zGCufgq7he4LMUcrkqfNALYxOXFAOCQf2N_Bjngrb0QW8iTizKZ_-gss09j1ThoNjjdG0TE2xMKFOfd1CmVvDPVq0?></g></svg>