<svg xmlns="http://www.w3.org/2000/svg" xmlns:xlink="http://www.w3.org/1999/xlink" version="1.1" data-diagram-type="SEQUENCE" style="width:1088px;height:1367px;background:#FFFFFF;" width="1088px" height="1367px" viewBox="0 0 1088 1367" zoomAndPan="magnify" preserveAspectRatio="none" contentStyleType="text/css"><?plantuml 1.2026.7beta8?><defs/><g font-family="sans-serif" lengthAdjust="spacing"><g class="title" data-source-line="1"><text x="323.883" y="27.995" fill="#000" font-size="14" textLength="438.949" font-weight="700">Сценарий: Оформление премиум-подписки с оплатой</text></g><g><title>............</title><rect x="61.05" y="123.594" width="8" height="1156.789" fill="#000" fill-opacity="0"/><line x1="64.55" y1="123.594" x2="64.55" y2="1280.383" style="stroke:#181818;stroke-width:0.5;stroke-dasharray:5,5;"/></g><g><title>...-.........</title><rect x="325.734" y="123.594" width="8" height="1156.789" fill="#000" fill-opacity="0"/><line x1="329.234" y1="123.594" x2="329.234" y2="1280.383" style="stroke:#181818;stroke-width:0.5;stroke-dasharray:5,5;"/></g><g><title>FitCommunity Monolith</title><rect x="563.263" y="123.594" width="8" height="1156.789" fill="#000" fill-opacity="0"/><line x1="566.763" y1="123.594" x2="566.763" y2="1280.383" style="stroke:#181818;stroke-width:0.5;stroke-dasharray:5,5;"/></g><g><title>PostgreSQL</title><rect x="778.28" y="123.594" width="8" height="1156.789" fill="#000" fill-opacity="0"/><line x1="781.78" y1="123.594" x2="781.78" y2="1280.383" style="stroke:#181818;stroke-width:0.5;stroke-dasharray:5,5;"/></g><g><title>CloudPayments</title><rect x="893.259" y="123.594" width="8" height="1156.789" fill="#000" fill-opacity="0"/><line x1="896.759" y1="123.594" x2="896.759" y2="1280.383" style="stroke:#181818;stroke-width:0.5;stroke-dasharray:5,5;"/></g><text x="10" y="120.292" fill="#000" font-size="14" textLength="103.1">Пользователь</text><ellipse cx="64.55" cy="55.797" rx="8" ry="8" fill="#E2E2F0" style="stroke:#181818;stroke-width:0.5;"/><path d="M64.55,63.797 L64.55,90.797 M51.55,71.797 L77.55,71.797 M64.55,90.797 L51.55,105.797 M64.55,90.797 L77.55,105.797" style="stroke:#181818;stroke-width:0.5;" fill="none"/><rect x="265.639" y="76" width="127.189" height="46.594" fill="#E2E2F0" style="stroke:#181818;stroke-width:0.5;" rx="2.5" ry="2.5"/><text x="272.639" y="95.995" fill="#000" font-size="14" textLength="113.189">Веб-интерфейс</text><text x="280.005" y="112.292" fill="#000" font-size="14" textLength="98.458">FitCommunity</text><rect x="478.196" y="76" width="177.133" height="46.594" fill="#E2E2F0" style="stroke:#181818;stroke-width:0.5;" rx="2.5" ry="2.5"/><text x="485.196" y="95.995" fill="#000" font-size="14" textLength="163.133">FitCommunity Monolith</text><text x="531.12" y="112.292" fill="#000" font-size="14" textLength="71.285">(Backend)</text><text x="738.404" y="120.292" fill="#000" font-size="14" textLength="80.753">PostgreSQL</text><path d="M763.78,71.297 C763.78,61.297 781.78,61.297 781.78,61.297 C781.78,61.297 799.78,61.297 799.78,71.297 L799.78,97.297 C799.78,107.297 781.78,107.297 781.78,107.297 C781.78,107.297 763.78,107.297 763.78,97.297 L763.78,71.297" style="stroke:#181818;stroke-width:0.5;" fill="#E2E2F0"/><path d="M763.78,71.297 C763.78,81.297 781.78,81.297 781.78,81.297 C781.78,81.297 799.78,81.297 799.78,71.297" style="stroke:#181818;stroke-width:0.5;" fill="none"/><rect x="835.157" y="76" width="123.204" height="46.594" fill="#E2E2F0" style="stroke:#181818;stroke-width:0.5;" rx="2.5" ry="2.5"/><text x="842.157" y="95.995" fill="#000" font-size="14" textLength="109.204">CloudPayments</text><text x="885.685" y="112.292" fill="#000" font-size="14" textLength="22.148">API</text><text x="10" y="1293.378" fill="#000" font-size="14" textLength="103.1">Пользователь</text><ellipse cx="64.55" cy="1305.18" rx="8" ry="8" fill="#E2E2F0" style="stroke:#181818;stroke-width:0.5;"/><path d="M64.55,1313.18 L64.55,1340.18 M51.55,1321.18 L77.55,1321.18 M64.55,1340.18 L51.55,1355.18 M64.55,1340.18 L77.55,1355.18" style="stroke:#181818;stroke-width:0.5;" fill="none"/><rect x="265.639" y="1280.383" width="127.189" height="46.594" fill="#E2E2F0" style="stroke:#181818;stroke-width:0.5;" rx="2.5" ry="2.5"/><text x="272.639" y="1300.378" fill="#000" font-size="14" textLength="113.189">Веб-интерфейс</text><text x="280.005" y="1316.675" fill="#000" font-size="14" textLength="98.458">FitCommunity</text><rect x="478.196" y="1280.383" width="177.133" height="46.594" fill="#E2E2F0" style="stroke:#181818;stroke-width:0.5;" rx="2.5" ry="2.5"/><text x="485.196" y="1300.378" fill="#000" font-size="14" textLength="163.133">FitCommunity Monolith</text><text x="531.12" y="1316.675" fill="#000" font-size="14" textLength="71.285">(Backend)</text><text x="738.404" y="1293.378" fill="#000" font-size="14" textLength="80.753">PostgreSQL</text><path d="M763.78,1306.68 C763.78,1296.68 781.78,1296.68 781.78,1296.68 C781.78,1296.68 799.78,1296.68 799.78,1306.68 L799.78,1332.68 C799.78,1342.68 781.78,1342.68 781.78,1342.68 C781.78,1342.68 763.78,1342.68 763.78,1332.68 L763.78,1306.68" style="stroke:#181818;stroke-width:0.5;" fill="#E2E2F0"/><path d="M763.78,1306.68 C763.78,1316.68 781.78,1316.68 781.78,1316.68 C781.78,1316.68 799.78,1316.68 799.78,1306.68" style="stroke:#181818;stroke-width:0.5;" fill="none"/><rect x="835.157" y="1280.383" width="123.204" height="46.594" fill="#E2E2F0" style="stroke:#181818;stroke-width:0.5;" rx="2.5" ry="2.5"/><text x="842.157" y="1300.378" fill="#000" font-size="14" textLength="109.204">CloudPayments</text><text x="885.685" y="1316.675" fill="#000" font-size="14" textLength="22.148">API</text><rect x="10" y="152.16" width="1067.715" height="3" fill="#EEE" style="stroke:#EEE;stroke-width:1;"/><line x1="10" y1="152.16" x2="1077.715" y2="152.16" style="stroke:#000;stroke-width:1;"/><line x1="10" y1="155.16" x2="1077.715" y2="155.16" style="stroke:#000;stroke-width:1;"/><rect x="390.49" y="141.594" width="306.735" height="23.133" fill="#EEE" style="stroke:#000;stroke-width:2;"/><text x="396.49" y="157.661" fill="#000" font-size="13" textLength="288.209" font-weight="700">Шаг 1: Создание черновика подписки</text><polygon points="317.234,191.859,327.234,195.859,317.234,199.859,321.234,195.859" fill="#181818" style="stroke:#181818;stroke-width:1;stroke-linejoin:miter;stroke-miterlimit:10;"/><line x1="64.55" y1="195.859" x2="323.234" y2="195.859" style="stroke:#181818;stroke-width:1;"/><text x="76.55" y="190.793" fill="#000" font-size="13" textLength="240.684">Выбирает тариф «Premium» (990₽)</text><polygon points="554.763,236.125,564.763,240.125,554.763,244.125,558.763,240.125" fill="#181818" style="stroke:#181818;stroke-width:1;stroke-linejoin:miter;stroke-miterlimit:10;"/><line x1="329.234" y1="240.125" x2="560.763" y2="240.125" style="stroke:#181818;stroke-width:1;"/><text x="351.892" y="219.926" fill="#000" font-size="13" textLength="192.213">POST /api/subscription/create</text><text x="384.887" y="235.059" fill="#000" font-size="13" textLength="126.223">{ user_id, plan_id }</text><polygon points="769.78,280.391,779.78,284.391,769.78,288.391,773.78,284.391" fill="#181818" style="stroke:#181818;stroke-width:1;stroke-linejoin:miter;stroke-miterlimit:10;"/><line x1="566.763" y1="284.391" x2="775.78" y2="284.391" style="stroke:#181818;stroke-width:1;"/><text x="587.74" y="264.192" fill="#000" font-size="13" textLength="173.063">INSERT INTO subscriptions</text><text x="607.643" y="279.325" fill="#000" font-size="13" textLength="133.256">{ status: 'pending' }</text><polygon points="577.763,309.523,567.763,313.523,577.763,317.523,573.763,313.523" fill="#181818" style="stroke:#181818;stroke-width:1;stroke-linejoin:miter;stroke-miterlimit:10;"/><line x1="571.763" y1="313.523" x2="780.78" y2="313.523" style="stroke:#181818;stroke-width:1;stroke-dasharray:2,2;"/><text x="632.364" y="308.458" fill="#000" font-size="13" textLength="83.814">ID подписки</text><polygon points="340.234,338.656,330.234,342.656,340.234,346.656,336.234,342.656" fill="#181818" style="stroke:#181818;stroke-width:1;stroke-linejoin:miter;stroke-miterlimit:10;"/><line x1="334.234" y1="342.656" x2="565.763" y2="342.656" style="stroke:#181818;stroke-width:1;stroke-dasharray:2,2;"/><text x="341.234" y="337.59" fill="#000" font-size="13" textLength="213.529">200 OK { draft_id, client_token }</text><rect x="10" y="371.223" width="1067.715" height="3" fill="#EEE" style="stroke:#EEE;stroke-width:1;"/><line x1="10" y1="371.223" x2="1077.715" y2="371.223" style="stroke:#000;stroke-width:1;"/><line x1="10" y1="374.223" x2="1077.715" y2="374.223" style="stroke:#000;stroke-width:1;"/><rect x="386.354" y="360.656" width="315.006" height="23.133" fill="#EEE" style="stroke:#000;stroke-width:2;"/><text x="392.354" y="376.723" fill="#000" font-size="13" textLength="296.48" font-weight="700">Шаг 2: Оплата через платёжный шлюз</text><polygon points="884.759,426.055,894.759,430.055,884.759,434.055,888.759,430.055" fill="#181818" style="stroke:#181818;stroke-width:1;stroke-linejoin:miter;stroke-miterlimit:10;"/><line x1="329.234" y1="430.055" x2="890.759" y2="430.055" style="stroke:#181818;stroke-width:1;"/><text x="512.592" y="409.856" fill="#000" font-size="13" textLength="200.808">Открытие платёжной формы</text><text x="568.414" y="424.989" fill="#000" font-size="13" textLength="89.166">(client_token)</text><polygon points="75.55,455.188,65.55,459.188,75.55,463.188,71.55,459.188" fill="#181818" style="stroke:#181818;stroke-width:1;stroke-linejoin:miter;stroke-miterlimit:10;"/><line x1="69.55" y1="459.188" x2="895.759" y2="459.188" style="stroke:#181818;stroke-width:1;stroke-dasharray:2,2;"/><text x="374.064" y="454.122" fill="#000" font-size="13" textLength="213.18">🖥️ Форма ввода карты (PCI DSS)</text><polygon points="884.759,484.32,894.759,488.32,884.759,492.32,888.759,488.32" fill="#181818" style="stroke:#181818;stroke-width:1;stroke-linejoin:miter;stroke-miterlimit:10;"/><line x1="64.55" y1="488.32" x2="890.759" y2="488.32" style="stroke:#181818;stroke-width:1;"/><text x="366.911" y="483.254" fill="#000" font-size="13" textLength="227.487">Вводит данные → Подтверждает</text><line x1="896.759" y1="517.453" x2="938.759" y2="517.453" style="stroke:#181818;stroke-width:1;"/><line x1="938.759" y1="517.453" x2="938.759" y2="530.453" style="stroke:#181818;stroke-width:1;"/><line x1="897.759" y1="530.453" x2="938.759" y2="530.453" style="stroke:#181818;stroke-width:1;"/><polygon points="907.759,526.453,897.759,530.453,907.759,534.453,903.759,530.453" fill="#181818" style="stroke:#181818;stroke-width:1;stroke-linejoin:miter;stroke-miterlimit:10;"/><text x="903.759" y="512.387" fill="#000" font-size="13" textLength="166.956">Валидация + 3-D Secure</text><rect x="10" y="559.02" width="1067.715" height="3" fill="#EEE" style="stroke:#EEE;stroke-width:1;"/><line x1="10" y1="559.02" x2="1077.715" y2="559.02" style="stroke:#000;stroke-width:1;"/><line x1="10" y1="562.02" x2="1077.715" y2="562.02" style="stroke:#000;stroke-width:1;"/><rect x="421.946" y="548.453" width="243.823" height="23.133" fill="#EEE" style="stroke:#000;stroke-width:2;"/><text x="427.946" y="564.52" fill="#000" font-size="13" textLength="225.297" font-weight="700">Шаг 3: Обработка результата</text><path d="M48.55,585.586 L112.993,585.586 L112.993,592.719 L102.993,602.719 L48.55,602.719 L48.55,585.586" style="stroke:#000;stroke-width:1.5;" fill="#EEE"/><rect x="48.55" y="585.586" width="864.209" height="555.133" fill="none" style="stroke:#000;stroke-width:1.5;"/><text x="63.55" y="598.653" fill="#000" font-size="13" textLength="19.443" font-weight="700">alt</text><a target="_top" href="Платёж" xlink:href="Платёж" xlink:type="simple" xlink:actuate="onRequest" xlink:show="new" title="Платёж" xlink:title="Платёж"><text x="127.993" y="597.796" fill="#00F" font-size="11" textLength="55.494" font-weight="700" text-decoration="underline">успешен</text></a><line x1="48.55" y1="770.516" x2="912.759" y2="770.516" style="stroke:#000;stroke-width:1;stroke-dasharray:2,2;"/><a target="_top" href="Платёж" xlink:href="Платёж" xlink:type="simple" xlink:actuate="onRequest" xlink:show="new" title="Платёж" xlink:title="Платёж"><text x="53.55" y="782.726" fill="#00F" font-size="11" textLength="59.673" font-weight="700" text-decoration="underline">отклонён</text></a><line x1="48.55" y1="948.117" x2="912.759" y2="948.117" style="stroke:#000;stroke-width:1;stroke-dasharray:2,2;"/><a target="_top" href="Webhook" xlink:href="Webhook" xlink:type="simple" xlink:actuate="onRequest" xlink:show="new" title="Webhook" xlink:title="Webhook"><text x="53.55" y="960.328" fill="#00F" font-size="11" textLength="71.887" font-weight="700" text-decoration="underline">не получен</text></a><polygon points="577.763,644.984,567.763,648.984,577.763,652.984,573.763,648.984" fill="#181818" style="stroke:#181818;stroke-width:1;stroke-linejoin:miter;stroke-miterlimit:10;"/><line x1="571.763" y1="648.984" x2="895.759" y2="648.984" style="stroke:#181818;stroke-width:1;stroke-dasharray:2,2;"/><text x="640.669" y="628.786" fill="#000" font-size="13" textLength="182.184">Webhook: payment.success</text><text x="673.458" y="643.918" fill="#000" font-size="13" textLength="116.606">{ transaction_id }</text><polygon points="769.78,689.25,779.78,693.25,769.78,697.25,773.78,693.25" fill="#181818" style="stroke:#181818;stroke-width:1;stroke-linejoin:miter;stroke-miterlimit:10;"/><line x1="566.763" y1="693.25" x2="775.78" y2="693.25" style="stroke:#181818;stroke-width:1;"/><text x="602.965" y="673.051" fill="#000" font-size="13" textLength="142.613">UPDATE subscriptions</text><text x="607.12" y="688.184" fill="#000" font-size="13" textLength="134.304">SET status = 'active'</text><polygon points="340.234,718.383,330.234,722.383,340.234,726.383,336.234,722.383" fill="#181818" style="stroke:#181818;stroke-width:1;stroke-linejoin:miter;stroke-miterlimit:10;"/><line x1="334.234" y1="722.383" x2="565.763" y2="722.383" style="stroke:#181818;stroke-width:1;stroke-dasharray:2,2;"/><text x="362.118" y="717.317" fill="#000" font-size="13" textLength="171.761">200 OK { status: 'active' }</text><polygon points="75.55,747.516,65.55,751.516,75.55,755.516,71.55,751.516" fill="#181818" style="stroke:#181818;stroke-width:1;stroke-linejoin:miter;stroke-miterlimit:10;"/><line x1="69.55" y1="751.516" x2="328.234" y2="751.516" style="stroke:#181818;stroke-width:1;stroke-dasharray:2,2;"/><text x="96.859" y="746.45" fill="#000" font-size="13" textLength="200.065">🎉 «Подписка активирована!»</text><polygon points="577.763,822.586,567.763,826.586,577.763,830.586,573.763,826.586" fill="#181818" style="stroke:#181818;stroke-width:1;stroke-linejoin:miter;stroke-miterlimit:10;"/><line x1="571.763" y1="826.586" x2="895.759" y2="826.586" style="stroke:#181818;stroke-width:1;stroke-dasharray:2,2;"/><text x="648.086" y="806.387" fill="#000" font-size="13" textLength="167.35">Webhook: payment.failed</text><text x="684.439" y="821.52" fill="#000" font-size="13" textLength="94.644">{ error_code }</text><polygon points="769.78,866.852,779.78,870.852,769.78,874.852,773.78,870.852" fill="#181818" style="stroke:#181818;stroke-width:1;stroke-linejoin:miter;stroke-miterlimit:10;"/><line x1="566.763" y1="870.852" x2="775.78" y2="870.852" style="stroke:#181818;stroke-width:1;"/><text x="602.965" y="850.653" fill="#000" font-size="13" textLength="142.613">UPDATE subscriptions</text><text x="608.868" y="865.786" fill="#000" font-size="13" textLength="130.806">SET status = 'failed'</text><polygon points="340.234,895.984,330.234,899.984,340.234,903.984,336.234,899.984" fill="#181818" style="stroke:#181818;stroke-width:1;stroke-linejoin:miter;stroke-miterlimit:10;"/><line x1="334.234" y1="899.984" x2="565.763" y2="899.984" style="stroke:#181818;stroke-width:1;stroke-dasharray:2,2;"/><text x="373.347" y="894.918" fill="#000" font-size="13" textLength="149.303">402 Payment Required</text><polygon points="75.55,925.117,65.55,929.117,75.55,933.117,71.55,929.117" fill="#181818" style="stroke:#181818;stroke-width:1;stroke-linejoin:miter;stroke-miterlimit:10;"/><line x1="69.55" y1="929.117" x2="328.234" y2="929.117" style="stroke:#181818;stroke-width:1;stroke-dasharray:2,2;"/><text x="128.417" y="924.051" fill="#000" font-size="13" textLength="136.951">❌ «Ошибка оплаты»</text><line x1="566.763" y1="1004.188" x2="608.763" y2="1004.188" style="stroke:#181818;stroke-width:1;"/><line x1="608.763" y1="1004.188" x2="608.763" y2="1017.188" style="stroke:#181818;stroke-width:1;"/><line x1="567.763" y1="1017.188" x2="608.763" y2="1017.188" style="stroke:#181818;stroke-width:1;"/><polygon points="577.763,1013.188,567.763,1017.188,577.763,1021.188,573.763,1017.188" fill="#181818" style="stroke:#181818;stroke-width:1;stroke-linejoin:miter;stroke-miterlimit:10;"/><text x="593.891" y="983.989" fill="#000" font-size="13" textLength="160.761">Cron: проверка статуса</text><text x="573.763" y="999.122" fill="#000" font-size="13" textLength="201.018">(каждые 5 мин, макс. 3 раза)</text><polygon points="884.759,1057.453,894.759,1061.453,884.759,1065.453,888.759,1061.453" fill="#181818" style="stroke:#181818;stroke-width:1;stroke-linejoin:miter;stroke-miterlimit:10;"/><line x1="566.763" y1="1061.453" x2="890.759" y2="1061.453" style="stroke:#181818;stroke-width:1;"/><text x="653.101" y="1041.254" fill="#000" font-size="13" textLength="157.32">GET /v1/payment/status</text><text x="673.458" y="1056.387" fill="#000" font-size="13" textLength="116.606">{ transaction_id }</text><polygon points="577.763,1086.586,567.763,1090.586,577.763,1094.586,573.763,1090.586" fill="#181818" style="stroke:#181818;stroke-width:1;stroke-linejoin:miter;stroke-miterlimit:10;"/><line x1="571.763" y1="1090.586" x2="895.759" y2="1090.586" style="stroke:#181818;stroke-width:1;stroke-dasharray:2,2;"/><text x="649.505" y="1085.52" fill="#000" font-size="13" textLength="164.512">{ status: success/failed }</text><line x1="566.763" y1="1119.719" x2="608.763" y2="1119.719" style="stroke:#181818;stroke-width:1;"/><line x1="608.763" y1="1119.719" x2="608.763" y2="1132.719" style="stroke:#181818;stroke-width:1;"/><line x1="567.763" y1="1132.719" x2="608.763" y2="1132.719" style="stroke:#181818;stroke-width:1;"/><polygon points="577.763,1128.719,567.763,1132.719,577.763,1136.719,573.763,1132.719" fill="#181818" style="stroke:#181818;stroke-width:1;stroke-linejoin:miter;stroke-miterlimit:10;"/><text x="573.763" y="1114.653" fill="#000" font-size="13" textLength="158.609">Обработка как выше ↑</text><path d="M571.763,1159.719 L571.763,1214.719 L891.763,1214.719 L891.763,1169.719 L881.763,1159.719 L571.763,1159.719" style="stroke:#181818;stroke-width:0.5;" fill="#FEFFDD"/><path d="M881.763,1159.719 L881.763,1169.719 L891.763,1169.719 L881.763,1159.719" style="stroke:#181818;stroke-width:0.5;" fill="#FEFFDD"/><text x="577.763" y="1176.786" fill="#000" font-size="13" textLength="271.108">🔹 Idempotency key --- защита от дублей</text><text x="577.763" y="1191.918" fill="#000" font-size="13" textLength="282.153">🔹 Webhook + Polling --- двойная гарантия</text><text x="577.763" y="1207.051" fill="#000" font-size="13" textLength="299.222">🔹 Статус 'pending' --- точка восстановления</text><path d="M470.355,1225.117 L470.355,1265.117 L891.355,1265.117 L891.355,1235.117 L881.355,1225.117 L470.355,1225.117" style="stroke:#181818;stroke-width:0.5;" fill="#FEFFDD"/><path d="M881.355,1225.117 L881.355,1235.117 L891.355,1235.117 L881.355,1225.117" style="stroke:#181818;stroke-width:0.5;" fill="#FEFFDD"/><text x="476.355" y="1242.184" fill="#000" font-size="13" textLength="400.404">🔹 PCI DSS --- данные карты\n не касаются нашего сервера</text><text x="476.355" y="1257.317" fill="#000" font-size="13" textLength="362.013">🔹 3-D Secure --- аутентификация\n держателя карты</text><?plantuml-src dLRTJjn65BxtKvno0oZPB87q8aXK0fPMg4dPPebwKIfalCDYuRMtzcma54LY2Kg8DW85LRrhKAHMgjGRyxF1omQGU8BnA_02pIFqc_6iRNvwqOAqjcVcd3ddEz_vPhZD7KRYG_nATCIf2EDr4OdkE8dtyQOumzSdqLCpaUYGECT01qDH_59yAeXpSIQEy1l5BN4Y8efRX95pM8Jn1jwwXX6iscx3zCqw1Upd9dCjzfW5WLbZauvTSybYBcT-RXL-kMtP3TFb5Rw6q7ncSTEjESmmJ8jxFWs8FRZknM_5CPu7QgkE_1uWCw2d0Tpbd63vBgRt2qZWLAwCrv5OHtJZreBxjSsdlNgzwTfyJLd_m9Qk6kTNq6FFzHoRhoouGrEcjShSwh2oakD6rUJcaXam6YXx0Q_vhFBz8pLRchhgSjhncjMokLP7wi62ErcULSlqY65CJ93uKuJYaEwZ31-Gup503dK9ujSo1Np8r2EW7jADCanC6186Admb4o9usOtROX_pw_3JYJS8GAXAnvjqyLVPPtMxMR_eqT33XoEN6wV3XZI3jKmCvkMvoZmLpOPT39fBWUNR3MvxRj7ocSdPWlkScjXjqQxUfOPZkdYX5uOoXOlI51pCVbUPUJAFn_mSvLq4qZZW9cy6upJO0A2sMnk4DQmAsVwpfHivQlzfXgCZ8pJtBJsdgcykSnMBvTZ0Sv5xA1HSvd0TbVHEQHhsCUs8O-gFnk_4H_2bBReKRu5SsvW3h1eNNIjIRR8XJi2fDfv9Y-GTo1wWVYF5RH0d7zMmqNSa4r4b6wVFUx_-yNUqG-9ttNuey07-PVfuFP65W_is3PMdPwbKgGodnSw5jQij8XHRiqTcqw7BLxka6kW80H-el3-g1Q155iurNo5oYkGgg4GKxz0T6YkKgCAifi_om8ufOFSLpVOH_eRYPm8j50CzgeWdCGUOfiFfHyIIuaNnIrJt7A5iISdvoI3yvI7IV40LLZnlTHnYeURk1KtBWgf8Dd7VT0C81TYL457wk4B6f-NIvFpCTHvMPkOr4sc21gM3PsmmPtoJQIblzMAzbw98lfpRRz1Z2UGfVr784BIHb3bGRQc4JEhl5nSzWpcGaQl8Q31xM7YAWV-0pR9fEwmgeM6-x_cBbbTb_nUMnDUji3mO6Kt3UGAbjtrMlGsFoz_UIZZUeyGHEAAWI8-Ck9rch_CWOD99khy7ThpEUD4FNkSzxNlkU790dMbUA-wr4iOfPeNeFpag6Q-QuKkIPvaulIkViY2jUpH6Yhx78Xo-ia_M4Dy0a-Ap-qMDS371vr_9TqkHCl9evXOJPA_LHQ--fQLK5YSG1kZEbkhgTmRKqp1SZ-F8j6ihdBpbv62I7Z_l_TAbsIghDp3lMckqojOGK85adl4RAHEg44ejqAdxwj3lPhRzSjoXikSuKEd4-aZ9J5TT721PX-fK2TL12vt8p76_ICkG4thfGruKKDUJHEVEK31LCdt2wRi7VC66P7P9YWvRLXdsJyrq9osA_V0ouSkKSy7Lh98ZO4MyZT6MZ5-c8QNdK9o1EOf42PN2R8DC-P8zGkGaBo19pfl9cPpefDpeI4ji_vQoamiapUaV?></g></svg>