<svg xmlns="http://www.w3.org/2000/svg" xmlns:xlink="http://www.w3.org/1999/xlink" version="1.1" data-diagram-type="DESCRIPTION" style="width:1717px;height:690px;background:#FFFFFF;" width="1717px" height="690px" viewBox="0 0 1717 690" zoomAndPan="magnify" preserveAspectRatio="none" contentStyleType="text/css"><?plantuml 1.2026.7beta8?><defs/><g font-family="sans-serif" lengthAdjust="spacing"><g class="title" data-source-line="1"><text x="609.547" y="22.995" fill="#000" font-size="14" textLength="491.729" font-weight="700">FitCommunity Monolith - Внутренняя структура компонентов</text></g><!--cluster UI Layer--><g class="cluster" data-qualified-name="UI Layer" id="ent0001" data-source-line="3"><path d="M8.5,43.297 L74.845,43.297 A3.75,3.75 0 0 1 77.345,45.797 L84.345,65.594 L203.5,65.594 A2.5,2.5 0 0 1 206,68.094 L206,266.397 A2.5,2.5 0 0 1 203.5,268.897 L8.5,268.897 A2.5,2.5 0 0 1 6,266.397 L6,45.797 A2.5,2.5 0 0 1 8.5,43.297" style="stroke:#000;stroke-width:1.5;" fill="none"/><line x1="6" y1="65.594" x2="84.345" y2="65.594" style="stroke:#000;stroke-width:1.5;"/><text x="10" y="58.292" fill="#000" font-size="14" textLength="65.345" font-weight="700">UI Layer</text></g><!--cluster Application Layer--><g class="cluster" data-qualified-name="Application Layer" id="ent0004" data-source-line="8"><path d="M232.5,171.597 L371.565,171.597 A3.75,3.75 0 0 1 374.065,174.097 L381.065,193.894 L1363.5,193.894 A2.5,2.5 0 0 1 1366,196.394 L1366,266.397 A2.5,2.5 0 0 1 1363.5,268.897 L232.5,268.897 A2.5,2.5 0 0 1 230,266.397 L230,174.097 A2.5,2.5 0 0 1 232.5,171.597" style="stroke:#000;stroke-width:1.5;" fill="none"/><line x1="230" y1="193.894" x2="381.065" y2="193.894" style="stroke:#000;stroke-width:1.5;"/><text x="234" y="186.592" fill="#000" font-size="14" textLength="138.065" font-weight="700">Application Layer</text></g><!--cluster Domain Layer--><g class="cluster" data-qualified-name="Domain Layer" id="ent0011" data-source-line="17"><path d="M41.5,317.897 L151.308,317.897 A3.75,3.75 0 0 1 153.808,320.397 L160.808,340.194 L1045.5,340.194 A2.5,2.5 0 0 1 1048,342.694 L1048,412.687 A2.5,2.5 0 0 1 1045.5,415.187 L41.5,415.187 A2.5,2.5 0 0 1 39,412.687 L39,320.397 A2.5,2.5 0 0 1 41.5,317.897" style="stroke:#000;stroke-width:1.5;" fill="none"/><line x1="39" y1="340.194" x2="160.808" y2="340.194" style="stroke:#000;stroke-width:1.5;"/><text x="43" y="332.892" fill="#000" font-size="14" textLength="108.808" font-weight="700">Domain Layer</text></g><!--cluster Data Layer--><g class="cluster" data-qualified-name="Data Layer" id="ent0017" data-source-line="25"><path d="M142.5,466.747 L229.476,466.747 A3.75,3.75 0 0 1 231.976,469.247 L238.976,489.044 L486.5,489.044 A2.5,2.5 0 0 1 489,491.544 L489,673.387 A2.5,2.5 0 0 1 486.5,675.887 L142.5,675.887 A2.5,2.5 0 0 1 140,673.387 L140,469.247 A2.5,2.5 0 0 1 142.5,466.747" style="stroke:#000;stroke-width:1.5;" fill="none"/><line x1="140" y1="489.044" x2="238.976" y2="489.044" style="stroke:#000;stroke-width:1.5;"/><text x="144" y="481.742" fill="#000" font-size="14" textLength="85.976" font-weight="700">Data Layer</text></g><!--cluster Infrastructure--><g class="cluster" data-qualified-name="Infrastructure" id="ent0021" data-source-line="31"><path d="M1074.5,317.897 L1186.372,317.897 A3.75,3.75 0 0 1 1188.872,320.397 L1195.872,340.194 L1506.5,340.194 A2.5,2.5 0 0 1 1509,342.694 L1509,412.687 A2.5,2.5 0 0 1 1506.5,415.187 L1074.5,415.187 A2.5,2.5 0 0 1 1072,412.687 L1072,320.397 A2.5,2.5 0 0 1 1074.5,317.897" style="stroke:#000;stroke-width:1.5;" fill="none"/><line x1="1072" y1="340.194" x2="1195.872" y2="340.194" style="stroke:#000;stroke-width:1.5;"/><text x="1076" y="332.892" fill="#000" font-size="14" textLength="110.872" font-weight="700">Infrastructure</text></g><!--entity controllers--><g class="entity" data-qualified-name="UI Layer.controllers" id="ent0002" data-source-line="4"><rect x="46.47" y="78.297" width="143.065" height="46.297" fill="#F1F1F1" style="stroke:#181818;stroke-width:0.5;" rx="2.5" ry="2.5"/><rect x="169.535" y="83.297" width="15" height="10" fill="#F1F1F1" style="stroke:#181818;stroke-width:0.5;"/><rect x="167.535" y="85.297" width="4" height="2" fill="#F1F1F1" style="stroke:#181818;stroke-width:0.5;"/><rect x="167.535" y="89.297" width="4" height="2" fill="#F1F1F1" style="stroke:#181818;stroke-width:0.5;"/><text x="61.47" y="111.292" fill="#000" font-size="14" textLength="103.065">API Controllers</text></g><!--entity dtos--><g class="entity" data-qualified-name="UI Layer.dtos" id="ent0003" data-source-line="5"><rect x="22.02" y="206.597" width="167.969" height="46.297" fill="#F1F1F1" style="stroke:#181818;stroke-width:0.5;" rx="2.5" ry="2.5"/><rect x="169.989" y="211.597" width="15" height="10" fill="#F1F1F1" style="stroke:#181818;stroke-width:0.5;"/><rect x="167.989" y="213.597" width="4" height="2" fill="#F1F1F1" style="stroke:#181818;stroke-width:0.5;"/><rect x="167.989" y="217.597" width="4" height="2" fill="#F1F1F1" style="stroke:#181818;stroke-width:0.5;"/><text x="37.02" y="239.592" fill="#000" font-size="14" textLength="127.969">DTOs &amp; Validators</text></g><!--entity auth_svc--><g class="entity" data-qualified-name="Application Layer.auth_svc" id="ent0005" data-source-line="9"><rect x="414.72" y="206.597" width="124.554" height="46.297" fill="#F1F1F1" style="stroke:#181818;stroke-width:0.5;" rx="2.5" ry="2.5"/><rect x="519.274" y="211.597" width="15" height="10" fill="#F1F1F1" style="stroke:#181818;stroke-width:0.5;"/><rect x="517.274" y="213.597" width="4" height="2" fill="#F1F1F1" style="stroke:#181818;stroke-width:0.5;"/><rect x="517.274" y="217.597" width="4" height="2" fill="#F1F1F1" style="stroke:#181818;stroke-width:0.5;"/><text x="429.72" y="239.592" fill="#000" font-size="14" textLength="84.554">AuthService</text></g><!--entity train_svc--><g class="entity" data-qualified-name="Application Layer.train_svc" id="ent0006" data-source-line="10"><rect x="824.48" y="206.597" width="149.04" height="46.297" fill="#F1F1F1" style="stroke:#181818;stroke-width:0.5;" rx="2.5" ry="2.5"/><rect x="953.52" y="211.597" width="15" height="10" fill="#F1F1F1" style="stroke:#181818;stroke-width:0.5;"/><rect x="951.52" y="213.597" width="4" height="2" fill="#F1F1F1" style="stroke:#181818;stroke-width:0.5;"/><rect x="951.52" y="217.597" width="4" height="2" fill="#F1F1F1" style="stroke:#181818;stroke-width:0.5;"/><text x="839.48" y="239.592" fill="#000" font-size="14" textLength="109.04">TrainingService</text></g><!--entity social_svc--><g class="entity" data-qualified-name="Application Layer.social_svc" id="ent0007" data-source-line="11"><rect x="246.38" y="206.597" width="133.249" height="46.297" fill="#F1F1F1" style="stroke:#181818;stroke-width:0.5;" rx="2.5" ry="2.5"/><rect x="359.629" y="211.597" width="15" height="10" fill="#F1F1F1" style="stroke:#181818;stroke-width:0.5;"/><rect x="357.629" y="213.597" width="4" height="2" fill="#F1F1F1" style="stroke:#181818;stroke-width:0.5;"/><rect x="357.629" y="217.597" width="4" height="2" fill="#F1F1F1" style="stroke:#181818;stroke-width:0.5;"/><text x="261.38" y="239.592" fill="#000" font-size="14" textLength="93.249">SocialService</text></g><!--entity rec_svc--><g class="entity" data-qualified-name="Application Layer.rec_svc" id="ent0008" data-source-line="12"><rect x="574.31" y="206.597" width="215.39" height="46.297" fill="#F1F1F1" style="stroke:#181818;stroke-width:0.5;" rx="2.5" ry="2.5"/><rect x="769.7" y="211.597" width="15" height="10" fill="#F1F1F1" style="stroke:#181818;stroke-width:0.5;"/><rect x="767.7" y="213.597" width="4" height="2" fill="#F1F1F1" style="stroke:#181818;stroke-width:0.5;"/><rect x="767.7" y="217.597" width="4" height="2" fill="#F1F1F1" style="stroke:#181818;stroke-width:0.5;"/><text x="589.31" y="239.592" fill="#000" font-size="14" textLength="175.39">RecommendationService</text></g><!--entity billing_svc--><g class="entity" data-qualified-name="Application Layer.billing_svc" id="ent0009" data-source-line="13"><rect x="1008.67" y="206.597" width="134.664" height="46.297" fill="#F1F1F1" style="stroke:#181818;stroke-width:0.5;" rx="2.5" ry="2.5"/><rect x="1123.334" y="211.597" width="15" height="10" fill="#F1F1F1" style="stroke:#181818;stroke-width:0.5;"/><rect x="1121.334" y="213.597" width="4" height="2" fill="#F1F1F1" style="stroke:#181818;stroke-width:0.5;"/><rect x="1121.334" y="217.597" width="4" height="2" fill="#F1F1F1" style="stroke:#181818;stroke-width:0.5;"/><text x="1023.67" y="239.592" fill="#000" font-size="14" textLength="94.664">BillingService</text></g><!--entity notify_svc--><g class="entity" data-qualified-name="Application Layer.notify_svc" id="ent0010" data-source-line="14"><rect x="1177.96" y="206.597" width="172.07" height="46.297" fill="#F1F1F1" style="stroke:#181818;stroke-width:0.5;" rx="2.5" ry="2.5"/><rect x="1330.03" y="211.597" width="15" height="10" fill="#F1F1F1" style="stroke:#181818;stroke-width:0.5;"/><rect x="1328.03" y="213.597" width="4" height="2" fill="#F1F1F1" style="stroke:#181818;stroke-width:0.5;"/><rect x="1328.03" y="217.597" width="4" height="2" fill="#F1F1F1" style="stroke:#181818;stroke-width:0.5;"/><text x="1192.96" y="239.592" fill="#000" font-size="14" textLength="132.07">NotificationService</text></g><!--entity user_dom--><g class="entity" data-qualified-name="Domain Layer.user_dom" id="ent0012" data-source-line="18"><rect x="238.18" y="352.897" width="149.648" height="46.297" fill="#F1F1F1" style="stroke:#181818;stroke-width:0.5;" rx="2.5" ry="2.5"/><rect x="367.828" y="357.897" width="15" height="10" fill="#F1F1F1" style="stroke:#181818;stroke-width:0.5;"/><rect x="365.828" y="359.897" width="4" height="2" fill="#F1F1F1" style="stroke:#181818;stroke-width:0.5;"/><rect x="365.828" y="363.897" width="4" height="2" fill="#F1F1F1" style="stroke:#181818;stroke-width:0.5;"/><text x="253.18" y="385.892" fill="#000" font-size="14" textLength="109.648">User Aggregate</text></g><!--entity train_dom--><g class="entity" data-qualified-name="Domain Layer.train_dom" id="ent0013" data-source-line="19"><rect x="674.48" y="352.897" width="175.037" height="46.297" fill="#F1F1F1" style="stroke:#181818;stroke-width:0.5;" rx="2.5" ry="2.5"/><rect x="829.517" y="357.897" width="15" height="10" fill="#F1F1F1" style="stroke:#181818;stroke-width:0.5;"/><rect x="827.517" y="359.897" width="4" height="2" fill="#F1F1F1" style="stroke:#181818;stroke-width:0.5;"/><rect x="827.517" y="363.897" width="4" height="2" fill="#F1F1F1" style="stroke:#181818;stroke-width:0.5;"/><text x="689.48" y="385.892" fill="#000" font-size="14" textLength="135.037">Training Aggregate</text></g><!--entity post_dom--><g class="entity" data-qualified-name="Domain Layer.post_dom" id="ent0014" data-source-line="20"><rect x="55.24" y="352.897" width="147.529" height="46.297" fill="#F1F1F1" style="stroke:#181818;stroke-width:0.5;" rx="2.5" ry="2.5"/><rect x="182.769" y="357.897" width="15" height="10" fill="#F1F1F1" style="stroke:#181818;stroke-width:0.5;"/><rect x="180.769" y="359.897" width="4" height="2" fill="#F1F1F1" style="stroke:#181818;stroke-width:0.5;"/><rect x="180.769" y="363.897" width="4" height="2" fill="#F1F1F1" style="stroke:#181818;stroke-width:0.5;"/><text x="70.24" y="385.892" fill="#000" font-size="14" textLength="107.529">Post Aggregate</text></g><!--entity rec_dom--><g class="entity" data-qualified-name="Domain Layer.rec_dom" id="ent0015" data-source-line="21"><rect x="422.96" y="352.897" width="216.08" height="46.297" fill="#F1F1F1" style="stroke:#181818;stroke-width:0.5;" rx="2.5" ry="2.5"/><rect x="619.04" y="357.897" width="15" height="10" fill="#F1F1F1" style="stroke:#181818;stroke-width:0.5;"/><rect x="617.04" y="359.897" width="4" height="2" fill="#F1F1F1" style="stroke:#181818;stroke-width:0.5;"/><rect x="617.04" y="363.897" width="4" height="2" fill="#F1F1F1" style="stroke:#181818;stroke-width:0.5;"/><text x="437.96" y="385.892" fill="#000" font-size="14" textLength="176.08">Recommendation Engine</text></g><!--entity pay_dom--><g class="entity" data-qualified-name="Domain Layer.pay_dom" id="ent0016" data-source-line="22"><rect x="884.43" y="352.897" width="147.14" height="46.297" fill="#F1F1F1" style="stroke:#181818;stroke-width:0.5;" rx="2.5" ry="2.5"/><rect x="1011.57" y="357.897" width="15" height="10" fill="#F1F1F1" style="stroke:#181818;stroke-width:0.5;"/><rect x="1009.57" y="359.897" width="4" height="2" fill="#F1F1F1" style="stroke:#181818;stroke-width:0.5;"/><rect x="1009.57" y="363.897" width="4" height="2" fill="#F1F1F1" style="stroke:#181818;stroke-width:0.5;"/><text x="899.43" y="385.892" fill="#000" font-size="14" textLength="107.14">Payment Policy</text></g><!--entity repos--><g class="entity" data-qualified-name="Data Layer.repos" id="ent0018" data-source-line="26"><rect x="249.71" y="501.747" width="126.584" height="46.297" fill="#F1F1F1" style="stroke:#181818;stroke-width:0.5;" rx="2.5" ry="2.5"/><rect x="356.294" y="506.747" width="15" height="10" fill="#F1F1F1" style="stroke:#181818;stroke-width:0.5;"/><rect x="354.294" y="508.747" width="4" height="2" fill="#F1F1F1" style="stroke:#181818;stroke-width:0.5;"/><rect x="354.294" y="512.747" width="4" height="2" fill="#F1F1F1" style="stroke:#181818;stroke-width:0.5;"/><text x="264.71" y="534.742" fill="#000" font-size="14" textLength="86.584">Repositories</text></g><!--entity mappers--><g class="entity" data-qualified-name="Data Layer.mappers" id="ent0019" data-source-line="27"><rect x="156.31" y="613.587" width="137.371" height="46.297" fill="#F1F1F1" style="stroke:#181818;stroke-width:0.5;" rx="2.5" ry="2.5"/><rect x="273.681" y="618.587" width="15" height="10" fill="#F1F1F1" style="stroke:#181818;stroke-width:0.5;"/><rect x="271.681" y="620.587" width="4" height="2" fill="#F1F1F1" style="stroke:#181818;stroke-width:0.5;"/><rect x="271.681" y="624.587" width="4" height="2" fill="#F1F1F1" style="stroke:#181818;stroke-width:0.5;"/><text x="171.31" y="646.582" fill="#000" font-size="14" textLength="97.371">ORM Mappers</text></g><!--entity cache--><g class="entity" data-qualified-name="Data Layer.cache" id="ent0020" data-source-line="28"><rect x="329.11" y="613.587" width="143.776" height="46.297" fill="#F1F1F1" style="stroke:#181818;stroke-width:0.5;" rx="2.5" ry="2.5"/><rect x="452.886" y="618.587" width="15" height="10" fill="#F1F1F1" style="stroke:#181818;stroke-width:0.5;"/><rect x="450.886" y="620.587" width="4" height="2" fill="#F1F1F1" style="stroke:#181818;stroke-width:0.5;"/><rect x="450.886" y="624.587" width="4" height="2" fill="#F1F1F1" style="stroke:#181818;stroke-width:0.5;"/><text x="344.11" y="646.582" fill="#000" font-size="14" textLength="103.776">Cache Adapter</text></g><!--entity adapters--><g class="entity" data-qualified-name="Infrastructure.adapters" id="ent0022" data-source-line="32"><rect x="1300.77" y="352.897" width="192.462" height="46.297" fill="#F1F1F1" style="stroke:#181818;stroke-width:0.5;" rx="2.5" ry="2.5"/><rect x="1473.232" y="357.897" width="15" height="10" fill="#F1F1F1" style="stroke:#181818;stroke-width:0.5;"/><rect x="1471.232" y="359.897" width="4" height="2" fill="#F1F1F1" style="stroke:#181818;stroke-width:0.5;"/><rect x="1471.232" y="363.897" width="4" height="2" fill="#F1F1F1" style="stroke:#181818;stroke-width:0.5;"/><text x="1315.77" y="385.892" fill="#000" font-size="14" textLength="152.462">External API Adapters</text></g><!--entity worker--><g class="entity" data-qualified-name="Infrastructure.worker" id="ent0023" data-source-line="33"><rect x="1087.97" y="352.897" width="178.065" height="46.297" fill="#F1F1F1" style="stroke:#181818;stroke-width:0.5;" rx="2.5" ry="2.5"/><rect x="1246.035" y="357.897" width="15" height="10" fill="#F1F1F1" style="stroke:#181818;stroke-width:0.5;"/><rect x="1244.035" y="359.897" width="4" height="2" fill="#F1F1F1" style="stroke:#181818;stroke-width:0.5;"/><rect x="1244.035" y="363.897" width="4" height="2" fill="#F1F1F1" style="stroke:#181818;stroke-width:0.5;"/><text x="1102.97" y="385.892" fill="#000" font-size="14" textLength="138.065">Task Queue Worker</text></g><g class="entity" data-qualified-name="GMN43" id="ent0044" data-source-line="61"><path d="M1528.55,348.347 L1528.55,403.745 L1685.46,403.745 L1685.46,358.347 L1675.46,348.347 L1528.55,348.347" style="stroke:#181818;stroke-width:0.5;" fill="#FEFFDD"/><path d="M1675.46,348.347 L1675.46,358.347 L1685.46,358.347 L1675.46,348.347" style="stroke:#181818;stroke-width:1;" fill="#FEFFDD"/><text x="1534.55" y="365.414" fill="#000" font-size="13" textLength="102.972">Domain Events:</text><text x="1534.55" y="380.547" fill="#000" font-size="13" textLength="135.91">• TrainingCompleted</text><text x="1534.55" y="395.679" fill="#000" font-size="13" textLength="96.738">• GoalUpdated</text></g><g class="entity" data-qualified-name="GMN48" id="ent0049" data-source-line="69"><path d="M1511.18,497.187 L1511.18,552.585 L1702.824,552.585 L1702.824,507.187 L1692.824,497.187 L1511.18,497.187" style="stroke:#181818;stroke-width:0.5;" fill="#FEFFDD"/><path d="M1692.824,497.187 L1692.824,507.187 L1702.824,507.187 L1692.824,497.187" style="stroke:#181818;stroke-width:1;" fill="#FEFFDD"/><text x="1517.18" y="514.254" fill="#000" font-size="13" textLength="82.126">Запрещено:</text><text x="1517.18" y="529.387" fill="#000" font-size="13" textLength="148.96">• UI → Data напрямую</text><text x="1517.18" y="544.519" fill="#000" font-size="13" textLength="170.644">• Domain → Infrastructure</text></g><!--link controllers to dtos--><g class="link" data-entity-1="ent0002" data-entity-2="ent0003" id="lnk24" data-source-line="37" data-link-type="dependency"><path d="M115.85,125.027 C113.67,148.017 110.771,178.469 108.601,201.389" style="stroke:#181818;stroke-width:1;" fill="none" id="controllers-to-dtos"/><polygon points="108.13,206.367,112.96,197.784,108.601,201.389,104.996,197.03,108.13,206.367" fill="#181818" style="stroke:#181818;stroke-width:1;stroke-linejoin:miter;stroke-miterlimit:10;"/></g><!--link controllers to auth_svc--><g class="link" data-entity-1="ent0002" data-entity-2="ent0005" id="lnk25" data-source-line="38" data-link-type="dependency"><path d="M189.78,108.887 C247.98,116.247 330.9,131.707 397,163.597 C418.94,174.187 436.523,188.465 451.583,202.755" style="stroke:#181818;stroke-width:1;" fill="none" id="controllers-to-auth_svc"/><polygon points="455.21,206.197,451.435,197.1,451.583,202.755,445.928,202.904,455.21,206.197" fill="#181818" style="stroke:#181818;stroke-width:1;stroke-linejoin:miter;stroke-miterlimit:10;"/></g><!--link controllers to train_svc--><g class="link" data-entity-1="ent0002" data-entity-2="ent0006" id="lnk26" data-source-line="39" data-link-type="dependency"><path d="M190.02,104.097 C342.94,108.377 695.2,122.497 807,163.597 C832.53,172.987 853.653,188.145 871.103,203.005" style="stroke:#181818;stroke-width:1;" fill="none" id="controllers-to-train_svc"/><polygon points="874.91,206.247,870.651,197.366,871.103,203.005,865.464,203.457,874.91,206.247" fill="#181818" style="stroke:#181818;stroke-width:1;stroke-linejoin:miter;stroke-miterlimit:10;"/></g><!--link controllers to social_svc--><g class="link" data-entity-1="ent0002" data-entity-2="ent0007" id="lnk27" data-source-line="40" data-link-type="dependency"><path d="M152.86,125.027 C188.25,147.947 238.523,180.509 273.913,203.429" style="stroke:#181818;stroke-width:1;" fill="none" id="controllers-to-social_svc"/><polygon points="278.11,206.147,272.73,197.897,273.913,203.429,268.381,204.612,278.11,206.147" fill="#181818" style="stroke:#181818;stroke-width:1;stroke-linejoin:miter;stroke-miterlimit:10;"/></g><!--link controllers to billing_svc--><g class="link" data-entity-1="ent0002" data-entity-2="ent0009" id="lnk28" data-source-line="41" data-link-type="dependency"><path d="M189.8,102.197 C371.43,102.397 845.09,108.357 991,163.597 C1015.34,172.817 1034.833,188.016 1050.803,202.996" style="stroke:#181818;stroke-width:1;" fill="none" id="controllers-to-billing_svc"/><polygon points="1054.45,206.417,1050.622,197.342,1050.803,202.996,1045.149,203.177,1054.45,206.417" fill="#181818" style="stroke:#181818;stroke-width:1;stroke-linejoin:miter;stroke-miterlimit:10;"/></g><!--link auth_svc to user_dom--><g class="link" data-entity-1="ent0005" data-entity-2="ent0012" id="lnk29" data-source-line="43" data-link-type="dependency"><path d="M475,253.377 C472.35,269.327 466.21,289.907 452,301.897 C435.8,315.557 424.58,301.797 405,309.897 C380.22,320.147 359.476,334.904 341.956,349.364" style="stroke:#181818;stroke-width:1;" fill="none" id="auth_svc-to-user_dom"/><polygon points="338.1,352.547,347.587,349.903,341.956,349.364,342.495,343.733,338.1,352.547" fill="#181818" style="stroke:#181818;stroke-width:1;stroke-linejoin:miter;stroke-miterlimit:10;"/></g><!--link train_svc to train_dom--><g class="link" data-entity-1="ent0006" data-entity-2="ent0013" id="lnk30" data-source-line="44" data-link-type="dependency"><path d="M888.48,253.357 C880.97,268.117 869.92,287.277 857,301.897 C839.77,321.387 820.821,336.441 801.741,349.651" style="stroke:#181818;stroke-width:1;" fill="none" id="train_svc-to-train_dom"/><polygon points="797.63,352.497,807.307,350.662,801.741,349.651,802.753,344.085,797.63,352.497" fill="#181818" style="stroke:#181818;stroke-width:1;stroke-linejoin:miter;stroke-miterlimit:10;"/></g><!--link social_svc to post_dom--><g class="link" data-entity-1="ent0007" data-entity-2="ent0014" id="lnk31" data-source-line="45" data-link-type="dependency"><path d="M284.25,253.297 C249.78,280.327 196.295,322.272 161.785,349.332" style="stroke:#181818;stroke-width:1;" fill="none" id="social_svc-to-post_dom"/><polygon points="157.85,352.417,167.401,350.011,161.785,349.332,162.464,343.716,157.85,352.417" fill="#181818" style="stroke:#181818;stroke-width:1;stroke-linejoin:miter;stroke-miterlimit:10;"/></g><!--link rec_svc to rec_dom--><g class="link" data-entity-1="ent0008" data-entity-2="ent0015" id="lnk32" data-source-line="46" data-link-type="dependency"><path d="M658.41,253.297 C630.04,280.397 586.334,322.162 558.044,349.202" style="stroke:#181818;stroke-width:1;" fill="none" id="rec_svc-to-rec_dom"/><polygon points="554.43,352.657,563.7,349.33,558.044,349.202,558.172,343.547,554.43,352.657" fill="#181818" style="stroke:#181818;stroke-width:1;stroke-linejoin:miter;stroke-miterlimit:10;"/></g><!--link billing_svc to pay_dom--><g class="link" data-entity-1="ent0009" data-entity-2="ent0016" id="lnk33" data-source-line="47" data-link-type="dependency"><path d="M1037.26,253.357 C1022.96,261.277 1006.46,269.927 991,276.897 C981.51,281.167 975.47,276.747 969,284.897 C953.89,303.897 952.562,327.684 954.232,347.584" style="stroke:#181818;stroke-width:1;" fill="none" id="billing_svc-to-pay_dom"/><polygon points="954.65,352.567,957.883,343.264,954.232,347.584,949.911,343.933,954.65,352.567" fill="#181818" style="stroke:#181818;stroke-width:1;stroke-linejoin:miter;stroke-miterlimit:10;"/></g><!--link user_dom to repos--><g class="link" data-entity-1="ent0012" data-entity-2="ent0018" id="lnk34" data-source-line="49" data-link-type="dependency"><path d="M313,399.667 C313,427.347 313,468.907 313,496.487" style="stroke:#181818;stroke-width:1;stroke-dasharray:7,7;" fill="none" id="user_dom-to-repos"/><polygon points="313,501.487,317,492.487,313,496.487,309,492.487,313,501.487" fill="#181818" style="stroke:#181818;stroke-width:1;stroke-linejoin:miter;stroke-miterlimit:10;"/><text x="314" y="446.814" fill="#000" font-size="13" textLength="78.197">использует</text></g><!--link train_dom to repos--><g class="link" data-entity-1="ent0013" data-entity-2="ent0018" id="lnk35" data-source-line="50" data-link-type="dependency"><path d="M714.18,399.617 C696.43,407.587 675.99,416.277 657,423.187 C560.82,458.237 451.049,488.569 381.399,506.669" style="stroke:#181818;stroke-width:1;stroke-dasharray:7,7;" fill="none" id="train_dom-to-repos"/><polygon points="376.56,507.927,386.277,509.535,381.399,506.669,384.265,501.792,376.56,507.927" fill="#181818" style="stroke:#181818;stroke-width:1;stroke-linejoin:miter;stroke-miterlimit:10;"/><text x="621" y="446.814" fill="#000" font-size="13" textLength="78.197">использует</text></g><!--link post_dom to repos--><g class="link" data-entity-1="ent0014" data-entity-2="ent0018" id="lnk36" data-source-line="51" data-link-type="dependency"><path d="M157.35,399.667 C192.02,427.347 246.462,470.788 281.012,498.368" style="stroke:#181818;stroke-width:1;stroke-dasharray:7,7;" fill="none" id="post_dom-to-repos"/><polygon points="284.92,501.487,280.382,492.746,281.012,498.368,275.391,498.998,284.92,501.487" fill="#181818" style="stroke:#181818;stroke-width:1;stroke-linejoin:miter;stroke-miterlimit:10;"/><text x="222" y="446.814" fill="#000" font-size="13" textLength="78.197">использует</text></g><!--link repos to mappers--><g class="link" data-entity-1="ent0018" data-entity-2="ent0019" id="lnk37" data-source-line="52" data-link-type="dependency"><path d="M294.98,548.387 C279.79,567.337 261.306,590.425 246.126,609.375" style="stroke:#181818;stroke-width:1;" fill="none" id="repos-to-mappers"/><polygon points="243,613.277,251.749,608.753,246.126,609.375,245.505,603.752,243,613.277" fill="#181818" style="stroke:#181818;stroke-width:1;stroke-linejoin:miter;stroke-miterlimit:10;"/></g><!--link repos to cache--><g class="link" data-entity-1="ent0018" data-entity-2="ent0020" id="lnk38" data-source-line="53" data-link-type="dependency"><path d="M331.02,548.387 C346.21,567.337 364.694,590.425 379.874,609.375" style="stroke:#181818;stroke-width:1;" fill="none" id="repos-to-cache"/><polygon points="383,613.277,380.495,603.752,379.874,609.375,374.251,608.753,383,613.277" fill="#181818" style="stroke:#181818;stroke-width:1;stroke-linejoin:miter;stroke-miterlimit:10;"/></g><!--link train_svc to adapters--><g class="link" data-entity-1="ent0006" data-entity-2="ent0022" id="lnk39" data-source-line="55" data-link-type="dependency"><path d="M935.24,253.187 C951.65,262.207 971.68,271.687 991,276.897 C1046.89,291.957 1065.29,269.177 1121,284.897 C1136.5,289.267 1137.5,297.527 1153,301.897 C1209.14,317.717 1228.14,293.107 1284,309.897 C1314.36,319.017 1341.191,334.812 1363.001,349.822" style="stroke:#181818;stroke-width:1;stroke-dasharray:7,7;" fill="none" id="train_svc-to-adapters"/><polygon points="1367.12,352.657,1361.974,344.259,1363.001,349.822,1357.438,350.85,1367.12,352.657" fill="#181818" style="stroke:#181818;stroke-width:1;stroke-linejoin:miter;stroke-miterlimit:10;"/><text x="1154" y="297.964" fill="#000" font-size="13" textLength="104.939">синхронизация</text></g><!--link billing_svc to adapters--><g class="link" data-entity-1="ent0009" data-entity-2="ent0022" id="lnk40" data-source-line="56" data-link-type="dependency"><path d="M1109.28,253.337 C1124.15,262.267 1142.29,271.637 1160,276.897 C1205.72,290.467 1222.05,268.967 1267,284.897 C1288.55,292.527 1333.1,325.314 1364.38,349.434" style="stroke:#181818;stroke-width:1;stroke-dasharray:7,7;" fill="none" id="billing_svc-to-adapters"/><polygon points="1368.34,352.487,1363.655,343.823,1364.38,349.434,1358.77,350.159,1368.34,352.487" fill="#181818" style="stroke:#181818;stroke-width:1;stroke-linejoin:miter;stroke-miterlimit:10;"/><text x="1297" y="297.964" fill="#000" font-size="13" textLength="60.506">платежи</text></g><!--link notify_svc to adapters--><g class="link" data-entity-1="ent0010" data-entity-2="ent0022" id="lnk41" data-source-line="57" data-link-type="dependency"><path d="M1327.51,253.357 C1342.82,261.327 1357.93,271.697 1369,284.897 C1385.22,304.227 1391.343,327.979 1394.213,347.779" style="stroke:#181818;stroke-width:1;stroke-dasharray:7,7;" fill="none" id="notify_svc-to-adapters"/><polygon points="1394.93,352.727,1397.598,343.246,1394.213,347.779,1389.68,344.394,1394.93,352.727" fill="#181818" style="stroke:#181818;stroke-width:1;stroke-linejoin:miter;stroke-miterlimit:10;"/><text x="1379" y="297.964" fill="#000" font-size="13" textLength="71.735">email/push</text></g><!--link train_svc to worker--><g class="link" data-entity-1="ent0006" data-entity-2="ent0023" id="lnk42" data-source-line="58" data-link-type="dependency"><path d="M924.68,253.217 C944.47,269.307 973.24,290.127 1002,301.897 C1021.21,309.757 1028.3,303.367 1048,309.897 C1080.27,320.587 1110.171,335.74 1135.261,349.97" style="stroke:#181818;stroke-width:1;stroke-dasharray:7,7;" fill="none" id="train_svc-to-worker"/><polygon points="1139.61,352.437,1133.755,344.517,1135.261,349.97,1129.808,351.476,1139.61,352.437" fill="#181818" style="stroke:#181818;stroke-width:1;stroke-linejoin:miter;stroke-miterlimit:10;"/><text x="1003" y="297.964" fill="#000" font-size="13" textLength="113.541">фоновые задачи</text></g><!--link train_dom to GMN43--><g class="link" data-entity-1="ent0013" data-entity-2="ent0044" id="lnk45" data-source-line="61" data-link-type="association"><path d="M786.85,352.637 C810.06,332.507 846.72,304.947 884.5,293.397 C949,273.677 1427.28,272.787 1491.5,293.397 C1525.07,304.167 1557.18,328.697 1578.98,348.247" style="stroke:#181818;stroke-width:1;stroke-dasharray:7,7;" fill="none" id="train_dom-GMN43"/></g><!--link train_dom to rec_svc--><g class="link" data-entity-1="ent0013" data-entity-2="ent0008" id="lnk46" data-source-line="65" data-link-type="dependency"><path d="M747.89,352.557 C739.04,338.217 727.54,319.147 718,301.897 C709.09,285.777 701.924,271.695 694.984,257.565" style="stroke:#181818;stroke-width:1;stroke-dasharray:7,7;" fill="none" id="train_dom-to-rec_svc"/><polygon points="692.78,253.077,693.157,262.919,694.984,257.565,700.338,259.392,692.78,253.077" fill="#181818" style="stroke:#181818;stroke-width:1;stroke-linejoin:miter;stroke-miterlimit:10;"/><text x="719" y="297.964" fill="#000" font-size="13" textLength="133.44">публикует события</text></g><!--link user_dom to social_svc--><g class="link" data-entity-1="ent0012" data-entity-2="ent0007" id="lnk47" data-source-line="66" data-link-type="dependency"><path d="M313,352.657 C313,325.617 313,285.397 313,258.297" style="stroke:#181818;stroke-width:1;stroke-dasharray:7,7;" fill="none" id="user_dom-to-social_svc"/><polygon points="313,253.297,309,262.297,313,258.297,317,262.297,313,253.297" fill="#181818" style="stroke:#181818;stroke-width:1;stroke-linejoin:miter;stroke-miterlimit:10;"/><text x="314" y="297.964" fill="#000" font-size="13" textLength="133.44">публикует события</text></g><!--link GMN43 to GMN48--><g class="link" data-entity-1="ent0044" data-entity-2="ent0049" id="lnk50" data-source-line="69" data-link-type="association"><path d="M1607,403.977 C1607,430.387 1607,470.437 1607,496.877" style="stroke:#181818;stroke-width:1;stroke-dasharray:7,7;" fill="none" id="GMN43-GMN48"/></g><?plantuml-src ZLNBJjj05DtxAwwow6C1tRD0Ie5MIALG7kqI3SwGZB0zbZscZQfAa1JQYgfHsNJTVW4WKY8UuHTcVe4lwPtn8yxWYB88utlFVSwvTmGJ7eKNJCnntqy29jgmn0FkCT62AP37yaPrLKVjoRwymNDFzK3jQu7goalytqNL2SXBEPJNyXP_RpHITV1qvZWXSNT8aq9jOn5UaJQDQl3H0VnpkH_oW0O2QlMLHPZZWOYuvz4ehW69KLrys_3vzUKO7i5Ruh464JmpQ0WUEvzA0UjXw36N2CQ3oP4JqLgZqIvpgN52y7iptdLjt7f4MC22PXahjAmAlCPTHhmoD3QIAkmgnG-V1WsJPzacecwLmNFcULOYMwce2lsQ2xQTDQ5i4cXvsrYKMpRFVQnfOhSsOXf1lTcCQ9E8r562eiq6zoSrp8AdFQl0h_1OMDWGHLNGyPR1Gj1amQXbLRv9szU75UIqsqvzaxP1ZXLF19bO-Yh5T1YIZT4uYuK26xMykWHB90np4llfsORD4RT5eTuWeT31DDkrP2oRnM0x8h684bSa4Qt8QE436WV40pqzcQyqAia-xjq9YNVWJK8J2kzuj9E5Vc-EElPZaB_bcUh92pa0dEM-_2lFLHUdNLx98SglKVv4JxkyqEj0VLK_pKeuadt0mucyDSepXEjTCL2zfqvfZc5gQZOTKrjOZ9sj6CsOhIcDbAqgpuEJkpQQWgs5tr8KBHzvDOg2Wjam6c7EibAO59nnoicZmFJqRCeJc07inhxPZbVgExQlY-thE4NWXw5vAWyZKwNEAAVVI9Boh5I-zfRp1HsYkm5Uw07UezxZ0wJ2YJhKDpbMhcM5ALmXhcCOCt16oyK6KbmlthCmYLjM2Ya9TGAVJM1yEb9MONnvZhw_e5_jc4B4cYq1VDlQ9TdgMjX5giSpHdItzmVoFOHlM-XHGHk5vYKdtaQ8ImHbk4pqIgJtBYIzTLqXDlSKgnpWasVQh5irbAVg2ClMxHcxz1AD_iSsBMoB2v4L8tzbmzHNtyme3KSLuJjwTtWCPblbGwTd4z_X7mKewuO6ZY-IejH_?></g></svg>