<svg xmlns="http://www.w3.org/2000/svg" xmlns:xlink="http://www.w3.org/1999/xlink" version="1.1" data-diagram-type="SEQUENCE" style="width:739px;height:495px;background:#FFFFFF;" width="739px" height="495px" viewBox="0 0 739 495" zoomAndPan="magnify" preserveAspectRatio="none" contentStyleType="text/css"><?plantuml 1.2026.7beta8?><defs/><g font-family="sans-serif" lengthAdjust="spacing"><g><title>User</title><rect x="25.455" y="86.297" width="8" height="322.328" fill="#000" fill-opacity="0"/><line x1="28.955" y1="86.297" x2="28.955" y2="408.625" style="stroke:#181818;stroke-width:0.5;stroke-dasharray:5,5;"/></g><g><title>Client</title><rect x="271.318" y="86.297" width="8" height="322.328" fill="#000" fill-opacity="0"/><line x1="274.818" y1="86.297" x2="274.818" y2="408.625" style="stroke:#181818;stroke-width:0.5;stroke-dasharray:5,5;"/></g><g><title>Gateway</title><rect x="444.095" y="86.297" width="8" height="322.328" fill="#000" fill-opacity="0"/><line x1="447.595" y1="86.297" x2="447.595" y2="408.625" style="stroke:#181818;stroke-width:0.5;stroke-dasharray:5,5;"/></g><g><title>Proxy</title><rect x="612.104" y="86.297" width="8" height="322.328" fill="#000" fill-opacity="0"/><line x1="615.604" y1="86.297" x2="615.604" y2="408.625" style="stroke:#181818;stroke-width:0.5;stroke-dasharray:5,5;"/></g><g><title>CP</title><rect x="708.55" y="86.297" width="8" height="322.328" fill="#000" fill-opacity="0"/><line x1="712.05" y1="86.297" x2="712.05" y2="408.625" style="stroke:#181818;stroke-width:0.5;stroke-dasharray:5,5;"/></g><text x="10" y="82.995" fill="#000" font-size="14" textLength="31.91">User</text><ellipse cx="28.955" cy="18.5" rx="8" ry="8" fill="#E2E2F0" style="stroke:#181818;stroke-width:0.5;"/><path d="M28.955,26.5 L28.955,53.5 M15.955,34.5 L41.955,34.5 M28.955,53.5 L15.955,68.5 M28.955,53.5 L41.955,68.5" style="stroke:#181818;stroke-width:0.5;" fill="none"/><rect x="247.553" y="55" width="54.53" height="30.297" fill="#E2E2F0" style="stroke:#181818;stroke-width:0.5;" rx="2.5" ry="2.5"/><text x="254.553" y="74.995" fill="#000" font-size="14" textLength="40.53">Client</text><rect x="409.672" y="55" width="75.845" height="30.297" fill="#E2E2F0" style="stroke:#181818;stroke-width:0.5;" rx="2.5" ry="2.5"/><text x="416.672" y="74.995" fill="#000" font-size="14" textLength="61.845">Gateway</text><rect x="588.937" y="55" width="53.334" height="30.297" fill="#E2E2F0" style="stroke:#181818;stroke-width:0.5;" rx="2.5" ry="2.5"/><text x="595.937" y="74.995" fill="#000" font-size="14" textLength="39.334">Proxy</text><rect x="695.941" y="55" width="32.218" height="30.297" fill="#E2E2F0" style="stroke:#181818;stroke-width:0.5;" rx="2.5" ry="2.5"/><text x="702.941" y="74.995" fill="#000" font-size="14" textLength="18.218">CP</text><text x="10" y="421.62" fill="#000" font-size="14" textLength="31.91">User</text><ellipse cx="28.955" cy="433.422" rx="8" ry="8" fill="#E2E2F0" style="stroke:#181818;stroke-width:0.5;"/><path d="M28.955,441.422 L28.955,468.422 M15.955,449.422 L41.955,449.422 M28.955,468.422 L15.955,483.422 M28.955,468.422 L41.955,483.422" style="stroke:#181818;stroke-width:0.5;" fill="none"/><rect x="247.553" y="408.625" width="54.53" height="30.297" fill="#E2E2F0" style="stroke:#181818;stroke-width:0.5;" rx="2.5" ry="2.5"/><text x="254.553" y="428.62" fill="#000" font-size="14" textLength="40.53">Client</text><rect x="409.672" y="408.625" width="75.845" height="30.297" fill="#E2E2F0" style="stroke:#181818;stroke-width:0.5;" rx="2.5" ry="2.5"/><text x="416.672" y="428.62" fill="#000" font-size="14" textLength="61.845">Gateway</text><rect x="588.937" y="408.625" width="53.334" height="30.297" fill="#E2E2F0" style="stroke:#181818;stroke-width:0.5;" rx="2.5" ry="2.5"/><text x="595.937" y="428.62" fill="#000" font-size="14" textLength="39.334">Proxy</text><rect x="695.941" y="408.625" width="32.218" height="30.297" fill="#E2E2F0" style="stroke:#181818;stroke-width:0.5;" rx="2.5" ry="2.5"/><text x="702.941" y="428.62" fill="#000" font-size="14" textLength="18.218">CP</text><polygon points="262.818,111.43,272.818,115.43,262.818,119.43,266.818,115.43" fill="#181818" style="stroke:#181818;stroke-width:1;stroke-linejoin:miter;stroke-miterlimit:10;"/><line x1="28.955" y1="115.43" x2="268.818" y2="115.43" style="stroke:#181818;stroke-width:1;"/><text x="35.955" y="110.364" fill="#000" font-size="13" textLength="50.546">Оплата</text><polygon points="435.595,140.563,445.595,144.563,435.595,148.563,439.595,144.563" fill="#181818" style="stroke:#181818;stroke-width:1;stroke-linejoin:miter;stroke-miterlimit:10;"/><line x1="274.818" y1="144.563" x2="441.595" y2="144.563" style="stroke:#181818;stroke-width:1;"/><text x="281.818" y="139.497" fill="#000" font-size="13" textLength="148.776">POST /payments/proxy</text><polygon points="603.604,169.695,613.604,173.695,603.604,177.695,607.604,173.695" fill="#181818" style="stroke:#181818;stroke-width:1;stroke-linejoin:miter;stroke-miterlimit:10;"/><line x1="447.595" y1="173.695" x2="609.604" y2="173.695" style="stroke:#181818;stroke-width:1;"/><text x="454.595" y="168.629" fill="#000" font-size="13" textLength="46.731">запрос</text><polygon points="700.05,198.828,710.05,202.828,700.05,206.828,704.05,202.828" fill="#181818" style="stroke:#181818;stroke-width:1;stroke-linejoin:miter;stroke-miterlimit:10;"/><line x1="615.604" y1="202.828" x2="706.05" y2="202.828" style="stroke:#181818;stroke-width:1;"/><text x="622.604" y="197.762" fill="#000" font-size="13" textLength="40.454">вызов</text><polygon points="626.604,227.961,616.604,231.961,626.604,235.961,622.604,231.961" fill="#181818" style="stroke:#181818;stroke-width:1;stroke-linejoin:miter;stroke-miterlimit:10;"/><line x1="620.604" y1="231.961" x2="711.05" y2="231.961" style="stroke:#181818;stroke-width:1;stroke-dasharray:2,2;"/><text x="632.604" y="226.895" fill="#000" font-size="13" textLength="72.446">&lt;timeout></text><line x1="615.604" y1="261.094" x2="657.604" y2="261.094" style="stroke:#181818;stroke-width:1;"/><line x1="657.604" y1="261.094" x2="657.604" y2="274.094" style="stroke:#181818;stroke-width:1;"/><line x1="616.604" y1="274.094" x2="657.604" y2="274.094" style="stroke:#181818;stroke-width:1;"/><polygon points="626.604,270.094,616.604,274.094,626.604,278.094,622.604,274.094" fill="#181818" style="stroke:#181818;stroke-width:1;stroke-linejoin:miter;stroke-miterlimit:10;"/><text x="622.604" y="256.028" fill="#000" font-size="13" textLength="71.145">retry 1 раз</text><polygon points="626.604,299.227,616.604,303.227,626.604,307.227,622.604,303.227" fill="#181818" style="stroke:#181818;stroke-width:1;stroke-linejoin:miter;stroke-miterlimit:10;"/><line x1="620.604" y1="303.227" x2="711.05" y2="303.227" style="stroke:#181818;stroke-width:1;stroke-dasharray:2,2;"/><text x="632.604" y="298.161" fill="#000" font-size="13" textLength="72.446">&lt;timeout></text><polygon points="458.595,328.359,448.595,332.359,458.595,336.359,454.595,332.359" fill="#181818" style="stroke:#181818;stroke-width:1;stroke-linejoin:miter;stroke-miterlimit:10;"/><line x1="452.595" y1="332.359" x2="614.604" y2="332.359" style="stroke:#181818;stroke-width:1;stroke-dasharray:2,2;"/><text x="464.595" y="327.293" fill="#000" font-size="13" textLength="144.009">504 Gateway Timeout</text><polygon points="285.818,357.492,275.818,361.492,285.818,365.492,281.818,361.492" fill="#181818" style="stroke:#181818;stroke-width:1;stroke-linejoin:miter;stroke-miterlimit:10;"/><line x1="279.818" y1="361.492" x2="446.595" y2="361.492" style="stroke:#181818;stroke-width:1;stroke-dasharray:2,2;"/><text x="291.818" y="356.426" fill="#000" font-size="13" textLength="24.813">504</text><polygon points="39.955,386.625,29.955,390.625,39.955,394.625,35.955,390.625" fill="#181818" style="stroke:#181818;stroke-width:1;stroke-linejoin:miter;stroke-miterlimit:10;"/><line x1="33.955" y1="390.625" x2="273.818" y2="390.625" style="stroke:#181818;stroke-width:1;stroke-dasharray:2,2;"/><text x="45.955" y="385.559" fill="#000" font-size="13" textLength="221.863">"Платежный шлюз не отвечает"</text><?plantuml-src XL31Qi905BplLpoyYotOIoXUSkZH1VK35jb3e9gmhcXkcek5GZ-X_OKGI4CHzHTc_wWlSMtCgSStCs_Up5Dp6nkQhRGHYJ8scaU9MbeANoEzj1teHLczKMa7aoRUTf5G2b6xKN_aJGB29ouu8dSPSd45QzeR1YJ7aoaD4fKkc5aDaiRKixMmkS8s5N9St0vdjnSDrXoHp1JkdTap2X5AwhShppPQw7XjHwtUCqPRaz8ZiLsEwh-r-xHF3yFRGDEhhWrxrvfrVsKPhfyIK0zV_XCbld7Ys3_atd1q7wW89vJ4xJ8KADs1WvKkw_q2?></g></svg>