<svg xmlns="http://www.w3.org/2000/svg" xmlns:xlink="http://www.w3.org/1999/xlink" version="1.1" data-diagram-type="SEQUENCE" style="width:1097px;height:1488px;background:#FFFFFF;" width="1097px" height="1488px" viewBox="0 0 1097 1488" zoomAndPan="magnify" preserveAspectRatio="none" contentStyleType="text/css"><?plantuml 1.2026.7beta8?><defs/><g font-family="sans-serif" lengthAdjust="spacing"><g class="title" data-source-line="1"><text x="337.73" y="27.995" fill="#000" font-size="14" textLength="420.267" font-weight="700">Сценарий: Синхронизация тренировки с Garmin API</text></g><g><title>............</title><rect x="80.05" y="123.594" width="8" height="1277.391" fill="#000" fill-opacity="0"/><line x1="83.55" y1="123.594" x2="83.55" y2="1400.984" style="stroke:#181818;stroke-width:0.5;stroke-dasharray:5,5;"/></g><g><title>......... ..........</title><rect x="332.648" y="123.594" width="8" height="1277.391" fill="#000" fill-opacity="0"/><line x1="336.148" y1="123.594" x2="336.148" y2="1400.984" style="stroke:#181818;stroke-width:0.5;stroke-dasharray:5,5;"/></g><g><title></title><rect x="331.148" y="210.992" width="10" height="587.922" fill="#FFF" style="stroke:#181818;stroke-width:1;"/></g><g><title>FitCommunity Monolith</title><rect x="592.612" y="123.594" width="8" height="1277.391" fill="#000" fill-opacity="0"/><line x1="596.112" y1="123.594" x2="596.112" y2="1400.984" style="stroke:#181818;stroke-width:0.5;stroke-dasharray:5,5;"/></g><g><title></title><rect x="591.112" y="255.258" width="10" height="499.391" fill="#FFF" style="stroke:#181818;stroke-width:1;"/></g><g><title>PostgreSQL</title><rect x="875.332" y="123.594" width="8" height="1277.391" fill="#000" fill-opacity="0"/><line x1="878.832" y1="123.594" x2="878.832" y2="1400.984" style="stroke:#181818;stroke-width:0.5;stroke-dasharray:5,5;"/></g><g><title></title><rect x="873.832" y="624.117" width="10" height="29.133" fill="#FFF" style="stroke:#181818;stroke-width:1;"/></g><g><title>Garmin Connect API</title><rect x="1005.968" y="123.594" width="8" height="1277.391" fill="#000" fill-opacity="0"/><line x1="1009.468" y1="123.594" x2="1009.468" y2="1400.984" style="stroke:#181818;stroke-width:0.5;stroke-dasharray:5,5;"/></g><g><title></title><rect x="1004.468" y="342.656" width="10" height="90.531" fill="#FFF" style="stroke:#181818;stroke-width:1;"/></g><text x="29" y="120.292" fill="#000" font-size="14" textLength="103.1">Пользователь</text><ellipse cx="83.55" cy="55.797" rx="8" ry="8" fill="#E2E2F0" style="stroke:#181818;stroke-width:0.5;"/><path d="M83.55,63.797 L83.55,90.797 M70.55,71.797 L96.55,71.797 M83.55,90.797 L70.55,105.797 M83.55,90.797 L96.55,105.797" style="stroke:#181818;stroke-width:0.5;" fill="none"/><rect x="239.597" y="76" width="193.102" height="46.594" fill="#E2E2F0" style="stroke:#181818;stroke-width:0.5;" rx="2.5" ry="2.5"/><text x="246.597" y="95.995" fill="#000" font-size="14" textLength="179.102">Мобильное приложение</text><text x="286.919" y="112.292" fill="#000" font-size="14" textLength="98.458">FitCommunity</text><rect x="507.545" y="76" width="177.133" height="46.594" fill="#E2E2F0" style="stroke:#181818;stroke-width:0.5;" rx="2.5" ry="2.5"/><text x="514.545" y="95.995" fill="#000" font-size="14" textLength="163.133">FitCommunity Monolith</text><text x="560.469" y="112.292" fill="#000" font-size="14" textLength="71.285">(Backend)</text><text x="835.455" y="120.292" fill="#000" font-size="14" textLength="80.753">PostgreSQL</text><path d="M860.832,71.297 C860.832,61.297 878.832,61.297 878.832,61.297 C878.832,61.297 896.832,61.297 896.832,71.297 L896.832,97.297 C896.832,107.297 878.832,107.297 878.832,107.297 C878.832,107.297 860.832,107.297 860.832,97.297 L860.832,71.297" style="stroke:#181818;stroke-width:0.5;" fill="#E2E2F0"/><path d="M860.832,71.297 C860.832,81.297 878.832,81.297 878.832,81.297 C878.832,81.297 896.832,81.297 896.832,71.297" style="stroke:#181818;stroke-width:0.5;" fill="none"/><rect x="932.208" y="92.297" width="154.52" height="30.297" fill="#E2E2F0" style="stroke:#181818;stroke-width:0.5;" rx="2.5" ry="2.5"/><text x="939.208" y="112.292" fill="#000" font-size="14" textLength="140.52">Garmin Connect API</text><text x="29" y="1413.979" fill="#000" font-size="14" textLength="103.1">Пользователь</text><ellipse cx="83.55" cy="1425.781" rx="8" ry="8" fill="#E2E2F0" style="stroke:#181818;stroke-width:0.5;"/><path d="M83.55,1433.781 L83.55,1460.781 M70.55,1441.781 L96.55,1441.781 M83.55,1460.781 L70.55,1475.781 M83.55,1460.781 L96.55,1475.781" style="stroke:#181818;stroke-width:0.5;" fill="none"/><rect x="239.597" y="1400.984" width="193.102" height="46.594" fill="#E2E2F0" style="stroke:#181818;stroke-width:0.5;" rx="2.5" ry="2.5"/><text x="246.597" y="1420.979" fill="#000" font-size="14" textLength="179.102">Мобильное приложение</text><text x="286.919" y="1437.276" fill="#000" font-size="14" textLength="98.458">FitCommunity</text><rect x="507.545" y="1400.984" width="177.133" height="46.594" fill="#E2E2F0" style="stroke:#181818;stroke-width:0.5;" rx="2.5" ry="2.5"/><text x="514.545" y="1420.979" fill="#000" font-size="14" textLength="163.133">FitCommunity Monolith</text><text x="560.469" y="1437.276" fill="#000" font-size="14" textLength="71.285">(Backend)</text><text x="835.455" y="1413.979" fill="#000" font-size="14" textLength="80.753">PostgreSQL</text><path d="M860.832,1427.281 C860.832,1417.281 878.832,1417.281 878.832,1417.281 C878.832,1417.281 896.832,1417.281 896.832,1427.281 L896.832,1453.281 C896.832,1463.281 878.832,1463.281 878.832,1463.281 C878.832,1463.281 860.832,1463.281 860.832,1453.281 L860.832,1427.281" style="stroke:#181818;stroke-width:0.5;" fill="#E2E2F0"/><path d="M860.832,1427.281 C860.832,1437.281 878.832,1437.281 878.832,1437.281 C878.832,1437.281 896.832,1437.281 896.832,1427.281" style="stroke:#181818;stroke-width:0.5;" fill="none"/><rect x="932.208" y="1400.984" width="154.52" height="30.297" fill="#E2E2F0" style="stroke:#181818;stroke-width:0.5;" rx="2.5" ry="2.5"/><text x="939.208" y="1420.979" fill="#000" font-size="14" textLength="140.52">Garmin Connect API</text><rect x="10" y="152.16" width="1076.728" height="3" fill="#EEE" style="stroke:#EEE;stroke-width:1;"/><line x1="10" y1="152.16" x2="1086.728" y2="152.16" style="stroke:#000;stroke-width:1;"/><line x1="10" y1="155.16" x2="1086.728" y2="155.16" style="stroke:#000;stroke-width:1;"/><rect x="410.243" y="141.594" width="276.241" height="23.133" fill="#EEE" style="stroke:#000;stroke-width:2;"/><text x="416.243" y="157.661" fill="#000" font-size="13" textLength="257.715" font-weight="700">Шаг 1: Инициация синхронизации</text><polygon points="319.148,206.992,329.148,210.992,319.148,214.992,323.148,210.992" fill="#181818" style="stroke:#181818;stroke-width:1;stroke-linejoin:miter;stroke-miterlimit:10;"/><line x1="83.55" y1="210.992" x2="325.148" y2="210.992" style="stroke:#181818;stroke-width:1;"/><text x="102.019" y="190.793" fill="#000" font-size="13" textLength="210.66">Нажимает "Синхронизировать</text><text x="174.77" y="205.926" fill="#000" font-size="13" textLength="65.159">с Garmin"</text><polygon points="579.112,251.258,589.112,255.258,579.112,259.258,583.112,255.258" fill="#181818" style="stroke:#181818;stroke-width:1;stroke-linejoin:miter;stroke-miterlimit:10;"/><line x1="341.148" y1="255.258" x2="585.112" y2="255.258" style="stroke:#181818;stroke-width:1;"/><text x="392.481" y="235.059" fill="#000" font-size="13" textLength="147.297">POST /api/sync/garmin</text><text x="382.674" y="250.192" fill="#000" font-size="13" textLength="166.912">{ user_id, access_token }</text><rect x="10" y="283.824" width="1076.728" height="3" fill="#EEE" style="stroke:#EEE;stroke-width:1;"/><line x1="10" y1="283.824" x2="1086.728" y2="283.824" style="stroke:#000;stroke-width:1;"/><line x1="10" y1="286.824" x2="1086.728" y2="286.824" style="stroke:#000;stroke-width:1;"/><rect x="418.905" y="273.258" width="258.918" height="23.133" fill="#EEE" style="stroke:#000;stroke-width:2;"/><text x="424.905" y="289.325" fill="#000" font-size="13" textLength="240.392" font-weight="700">Шаг 2: Запрос данных у Garmin</text><polygon points="992.468,338.656,1002.468,342.656,992.468,346.656,996.468,342.656" fill="#181818" style="stroke:#181818;stroke-width:1;stroke-linejoin:miter;stroke-miterlimit:10;"/><line x1="601.112" y1="342.656" x2="998.468" y2="342.656" style="stroke:#181818;stroke-width:1;"/><text x="728.786" y="322.458" fill="#000" font-size="13" textLength="148.008">GET /oauth/activity/list</text><text x="705.886" y="337.59" fill="#000" font-size="13" textLength="193.807">{ access_token, date_range }</text><path d="M13,354.656 L77.443,354.656 L77.443,361.789 L67.443,371.789 L13,371.789 L13,354.656" style="stroke:#000;stroke-width:1.5;" fill="#EEE"/><rect x="13" y="354.656" width="1012.468" height="941.797" fill="none" style="stroke:#000;stroke-width:1.5;"/><text x="28" y="367.723" fill="#000" font-size="13" textLength="19.443" font-weight="700">alt</text><text x="92.443" y="366.867" fill="#000" font-size="11" textLength="186.076" font-weight="700">[Данные получены успешно]</text><line x1="13" y1="817.914" x2="1025.468" y2="817.914" style="stroke:#000;stroke-width:1;stroke-dasharray:2,2;"/><text x="18" y="830.125" fill="#000" font-size="11" textLength="202.034" font-weight="700">[Ошибка авторизации / токена]</text><line x1="13" y1="981.516" x2="1025.468" y2="981.516" style="stroke:#000;stroke-width:1;stroke-dasharray:2,2;"/><text x="18" y="993.726" fill="#000" font-size="11" textLength="217.271" font-weight="700">[Таймаут / недоступность Garmin]</text><polygon points="612.112,429.188,602.112,433.188,612.112,437.188,608.112,433.188" fill="#181818" style="stroke:#181818;stroke-width:1;stroke-linejoin:miter;stroke-miterlimit:10;"/><line x1="606.112" y1="433.188" x2="1003.468" y2="433.188" style="stroke:#181818;stroke-width:1;stroke-dasharray:2,2;"/><text x="778.938" y="397.856" fill="#000" font-size="13" textLength="47.703">200 OK</text><text x="706.642" y="412.989" fill="#000" font-size="13" textLength="192.296">[ { activity_id, type, duration,</text><text x="720.61" y="428.122" fill="#000" font-size="13" textLength="168.492">calories, heart_rate, ... } ]</text><rect x="10" y="461.754" width="1076.728" height="3" fill="#EEE" style="stroke:#EEE;stroke-width:1;"/><line x1="10" y1="461.754" x2="1086.728" y2="461.754" style="stroke:#000;stroke-width:1;"/><line x1="10" y1="464.754" x2="1086.728" y2="464.754" style="stroke:#000;stroke-width:1;"/><rect x="417.984" y="451.188" width="260.759" height="23.133" fill="#EEE" style="stroke:#000;stroke-width:2;"/><text x="423.984" y="467.254" fill="#000" font-size="13" textLength="242.233" font-weight="700">Шаг 3: Обработка и сохранение</text><line x1="601.112" y1="520.586" x2="643.112" y2="520.586" style="stroke:#181818;stroke-width:1;"/><line x1="643.112" y1="520.586" x2="643.112" y2="533.586" style="stroke:#181818;stroke-width:1;"/><line x1="602.112" y1="533.586" x2="643.112" y2="533.586" style="stroke:#181818;stroke-width:1;"/><polygon points="612.112,529.586,602.112,533.586,612.112,537.586,608.112,533.586" fill="#181818" style="stroke:#181818;stroke-width:1;stroke-linejoin:miter;stroke-miterlimit:10;"/><text x="661.696" y="500.387" fill="#000" font-size="13" textLength="156.552">Нормализация данных</text><text x="608.112" y="515.52" fill="#000" font-size="13" textLength="263.72">(приведение к внутреннему формату)</text><path d="M580.112,545.586 L656.736,545.586 L656.736,552.719 L646.736,562.719 L580.112,562.719 L580.112,545.586" style="stroke:#000;stroke-width:1.5;" fill="#EEE"/><rect x="580.112" y="545.586" width="319.72" height="115.664" fill="none" style="stroke:#000;stroke-width:1.5;"/><text x="595.112" y="558.653" fill="#000" font-size="13" textLength="31.624" font-weight="700">loop</text><text x="671.736" y="557.796" fill="#000" font-size="11" textLength="167.197" font-weight="700">[Для каждой тренировки]</text><polygon points="861.832,620.117,871.832,624.117,861.832,628.117,865.832,624.117" fill="#181818" style="stroke:#181818;stroke-width:1;stroke-linejoin:miter;stroke-miterlimit:10;"/><line x1="601.112" y1="624.117" x2="867.832" y2="624.117" style="stroke:#181818;stroke-width:1;"/><text x="665.407" y="588.786" fill="#000" font-size="13" textLength="144.13">INSERT INTO trainings</text><text x="648.573" y="603.918" fill="#000" font-size="13" textLength="177.798">(user_id, type, duration, ...)</text><text x="676.833" y="619.051" fill="#000" font-size="13" textLength="121.278">ON CONFLICT SKIP</text><polygon points="612.112,649.25,602.112,653.25,612.112,657.25,608.112,653.25" fill="#181818" style="stroke:#181818;stroke-width:1;stroke-linejoin:miter;stroke-miterlimit:10;"/><line x1="606.112" y1="653.25" x2="872.832" y2="653.25" style="stroke:#181818;stroke-width:1;stroke-dasharray:2,2;"/><text x="614.74" y="648.184" fill="#000" font-size="13" textLength="245.464">ID новой записи / ID существующей</text><rect x="10" y="695.816" width="1076.728" height="3" fill="#EEE" style="stroke:#EEE;stroke-width:1;"/><line x1="10" y1="695.816" x2="1086.728" y2="695.816" style="stroke:#000;stroke-width:1;"/><line x1="10" y1="698.816" x2="1086.728" y2="698.816" style="stroke:#000;stroke-width:1;"/><rect x="433.971" y="685.25" width="228.786" height="23.133" fill="#EEE" style="stroke:#000;stroke-width:2;"/><text x="439.971" y="701.317" fill="#000" font-size="13" textLength="210.26" font-weight="700">Шаг 4: Ответ пользователю</text><polygon points="352.148,750.648,342.148,754.648,352.148,758.648,348.148,754.648" fill="#181818" style="stroke:#181818;stroke-width:1;stroke-linejoin:miter;stroke-miterlimit:10;"/><line x1="346.148" y1="754.648" x2="590.112" y2="754.648" style="stroke:#181818;stroke-width:1;stroke-dasharray:2,2;"/><text x="442.279" y="734.45" fill="#000" font-size="13" textLength="47.703">200 OK</text><text x="353.148" y="749.583" fill="#000" font-size="13" textLength="225.964">{ synced_count: 3, new_count: 2 }</text><polygon points="94.55,794.914,84.55,798.914,94.55,802.914,90.55,798.914" fill="#181818" style="stroke:#181818;stroke-width:1;stroke-linejoin:miter;stroke-miterlimit:10;"/><line x1="88.55" y1="798.914" x2="330.148" y2="798.914" style="stroke:#181818;stroke-width:1;stroke-dasharray:2,2;"/><text x="136.909" y="778.715" fill="#000" font-size="13" textLength="140.88">"Синхронизировано:</text><text x="126.166" y="793.848" fill="#000" font-size="13" textLength="162.367">3 тренировки, 2 новые"</text><polygon points="607.112,869.984,597.112,873.984,607.112,877.984,603.112,873.984" fill="#181818" style="stroke:#181818;stroke-width:1;stroke-linejoin:miter;stroke-miterlimit:10;"/><line x1="601.112" y1="873.984" x2="1008.468" y2="873.984" style="stroke:#181818;stroke-width:1;stroke-dasharray:2,2;"/><text x="744.677" y="853.786" fill="#000" font-size="13" textLength="116.226">401 Unauthorized</text><text x="717.925" y="868.918" fill="#000" font-size="13" textLength="169.73">{ error: "token_expired" }</text><polygon points="347.148,914.25,337.148,918.25,347.148,922.25,343.148,918.25" fill="#181818" style="stroke:#181818;stroke-width:1;stroke-linejoin:miter;stroke-miterlimit:10;"/><line x1="341.148" y1="918.25" x2="595.112" y2="918.25" style="stroke:#181818;stroke-width:1;stroke-dasharray:2,2;"/><text x="453.723" y="898.051" fill="#000" font-size="13" textLength="24.813">401</text><text x="375.285" y="913.184" fill="#000" font-size="13" textLength="181.689">{ error: "reauth_required" }</text><polygon points="94.55,958.516,84.55,962.516,94.55,966.516,90.55,962.516" fill="#181818" style="stroke:#181818;stroke-width:1;stroke-linejoin:miter;stroke-miterlimit:10;"/><line x1="88.55" y1="962.516" x2="335.148" y2="962.516" style="stroke:#181818;stroke-width:1;stroke-dasharray:2,2;"/><text x="133.483" y="942.317" fill="#000" font-size="13" textLength="152.731">"Требуется повторная</text><text x="136.917" y="957.45" fill="#000" font-size="13" textLength="145.863">авторизация Garmin"</text><polygon points="607.112,1018.453,597.112,1022.453,607.112,1026.453,603.112,1022.453" fill="#181818" style="stroke:#181818;stroke-width:1;stroke-linejoin:miter;stroke-miterlimit:10;"/><line x1="601.112" y1="1022.453" x2="1008.468" y2="1022.453" style="stroke:#181818;stroke-width:1;stroke-dasharray:2,2;"/><text x="766.567" y="1017.387" fill="#000" font-size="13" textLength="72.446">&lt;timeout></text><line x1="596.112" y1="1066.719" x2="638.112" y2="1066.719" style="stroke:#181818;stroke-width:1;"/><line x1="638.112" y1="1066.719" x2="638.112" y2="1079.719" style="stroke:#181818;stroke-width:1;"/><line x1="597.112" y1="1079.719" x2="638.112" y2="1079.719" style="stroke:#181818;stroke-width:1;"/><polygon points="607.112,1075.719,597.112,1079.719,607.112,1083.719,603.112,1079.719" fill="#181818" style="stroke:#181818;stroke-width:1;stroke-linejoin:miter;stroke-miterlimit:10;"/><text x="612.697" y="1046.52" fill="#000" font-size="13" textLength="202.046">Повторная попытка (retry x2)</text><text x="603.112" y="1061.653" fill="#000" font-size="13" textLength="221.216">с экспоненциальной задержкой</text><path d="M67.55,1091.719 L131.993,1091.719 L131.993,1098.852 L121.993,1108.852 L67.55,1108.852 L67.55,1091.719" style="stroke:#000;stroke-width:1.5;" fill="#EEE"/><rect x="67.55" y="1091.719" width="544.562" height="190.734" fill="none" style="stroke:#000;stroke-width:1.5;"/><text x="82.55" y="1104.786" fill="#000" font-size="13" textLength="19.443" font-weight="700">alt</text><text x="146.993" y="1103.929" fill="#000" font-size="11" textLength="168.33" font-weight="700">[После повторов --- успех]</text><line x1="67.55" y1="1158.984" x2="612.112" y2="1158.984" style="stroke:#000;stroke-width:1;stroke-dasharray:2,2;"/><text x="72.55" y="1171.195" fill="#000" font-size="11" textLength="182" font-weight="700">[После повторов --- ошибка]</text><polygon points="347.148,1135.984,337.148,1139.984,347.148,1143.984,343.148,1139.984" fill="#181818" style="stroke:#181818;stroke-width:1;stroke-linejoin:miter;stroke-miterlimit:10;"/><line x1="341.148" y1="1139.984" x2="595.112" y2="1139.984" style="stroke:#181818;stroke-width:1;stroke-dasharray:2,2;"/><text x="391.459" y="1134.918" fill="#000" font-size="13" textLength="149.341">200 OK (с задержкой)</text><polygon points="347.148,1226.188,337.148,1230.188,347.148,1234.188,343.148,1230.188" fill="#181818" style="stroke:#181818;stroke-width:1;stroke-linejoin:miter;stroke-miterlimit:10;"/><line x1="341.148" y1="1230.188" x2="595.112" y2="1230.188" style="stroke:#181818;stroke-width:1;stroke-dasharray:2,2;"/><text x="453.723" y="1194.856" fill="#000" font-size="13" textLength="24.813">503</text><text x="367.522" y="1209.989" fill="#000" font-size="13" textLength="197.215">{ error: "service_unavailable",</text><text x="410.851" y="1225.122" fill="#000" font-size="13" textLength="114.689">retry_after: 300 }</text><polygon points="94.55,1270.453,84.55,1274.453,94.55,1278.453,90.55,1274.453" fill="#181818" style="stroke:#181818;stroke-width:1;stroke-linejoin:miter;stroke-miterlimit:10;"/><line x1="88.55" y1="1274.453" x2="335.148" y2="1274.453" style="stroke:#181818;stroke-width:1;stroke-dasharray:2,2;"/><text x="121.15" y="1254.254" fill="#000" font-size="13" textLength="177.398">"Сервис Garmin временно</text><text x="95.55" y="1269.387" fill="#000" font-size="13" textLength="228.598">недоступен. Попробуйте позже."</text><path d="M601.112,1315.453 L601.112,1385.453 L915.112,1385.453 L915.112,1325.453 L905.112,1315.453 L601.112,1315.453" style="stroke:#181818;stroke-width:0.5;" fill="#FEFFDD"/><path d="M905.112,1315.453 L905.112,1325.453 L915.112,1325.453 L905.112,1315.453" style="stroke:#181818;stroke-width:0.5;" fill="#FEFFDD"/><text x="607.112" y="1332.52" fill="#000" font-size="13" textLength="172.104">Механизмы надёжности:</text><text x="607.112" y="1347.653" fill="#000" font-size="13" textLength="282.928">• Idempotency key предотвращает дубли</text><text x="607.112" y="1362.786" fill="#000" font-size="13" textLength="293.49">• Локальный кеш токенов с шифрованием</text><text x="607.112" y="1377.918" fill="#000" font-size="13" textLength="284.718">• Логирование всех запросов для аудита</text><?plantuml-src ZLPTJnj757tthnZv2II32QGlLeaK88ci940BUQehQrXFp8hrhBix9d4Zf00XJHKQLAbIA_K3bQS-6WU83TZyXTc_q5_ISsTtpVe3KXxmpkpC_JZtt7DNsSeHJFyTlDMdkgCRmMlTqkqSTl3R2VQmxcA_fJ_XtLlT2WvOi8DDEjmoBvlwNBTOiCqUSQzYItP_EPzA-Hksh7AFLvWllgi9QOcdmlTvMTntxB9abf1AU8bJ-AziowvogLPK7H5vmb9SbciEzr8fRYdNOsbz27SNmJvY8RUDO0TXO9rct6VFV1XCcC7nFt3i6A7JbGwUJvc-ClbTO74Mfg1F2_AXhURTIgKcRLKtjfwwQxOZ-gqb3-60T1rRhHVas1otDeGiZPkBqI9LueglSL-mzBBhgx8dLhvwOWuipFLRZJ2RTwL4meITEHPkfrApiqp_enlw8xk3alncC4SHhaknFRfAACZiR8eWOHFtedGOBFm9MsTuVOdVqs0760sNEQugu0ts2x9Ns3ILmTxaIiJuH7RX8SeRBfQNLbPPbbVjh5-NLhPihXRaArP3C4Mxb67Sia25ed9nWsrT6usnIoGzZP1_nHDLhOj0z0aM7SJxFjXZmMxCEAGQ1u1OeiqSU_G0aRYyfjQpnWaAbtLiNr4qoI0o3EKIHGzq4yc0uY9mHp7zI-pPiCZmS3VuWJWKl4SeACGL47r7F4in_4LHJFI1CpqrnPOU5-GtZ288GpAOg7fL88oQnvNjoam17S8TrxE5ds7h0eH1T0ed9YSdsHRxrdWeYQ58QViQlHcWzvS-1dODj44NtNAk6ypqAbPxPhyJTm61IDSJG5x73TvqSPnOSz4d1Sc2e1UYzch2w4dFi3vdsEa0erWtoEaboXUyYStYrUwuyU-uRfNGlY3hvuQk9q2xFL9rp8s1g1Vc471-SUN1rwluMLrYokEsj6NPHu0z4Wu0Ji2E5-JI8fjVMdpu93-_obOUvvTxzdj8et_ZFJZghsv-WHcPQPfu2ILmeaKjohBqCjW61Z-29TieHHFF7sYbspsBYOf6Vam_z5VrBbML39W6ZgWuA8aVXigPb86OXgyOzQWe5Ist9bMEpMIO52_YrJHwOI2gk4LfEsv-63OwaxjTJ0YPN47EZAnZ1iv2wAY_qeDk8xb92GUAYkJVmVHnIEO6hkmO5YMrByje4oVCIBkv7-zEtM7F92a4UkrxKI98XEUv7f8nqb0KBwks9qhfOIoYdhiHPDXEclC4kIbwc8Ot6FmSk4S6j-DWbmeF3Xs4nO_pfzbzK92Z4C7HMC9lHVO8bzkc7T6h0D4qwWafB_Kdl7MYv_razYEH_LBP5U7MrBt_0rkVr1mEvXIcUGM92GLip1FAgxENq-DcE0K_wNEZljrGpCBvs9lvKID2Zc3l30QwKSCPLJ-aXA1ff_rOuWdvJ5ph-jwmqWmt51kZ4JNaBTIr4E7F-CEYn-tRFNunDPDa5pYoQLkYM9DyaziENtD4cgQ8WQh8d-DZ2-sDABTwPaVtByNT9D6AoueOYNQNaN1tmR11Lk3DP5WtCwSDHTiaH66Id-XJQpBTqpEZQT855poxlAwO-xoF-lXg0zv6C8Z0bnYln0Dz4lmCGn43TIjd3l_x-eZbIw9IXJbfrTc6g8VVU664EoRw1cGs_Do1aLsWUn5D3hgjVpT24H46yjEciOD9dfGGgWzH3SK9tYGKhKN8z9lws2TvPlurKNAa54s4y5F6c4ICPioXt_3OWiC6eSC8dFy0?></g></svg>