<svg xmlns="http://www.w3.org/2000/svg" xmlns:xlink="http://www.w3.org/1999/xlink" version="1.1" data-diagram-type="DESCRIPTION" style="width:1669px;height:615px;background:#FFFFFF;" width="1669px" height="615px" viewBox="0 0 1669 615" zoomAndPan="magnify" preserveAspectRatio="none" contentStyleType="text/css"><?plantuml 1.2026.7beta8?><defs/><g font-family="sans-serif" lengthAdjust="spacing"><g class="title" data-source-line="1"><text x="590.82" y="22.995" fill="#000" font-size="14" textLength="480.97" font-weight="700">FitCommunity Monolith - компоненты с Generated API Layer</text></g><!--cluster Generated API Layer (OpenAPI stub)--><g class="cluster" data-qualified-name="Generated API Layer .OpenAPI stub." id="ent0001" data-source-line="3"><path d="M18.11,138.827 L307.313,138.827 A3.75,3.75 0 0 1 309.813,141.327 L316.813,161.124 L1652.11,161.124 A2.5,2.5 0 0 1 1654.61,163.624 L1654.61,233.627 A2.5,2.5 0 0 1 1652.11,236.127 L18.11,236.127 A2.5,2.5 0 0 1 15.61,233.627 L15.61,141.327 A2.5,2.5 0 0 1 18.11,138.827" style="stroke:#000;stroke-width:1.5;" fill="none"/><line x1="15.61" y1="161.124" x2="316.813" y2="161.124" style="stroke:#000;stroke-width:1.5;"/><text x="19.61" y="153.822" fill="#000" font-size="14" textLength="288.203" font-weight="700">Generated API Layer (OpenAPI stub)</text></g><!--cluster Application Layer--><g class="cluster" data-qualified-name="Application Layer" id="ent0009" data-source-line="13"><path d="M115.11,260.127 L254.175,260.127 A3.75,3.75 0 0 1 256.675,262.627 L263.675,282.424 L1061.11,282.424 A2.5,2.5 0 0 1 1063.61,284.924 L1063.61,354.927 A2.5,2.5 0 0 1 1061.11,357.427 L115.11,357.427 A2.5,2.5 0 0 1 112.61,354.927 L112.61,262.627 A2.5,2.5 0 0 1 115.11,260.127" style="stroke:#000;stroke-width:1.5;" fill="none"/><line x1="112.61" y1="282.424" x2="263.675" y2="282.424" style="stroke:#000;stroke-width:1.5;"/><text x="116.61" y="275.122" fill="#000" font-size="14" textLength="138.065" font-weight="700">Application Layer</text></g><!--cluster Domain Layer--><g class="cluster" data-qualified-name="Domain Layer" id="ent0015" data-source-line="21"><path d="M81.11,381.427 L190.918,381.427 A3.75,3.75 0 0 1 193.418,383.927 L200.418,403.724 L651.11,403.724 A2.5,2.5 0 0 1 653.61,406.224 L653.61,476.217 A2.5,2.5 0 0 1 651.11,478.717 L81.11,478.717 A2.5,2.5 0 0 1 78.61,476.217 L78.61,383.927 A2.5,2.5 0 0 1 81.11,381.427" style="stroke:#000;stroke-width:1.5;" fill="none"/><line x1="78.61" y1="403.724" x2="200.418" y2="403.724" style="stroke:#000;stroke-width:1.5;"/><text x="82.61" y="396.422" fill="#000" font-size="14" textLength="108.808" font-weight="700">Domain Layer</text></g><!--cluster Data Layer--><g class="cluster" data-qualified-name="Data Layer" id="ent0019" data-source-line="27"><path d="M353.11,502.717 L440.086,502.717 A3.75,3.75 0 0 1 442.586,505.217 L449.586,525.014 L506.11,525.014 A2.5,2.5 0 0 1 508.61,527.514 L508.61,597.517 A2.5,2.5 0 0 1 506.11,600.017 L353.11,600.017 A2.5,2.5 0 0 1 350.61,597.517 L350.61,505.217 A2.5,2.5 0 0 1 353.11,502.717" style="stroke:#000;stroke-width:1.5;" fill="none"/><line x1="350.61" y1="525.014" x2="449.586" y2="525.014" style="stroke:#000;stroke-width:1.5;"/><text x="354.61" y="517.712" fill="#000" font-size="14" textLength="85.976" font-weight="700">Data Layer</text></g><!--entity UserCtrl--><g class="entity" data-qualified-name="Generated API Layer .OpenAPI stub..UserCtrl" id="ent0002" data-source-line="4"><rect x="31.54" y="173.827" width="172.132" height="46.297" fill="#F1F1F1" style="stroke:#181818;stroke-width:0.5;" rx="2.5" ry="2.5"/><rect x="183.672" y="178.827" width="15" height="10" fill="#F1F1F1" style="stroke:#181818;stroke-width:0.5;"/><rect x="181.672" y="180.827" width="4" height="2" fill="#F1F1F1" style="stroke:#181818;stroke-width:0.5;"/><rect x="181.672" y="184.827" width="4" height="2" fill="#F1F1F1" style="stroke:#181818;stroke-width:0.5;"/><text x="46.54" y="206.822" fill="#000" font-size="14" textLength="132.132">User API Controller</text></g><!--entity TrainCtrl--><g class="entity" data-qualified-name="Generated API Layer .OpenAPI stub..TrainCtrl" id="ent0003" data-source-line="5"><rect x="443.85" y="173.827" width="197.521" height="46.297" fill="#F1F1F1" style="stroke:#181818;stroke-width:0.5;" rx="2.5" ry="2.5"/><rect x="621.371" y="178.827" width="15" height="10" fill="#F1F1F1" style="stroke:#181818;stroke-width:0.5;"/><rect x="619.371" y="180.827" width="4" height="2" fill="#F1F1F1" style="stroke:#181818;stroke-width:0.5;"/><rect x="619.371" y="184.827" width="4" height="2" fill="#F1F1F1" style="stroke:#181818;stroke-width:0.5;"/><text x="458.85" y="206.822" fill="#000" font-size="14" textLength="157.521">Training API Controller</text></g><!--entity PostCtrl--><g class="entity" data-qualified-name="Generated API Layer .OpenAPI stub..PostCtrl" id="ent0004" data-source-line="6"><rect x="238.6" y="173.827" width="170.013" height="46.297" fill="#F1F1F1" style="stroke:#181818;stroke-width:0.5;" rx="2.5" ry="2.5"/><rect x="388.613" y="178.827" width="15" height="10" fill="#F1F1F1" style="stroke:#181818;stroke-width:0.5;"/><rect x="386.613" y="180.827" width="4" height="2" fill="#F1F1F1" style="stroke:#181818;stroke-width:0.5;"/><rect x="386.613" y="184.827" width="4" height="2" fill="#F1F1F1" style="stroke:#181818;stroke-width:0.5;"/><text x="253.6" y="206.822" fill="#000" font-size="14" textLength="130.013">Post API Controller</text></g><!--entity GroupCtrl--><g class="entity" data-qualified-name="Generated API Layer .OpenAPI stub..GroupCtrl" id="ent0005" data-source-line="7"><rect x="676.03" y="173.827" width="183.151" height="46.297" fill="#F1F1F1" style="stroke:#181818;stroke-width:0.5;" rx="2.5" ry="2.5"/><rect x="839.181" y="178.827" width="15" height="10" fill="#F1F1F1" style="stroke:#181818;stroke-width:0.5;"/><rect x="837.181" y="180.827" width="4" height="2" fill="#F1F1F1" style="stroke:#181818;stroke-width:0.5;"/><rect x="837.181" y="184.827" width="4" height="2" fill="#F1F1F1" style="stroke:#181818;stroke-width:0.5;"/><text x="691.03" y="206.822" fill="#000" font-size="14" textLength="143.151">Group API Controller</text></g><!--entity SubCtrl--><g class="entity" data-qualified-name="Generated API Layer .OpenAPI stub..SubCtrl" id="ent0006" data-source-line="8"><rect x="894.01" y="173.827" width="227.209" height="46.297" fill="#F1F1F1" style="stroke:#181818;stroke-width:0.5;" rx="2.5" ry="2.5"/><rect x="1101.219" y="178.827" width="15" height="10" fill="#F1F1F1" style="stroke:#181818;stroke-width:0.5;"/><rect x="1099.219" y="180.827" width="4" height="2" fill="#F1F1F1" style="stroke:#181818;stroke-width:0.5;"/><rect x="1099.219" y="184.827" width="4" height="2" fill="#F1F1F1" style="stroke:#181818;stroke-width:0.5;"/><text x="909.01" y="206.822" fill="#000" font-size="14" textLength="187.209">Subscription API Controller</text></g><!--entity RecCtrl--><g class="entity" data-qualified-name="Generated API Layer .OpenAPI stub..RecCtrl" id="ent0007" data-source-line="9"><rect x="1374.67" y="173.827" width="263.87" height="46.297" fill="#F1F1F1" style="stroke:#181818;stroke-width:0.5;" rx="2.5" ry="2.5"/><rect x="1618.54" y="178.827" width="15" height="10" fill="#F1F1F1" style="stroke:#181818;stroke-width:0.5;"/><rect x="1616.54" y="180.827" width="4" height="2" fill="#F1F1F1" style="stroke:#181818;stroke-width:0.5;"/><rect x="1616.54" y="184.827" width="4" height="2" fill="#F1F1F1" style="stroke:#181818;stroke-width:0.5;"/><text x="1389.67" y="206.822" fill="#000" font-size="14" textLength="223.87">Recommendation API Controller</text></g><!--entity BillCtrl--><g class="entity" data-qualified-name="Generated API Layer .OpenAPI stub..BillCtrl" id="ent0008" data-source-line="10"><rect x="1156.04" y="173.827" width="183.145" height="46.297" fill="#F1F1F1" style="stroke:#181818;stroke-width:0.5;" rx="2.5" ry="2.5"/><rect x="1319.185" y="178.827" width="15" height="10" fill="#F1F1F1" style="stroke:#181818;stroke-width:0.5;"/><rect x="1317.185" y="180.827" width="4" height="2" fill="#F1F1F1" style="stroke:#181818;stroke-width:0.5;"/><rect x="1317.185" y="184.827" width="4" height="2" fill="#F1F1F1" style="stroke:#181818;stroke-width:0.5;"/><text x="1171.04" y="206.822" fill="#000" font-size="14" textLength="143.145">Billing API Controller</text></g><!--entity AuthSvc--><g class="entity" data-qualified-name="Application Layer.AuthSvc" id="ent0010" data-source-line="14"><rect x="129.11" y="295.127" width="129.004" height="46.297" fill="#F1F1F1" style="stroke:#181818;stroke-width:0.5;" rx="2.5" ry="2.5"/><rect x="238.114" y="300.127" width="15" height="10" fill="#F1F1F1" style="stroke:#181818;stroke-width:0.5;"/><rect x="236.114" y="302.127" width="4" height="2" fill="#F1F1F1" style="stroke:#181818;stroke-width:0.5;"/><rect x="236.114" y="306.127" width="4" height="2" fill="#F1F1F1" style="stroke:#181818;stroke-width:0.5;"/><text x="144.11" y="328.122" fill="#000" font-size="14" textLength="89.004">Auth Service</text></g><!--entity TrainSvc--><g class="entity" data-qualified-name="Application Layer.TrainSvc" id="ent0011" data-source-line="15"><rect x="465.86" y="295.127" width="153.49" height="46.297" fill="#F1F1F1" style="stroke:#181818;stroke-width:0.5;" rx="2.5" ry="2.5"/><rect x="599.35" y="300.127" width="15" height="10" fill="#F1F1F1" style="stroke:#181818;stroke-width:0.5;"/><rect x="597.35" y="302.127" width="4" height="2" fill="#F1F1F1" style="stroke:#181818;stroke-width:0.5;"/><rect x="597.35" y="306.127" width="4" height="2" fill="#F1F1F1" style="stroke:#181818;stroke-width:0.5;"/><text x="480.86" y="328.122" fill="#000" font-size="14" textLength="113.49">Training Service</text></g><!--entity SocialSvc--><g class="entity" data-qualified-name="Application Layer.SocialSvc" id="ent0012" data-source-line="16"><rect x="292.76" y="295.127" width="137.699" height="46.297" fill="#F1F1F1" style="stroke:#181818;stroke-width:0.5;" rx="2.5" ry="2.5"/><rect x="410.459" y="300.127" width="15" height="10" fill="#F1F1F1" style="stroke:#181818;stroke-width:0.5;"/><rect x="408.459" y="302.127" width="4" height="2" fill="#F1F1F1" style="stroke:#181818;stroke-width:0.5;"/><rect x="408.459" y="306.127" width="4" height="2" fill="#F1F1F1" style="stroke:#181818;stroke-width:0.5;"/><text x="307.76" y="328.122" fill="#000" font-size="14" textLength="97.699">Social Service</text></g><!--entity BillSvc--><g class="entity" data-qualified-name="Application Layer.BillSvc" id="ent0013" data-source-line="17"><rect x="654.05" y="295.127" width="139.114" height="46.297" fill="#F1F1F1" style="stroke:#181818;stroke-width:0.5;" rx="2.5" ry="2.5"/><rect x="773.164" y="300.127" width="15" height="10" fill="#F1F1F1" style="stroke:#181818;stroke-width:0.5;"/><rect x="771.164" y="302.127" width="4" height="2" fill="#F1F1F1" style="stroke:#181818;stroke-width:0.5;"/><rect x="771.164" y="306.127" width="4" height="2" fill="#F1F1F1" style="stroke:#181818;stroke-width:0.5;"/><text x="669.05" y="328.122" fill="#000" font-size="14" textLength="99.114">Billing Service</text></g><!--entity RecSvc--><g class="entity" data-qualified-name="Application Layer.RecSvc" id="ent0014" data-source-line="18"><rect x="827.69" y="295.127" width="219.84" height="46.297" fill="#F1F1F1" style="stroke:#181818;stroke-width:0.5;" rx="2.5" ry="2.5"/><rect x="1027.53" y="300.127" width="15" height="10" fill="#F1F1F1" style="stroke:#181818;stroke-width:0.5;"/><rect x="1025.53" y="302.127" width="4" height="2" fill="#F1F1F1" style="stroke:#181818;stroke-width:0.5;"/><rect x="1025.53" y="306.127" width="4" height="2" fill="#F1F1F1" style="stroke:#181818;stroke-width:0.5;"/><text x="842.69" y="328.122" fill="#000" font-size="14" textLength="179.84">Recommendation Service</text></g><!--entity UserDom--><g class="entity" data-qualified-name="Domain Layer.UserDom" id="ent0016" data-source-line="22"><rect x="94.79" y="416.427" width="149.648" height="46.297" fill="#F1F1F1" style="stroke:#181818;stroke-width:0.5;" rx="2.5" ry="2.5"/><rect x="224.438" y="421.427" width="15" height="10" fill="#F1F1F1" style="stroke:#181818;stroke-width:0.5;"/><rect x="222.438" y="423.427" width="4" height="2" fill="#F1F1F1" style="stroke:#181818;stroke-width:0.5;"/><rect x="222.438" y="427.427" width="4" height="2" fill="#F1F1F1" style="stroke:#181818;stroke-width:0.5;"/><text x="109.79" y="449.422" fill="#000" font-size="14" textLength="109.648">User Aggregate</text></g><!--entity TrainDom--><g class="entity" data-qualified-name="Domain Layer.TrainDom" id="ent0017" data-source-line="23"><rect x="462.09" y="416.427" width="175.037" height="46.297" fill="#F1F1F1" style="stroke:#181818;stroke-width:0.5;" rx="2.5" ry="2.5"/><rect x="617.127" y="421.427" width="15" height="10" fill="#F1F1F1" style="stroke:#181818;stroke-width:0.5;"/><rect x="615.127" y="423.427" width="4" height="2" fill="#F1F1F1" style="stroke:#181818;stroke-width:0.5;"/><rect x="615.127" y="427.427" width="4" height="2" fill="#F1F1F1" style="stroke:#181818;stroke-width:0.5;"/><text x="477.09" y="449.422" fill="#000" font-size="14" textLength="135.037">Training Aggregate</text></g><!--entity PostDom--><g class="entity" data-qualified-name="Domain Layer.PostDom" id="ent0018" data-source-line="24"><rect x="279.85" y="416.427" width="147.529" height="46.297" fill="#F1F1F1" style="stroke:#181818;stroke-width:0.5;" rx="2.5" ry="2.5"/><rect x="407.379" y="421.427" width="15" height="10" fill="#F1F1F1" style="stroke:#181818;stroke-width:0.5;"/><rect x="405.379" y="423.427" width="4" height="2" fill="#F1F1F1" style="stroke:#181818;stroke-width:0.5;"/><rect x="405.379" y="427.427" width="4" height="2" fill="#F1F1F1" style="stroke:#181818;stroke-width:0.5;"/><text x="294.85" y="449.422" fill="#000" font-size="14" textLength="107.529">Post Aggregate</text></g><!--entity Repos--><g class="entity" data-qualified-name="Data Layer.Repos" id="ent0020" data-source-line="28"><rect x="366.32" y="537.717" width="126.584" height="46.297" fill="#F1F1F1" style="stroke:#181818;stroke-width:0.5;" rx="2.5" ry="2.5"/><rect x="472.904" y="542.717" width="15" height="10" fill="#F1F1F1" style="stroke:#181818;stroke-width:0.5;"/><rect x="470.904" y="544.717" width="4" height="2" fill="#F1F1F1" style="stroke:#181818;stroke-width:0.5;"/><rect x="470.904" y="548.717" width="4" height="2" fill="#F1F1F1" style="stroke:#181818;stroke-width:0.5;"/><text x="381.32" y="570.712" fill="#000" font-size="14" textLength="86.584">Repositories</text></g><g class="entity" data-qualified-name="GMN33" id="ent0034" data-source-line="46"><path d="M6,43.297 L6,113.828 A0,0 0 0 0 6,113.828 L113.61,113.828 L117.61,173.437 L121.61,113.828 L229.211,113.828 A0,0 0 0 0 229.211,113.828 L229.211,53.297 L219.211,43.297 L6,43.297 A0,0 0 0 0 6,43.297" style="stroke:#181818;stroke-width:0.5;" fill="#FEFFDD"/><path d="M219.211,43.297 L219.211,53.297 L229.211,53.297 L219.211,43.297" style="stroke:#181818;stroke-width:0.5;" fill="#FEFFDD"/><text x="12" y="60.364" fill="#000" font-size="13" textLength="105.841">Generated stub:</text><text x="12" y="75.497" fill="#000" font-size="13" textLength="202.211">- валидация входных данных</text><text x="12" y="90.629" fill="#000" font-size="13" textLength="157.035">- маппинг HTTP -> DTO</text><text x="12" y="105.762" fill="#000" font-size="13" textLength="178.223">- вызов Application Service</text></g><!--link UserCtrl to AuthSvc--><g class="link" data-entity-1="ent0002" data-entity-2="ent0010" id="lnk21" data-source-line="31" data-link-type="dependency"><path d="M131.91,220.417 C145.49,241.747 163.123,269.42 176.693,290.72" style="stroke:#181818;stroke-width:1;" fill="none" id="UserCtrl-to-AuthSvc"/><polygon points="179.38,294.937,177.918,285.197,176.693,290.72,171.171,289.496,179.38,294.937" fill="#181818" style="stroke:#181818;stroke-width:1;stroke-linejoin:miter;stroke-miterlimit:10;"/></g><!--link UserCtrl to SocialSvc--><g class="link" data-entity-1="ent0002" data-entity-2="ent0012" id="lnk22" data-source-line="32" data-link-type="dependency"><path d="M160.96,220.617 C178.98,229.167 200.38,238.247 220.61,244.127 C244.33,251.017 252.82,242.587 275.61,252.127 C299.45,262.107 318.861,276.915 335.121,291.525" style="stroke:#181818;stroke-width:1;" fill="none" id="UserCtrl-to-SocialSvc"/><polygon points="338.84,294.867,334.819,285.876,335.121,291.525,329.472,291.827,338.84,294.867" fill="#181818" style="stroke:#181818;stroke-width:1;stroke-linejoin:miter;stroke-miterlimit:10;"/></g><!--link TrainCtrl to TrainSvc--><g class="link" data-entity-1="ent0003" data-entity-2="ent0011" id="lnk23" data-source-line="33" data-link-type="dependency"><path d="M542.61,220.417 C542.61,241.747 542.61,268.637 542.61,289.937" style="stroke:#181818;stroke-width:1;" fill="none" id="TrainCtrl-to-TrainSvc"/><polygon points="542.61,294.937,546.61,285.937,542.61,289.937,538.61,285.937,542.61,294.937" fill="#181818" style="stroke:#181818;stroke-width:1;stroke-linejoin:miter;stroke-miterlimit:10;"/></g><!--link PostCtrl to SocialSvc--><g class="link" data-entity-1="ent0004" data-entity-2="ent0012" id="lnk24" data-source-line="34" data-link-type="dependency"><path d="M330.76,220.417 C337.55,241.747 346.193,268.872 352.973,290.172" style="stroke:#181818;stroke-width:1;" fill="none" id="PostCtrl-to-SocialSvc"/><polygon points="354.49,294.937,355.572,285.148,352.973,290.172,347.949,287.574,354.49,294.937" fill="#181818" style="stroke:#181818;stroke-width:1;stroke-linejoin:miter;stroke-miterlimit:10;"/></g><!--link SubCtrl to BillSvc--><g class="link" data-entity-1="ent0006" data-entity-2="ent0013" id="lnk25" data-source-line="35" data-link-type="dependency"><path d="M951.99,220.587 C928.99,229.147 901.85,238.227 876.61,244.127 C847.84,250.857 838.03,241.117 810.61,252.127 C786.44,261.827 766.776,276.663 750.346,291.363" style="stroke:#181818;stroke-width:1;" fill="none" id="SubCtrl-to-BillSvc"/><polygon points="746.62,294.697,755.994,291.677,750.346,291.363,750.66,285.715,746.62,294.697" fill="#181818" style="stroke:#181818;stroke-width:1;stroke-linejoin:miter;stroke-miterlimit:10;"/></g><!--link RecCtrl to RecSvc--><g class="link" data-entity-1="ent0007" data-entity-2="ent0014" id="lnk26" data-source-line="36" data-link-type="dependency"><path d="M1439.53,220.587 C1413.8,228.737 1384.03,237.547 1356.61,244.127 C1252.86,269.037 1137.674,288.394 1052.724,301.164" style="stroke:#181818;stroke-width:1;" fill="none" id="RecCtrl-to-RecSvc"/><polygon points="1047.78,301.907,1057.275,304.525,1052.724,301.164,1056.085,296.613,1047.78,301.907" fill="#181818" style="stroke:#181818;stroke-width:1;stroke-linejoin:miter;stroke-miterlimit:10;"/></g><!--link BillCtrl to BillSvc--><g class="link" data-entity-1="ent0008" data-entity-2="ent0013" id="lnk27" data-source-line="37" data-link-type="dependency"><path d="M1204.82,220.507 C1185.21,229.667 1161.31,239.227 1138.61,244.127 C1102.97,251.817 845.06,240.187 810.61,252.127 C785.47,260.837 765.291,276.311 748.951,291.511" style="stroke:#181818;stroke-width:1;" fill="none" id="BillCtrl-to-BillSvc"/><polygon points="745.29,294.917,754.604,291.716,748.951,291.511,749.155,285.858,745.29,294.917" fill="#181818" style="stroke:#181818;stroke-width:1;stroke-linejoin:miter;stroke-miterlimit:10;"/></g><!--link AuthSvc to UserDom--><g class="link" data-entity-1="ent0010" data-entity-2="ent0016" id="lnk28" data-source-line="39" data-link-type="dependency"><path d="M189.1,341.717 C184.8,363.047 179.377,390.035 175.087,411.335" style="stroke:#181818;stroke-width:1;" fill="none" id="AuthSvc-to-UserDom"/><polygon points="174.1,416.237,179.798,408.204,175.087,411.335,171.956,406.624,174.1,416.237" fill="#181818" style="stroke:#181818;stroke-width:1;stroke-linejoin:miter;stroke-miterlimit:10;"/></g><!--link TrainSvc to TrainDom--><g class="link" data-entity-1="ent0011" data-entity-2="ent0017" id="lnk29" data-source-line="40" data-link-type="dependency"><path d="M543.93,341.717 C545.18,363.047 546.757,389.945 548.007,411.245" style="stroke:#181818;stroke-width:1;" fill="none" id="TrainSvc-to-TrainDom"/><polygon points="548.3,416.237,551.766,407.018,548.007,411.245,543.78,407.487,548.3,416.237" fill="#181818" style="stroke:#181818;stroke-width:1;stroke-linejoin:miter;stroke-miterlimit:10;"/></g><!--link SocialSvc to PostDom--><g class="link" data-entity-1="ent0012" data-entity-2="ent0018" id="lnk30" data-source-line="41" data-link-type="dependency"><path d="M360.11,341.717 C358.67,363.047 356.875,389.948 355.445,411.248" style="stroke:#181818;stroke-width:1;" fill="none" id="SocialSvc-to-PostDom"/><polygon points="355.11,416.237,359.704,407.525,355.445,411.248,351.722,406.989,355.11,416.237" fill="#181818" style="stroke:#181818;stroke-width:1;stroke-linejoin:miter;stroke-miterlimit:10;"/></g><!--link TrainSvc to Repos--><g class="link" data-entity-1="ent0011" data-entity-2="ent0020" id="lnk31" data-source-line="42" data-link-type="dependency"><path d="M587.96,341.727 C603.37,349.307 620.72,357.787 636.61,365.427 C644.14,369.037 649.14,366.377 653.61,373.427 C680.59,415.937 683.18,445.957 653.61,486.717 C617.28,536.807 550.667,552.767 498.157,557.827" style="stroke:#181818;stroke-width:1;" fill="none" id="TrainSvc-to-Repos"/><polygon points="493.18,558.307,502.522,561.425,498.157,557.827,501.755,553.462,493.18,558.307" fill="#181818" style="stroke:#181818;stroke-width:1;stroke-linejoin:miter;stroke-miterlimit:10;"/></g><!--link UserDom to Repos--><g class="link" data-entity-1="ent0016" data-entity-2="ent0020" id="lnk32" data-source-line="43" data-link-type="dependency"><path d="M213.87,463.067 C229.22,470.737 246.6,479.247 262.61,486.717 C300.33,504.327 338.765,521.175 371.705,535.315" style="stroke:#181818;stroke-width:1;" fill="none" id="UserDom-to-Repos"/><polygon points="376.3,537.287,369.608,530.061,371.705,535.315,366.452,537.412,376.3,537.287" fill="#181818" style="stroke:#181818;stroke-width:1;stroke-linejoin:miter;stroke-miterlimit:10;"/></g><?plantuml-src TPJBIiGm58RtVOg3ArtC2xWGnXcyWEBWZ2jn4MkimKnIqdHW41SAusOMlefumS7hAwHlv4dQfXVg50RwdoyvoTy_qKnp2ZjC3-HqcWgcvt0eXUHCNq4Fp8VvCL_c5_-_pPlvpkwp9MHti4i5LKJJ2-YFzk60pAaAWfY4roIYiDPHXVMZc0hxckZqV6CDRWB0t-b9WZKh3wJGId9ErHcG1Am-q8hdr4GH9fY8kaXNgz2HJ7GNPlMAsbKoZRimLwYuSNgUX8h5cadHXMEzWezfY1vISK7-mv6ey6t6-JzxiYK7tjPSxSSnPs4-j_FKczXFyMEDgPgnaBhnLXZFmfPvTSA97XdBa17U07B94-LYwuZLFD3QV9t3aiNgUndAAVPlRIFFGXGf6c5uV0oGRQUWmJZPG_dtRm1MilN60eWchVR7D9O9qr8ncXJhHi6EAiC8lTwMzxOXLcxvE3hTsrp6hqKN-N5gQMSH4gSLrfLvQ711iH8dbaQL3QlkLlKDdLpwqM3ppHRJr9H0I4r1onZaPVrKLcVS7kXDLF2sU3PFvjEipAjvoXxCAdj4ALlWvV6ALySoMu2ju4tYNl8XNoZyuhD2-GNs9fCHOE_XvAYOCLkQTvpW6UhnBz8LODp0hkyF?></g></svg>