<svg xmlns="http://www.w3.org/2000/svg" xmlns:xlink="http://www.w3.org/1999/xlink" version="1.1" data-diagram-type="STATE" style="width:507px;height:504px;background:#FFFFFF;" width="507px" height="504px" viewBox="0 0 507 504" zoomAndPan="magnify" preserveAspectRatio="none" contentStyleType="text/css"><?plantuml 1.2026.7beta8?><defs/><g font-family="sans-serif" lengthAdjust="spacing"><g class="start_entity" data-qualified-name=".start." id="ent0001" data-source-line="1"><ellipse cx="270.47" cy="16" rx="10" ry="10" fill="#222" style="stroke:#222;stroke-width:1;"/></g><g class="entity" data-qualified-name="pending" id="ent0002" data-source-line="1"><rect x="232.01" y="103" width="76.909" height="50" fill="#F1F1F1" style="stroke:#181818;stroke-width:0.5;" rx="12.5" ry="12.5"/><line x1="232.01" y1="129.297" x2="308.919" y2="129.297" style="stroke:#181818;stroke-width:0.5;"/><text x="242.01" y="120.995" fill="#000" font-size="14" textLength="56.909">pending</text></g><g class="entity" data-qualified-name="active" id="ent0004" data-source-line="2"><rect x="148.19" y="230" width="62.554" height="50" fill="#F1F1F1" style="stroke:#181818;stroke-width:0.5;" rx="12.5" ry="12.5"/><line x1="148.19" y1="256.297" x2="210.744" y2="256.297" style="stroke:#181818;stroke-width:0.5;"/><text x="158.19" y="247.995" fill="#000" font-size="14" textLength="42.554">active</text></g><g class="entity" data-qualified-name="cancelled" id="ent0006" data-source-line="3"><rect x="136.1" y="357" width="86.739" height="50" fill="#F1F1F1" style="stroke:#181818;stroke-width:0.5;" rx="12.5" ry="12.5"/><line x1="136.1" y1="383.297" x2="222.839" y2="383.297" style="stroke:#181818;stroke-width:0.5;"/><text x="146.1" y="374.995" fill="#000" font-size="14" textLength="66.739">cancelled</text></g><g class="entity" data-qualified-name="expired" id="ent0008" data-source-line="4"><rect x="7" y="357" width="72.931" height="50" fill="#F1F1F1" style="stroke:#181818;stroke-width:0.5;" rx="12.5" ry="12.5"/><line x1="7" y1="383.297" x2="79.931" y2="383.297" style="stroke:#181818;stroke-width:0.5;"/><text x="17" y="374.995" fill="#000" font-size="14" textLength="52.931">expired</text></g><g class="end_entity" data-qualified-name=".end." id="ent0011" data-source-line="6"><ellipse cx="100.47" cy="479" rx="11" ry="11" fill="none" style="stroke:#222;stroke-width:1;"/><ellipse cx="100.47" cy="479" rx="6" ry="6" fill="#222" style="stroke:#222;stroke-width:1;"/></g><!--link *start* to pending--><g class="link" data-entity-1="ent0001" data-entity-2="ent0002" id="lnk3" data-source-line="1" data-link-type="dependency"><path d="M270.47,26.38 C270.47,43.11 270.47,73.59 270.47,97.63" style="stroke:#181818;stroke-width:1;" fill="none" id="*start*-to-pending"/><polygon points="270.47,102.63,274.47,93.63,270.47,97.63,266.47,93.63,270.47,102.63" fill="#181818" style="stroke:#181818;stroke-width:1;stroke-linejoin:miter;stroke-miterlimit:10;"/><text x="271.47" y="69.067" fill="#000" font-size="13" textLength="63.915">создание</text></g><!--link pending to active--><g class="link" data-entity-1="ent0002" data-entity-2="ent0004" id="lnk5" data-source-line="2" data-link-type="dependency"><path d="M247.01,153.47 C238.86,162.46 229.91,172.91 222.47,183 C211.51,197.84 203.238,211.247 195.228,225.287" style="stroke:#181818;stroke-width:1;" fill="none" id="pending-to-active"/><polygon points="192.75,229.63,200.684,223.795,195.228,225.287,193.736,219.831,192.75,229.63" fill="#181818" style="stroke:#181818;stroke-width:1;stroke-linejoin:miter;stroke-miterlimit:10;"/><text x="223.47" y="196.067" fill="#000" font-size="13" textLength="112.1">оплата успешна</text></g><!--link pending to cancelled--><g class="link" data-entity-1="ent0002" data-entity-2="ent0006" id="lnk7" data-source-line="3" data-link-type="dependency"><path d="M309.22,149.37 C321.53,157.97 333.69,169.23 340.47,183 C368.7,240.44 377.84,275.05 340.47,327 C313.95,363.86 266.056,375.417 228.126,379.177" style="stroke:#181818;stroke-width:1;" fill="none" id="pending-to-cancelled"/><polygon points="223.15,379.67,232.501,382.763,228.126,379.177,231.712,374.802,223.15,379.67" fill="#181818" style="stroke:#181818;stroke-width:1;stroke-linejoin:miter;stroke-miterlimit:10;"/><text x="365.47" y="259.567" fill="#000" font-size="13" textLength="125.569">отмена до оплаты</text></g><!--link active to expired--><g class="link" data-entity-1="ent0004" data-entity-2="ent0008" id="lnk9" data-source-line="4" data-link-type="dependency"><path d="M147.87,260.21 C117.97,265.98 74.35,279.38 51.47,310 C41.59,323.21 39.615,336.864 40.195,351.734" style="stroke:#181818;stroke-width:1;" fill="none" id="active-to-expired"/><polygon points="40.39,356.73,44.036,347.581,40.195,351.734,36.042,347.893,40.39,356.73" fill="#181818" style="stroke:#181818;stroke-width:1;stroke-linejoin:miter;stroke-miterlimit:10;"/><text x="52.47" y="323.067" fill="#000" font-size="13" textLength="115.096">истечение срока</text></g><!--link active to cancelled--><g class="link" data-entity-1="ent0004" data-entity-2="ent0006" id="lnk10" data-source-line="5" data-link-type="dependency"><path d="M177.6,280.31 C176.75,294.02 176.03,311.46 176.47,327 C176.73,336.67 176.973,342.309 177.523,351.559" style="stroke:#181818;stroke-width:1;" fill="none" id="active-to-cancelled"/><polygon points="177.82,356.55,181.279,347.328,177.523,351.559,173.293,347.803,177.82,356.55" fill="#181818" style="stroke:#181818;stroke-width:1;stroke-linejoin:miter;stroke-miterlimit:10;"/><text x="177.47" y="323.067" fill="#000" font-size="13" textLength="158.533">отмена пользователем</text></g><!--link expired to *end*--><g class="link" data-entity-1="ent0008" data-entity-2="ent0011" id="lnk12" data-source-line="6" data-link-type="dependency"><path d="M58.14,407.46 C70.28,427.7 84.268,450.992 92.618,464.912" style="stroke:#181818;stroke-width:1;" fill="none" id="expired-to-*end*"/><polygon points="95.19,469.2,93.991,459.424,92.618,464.912,87.13,463.54,95.19,469.2" fill="#181818" style="stroke:#181818;stroke-width:1;stroke-linejoin:miter;stroke-miterlimit:10;"/></g><!--link cancelled to *end*--><g class="link" data-entity-1="ent0006" data-entity-2="ent0011" id="lnk13" data-source-line="7" data-link-type="dependency"><path d="M159.12,407.46 C141.93,428.14 121.559,452.647 110.239,466.247" style="stroke:#181818;stroke-width:1;" fill="none" id="cancelled-to-*end*"/><polygon points="107.04,470.09,115.872,465.732,110.239,466.247,109.723,460.614,107.04,470.09" fill="#181818" style="stroke:#181818;stroke-width:1;stroke-linejoin:miter;stroke-miterlimit:10;"/></g><?plantuml-src TOz12e9068NtSufP2rwWHHSH5w93228I4Isp5WLr68c694slyFuRzSQKRD5svllUUt_WXThtbxemUPBcAxtGKgB30tTKUA66LTENmw9uasuDAJ8z6bHoGANbIAc7bJELwaU8epmsMMQImI7TmZf8iw2RfSX5ZTdEChiYNN-SMafQLaw3npqSA7kAJpRDbFz5FU56hhofmsrORDbfqQgfnlc15wflnlZo1W00?></g></svg>