<svg xmlns="http://www.w3.org/2000/svg" xmlns:xlink="http://www.w3.org/1999/xlink" version="1.1" data-diagram-type="STATE" style="width:333px;height:504px;background:#FFFFFF;" width="333px" height="504px" viewBox="0 0 333 504" zoomAndPan="magnify" preserveAspectRatio="none" contentStyleType="text/css"><?plantuml 1.2026.7beta8?><defs/><g font-family="sans-serif" lengthAdjust="spacing"><g class="start_entity" data-qualified-name=".start." id="ent0001" data-source-line="1"><ellipse cx="122.82" cy="16" rx="10" ry="10" fill="#222" style="stroke:#222;stroke-width:1;"/></g><g class="entity" data-qualified-name="created" id="ent0002" data-source-line="1"><rect x="86.01" y="103" width="73.635" height="50" fill="#F1F1F1" style="stroke:#181818;stroke-width:0.5;" rx="12.5" ry="12.5"/><line x1="86.01" y1="129.297" x2="159.645" y2="129.297" style="stroke:#181818;stroke-width:0.5;"/><text x="96.01" y="120.995" fill="#000" font-size="14" textLength="53.635">created</text></g><g class="entity" data-qualified-name="syncing" id="ent0004" data-source-line="2"><rect x="85.93" y="230" width="73.799" height="50" fill="#F1F1F1" style="stroke:#181818;stroke-width:0.5;" rx="12.5" ry="12.5"/><line x1="85.93" y1="256.297" x2="159.729" y2="256.297" style="stroke:#181818;stroke-width:0.5;"/><text x="95.93" y="247.995" fill="#000" font-size="14" textLength="53.799">syncing</text></g><g class="entity" data-qualified-name="synced" id="ent0006" data-source-line="3"><rect x="7" y="357" width="69.649" height="50" fill="#F1F1F1" style="stroke:#181818;stroke-width:0.5;" rx="12.5" ry="12.5"/><line x1="7" y1="383.297" x2="76.649" y2="383.297" style="stroke:#181818;stroke-width:0.5;"/><text x="17" y="374.995" fill="#000" font-size="14" textLength="49.649">synced</text></g><g class="entity" data-qualified-name="failed" id="ent0008" data-source-line="4"><rect x="149.43" y="357" width="58.787" height="50" fill="#F1F1F1" style="stroke:#181818;stroke-width:0.5;" rx="12.5" ry="12.5"/><line x1="149.43" y1="383.297" x2="208.217" y2="383.297" style="stroke:#181818;stroke-width:0.5;"/><text x="159.43" y="374.995" fill="#000" font-size="14" textLength="38.787">failed</text></g><g class="end_entity" data-qualified-name=".end." id="ent0011" data-source-line="6"><ellipse cx="41.82" cy="479" rx="11" ry="11" fill="none" style="stroke:#222;stroke-width:1;"/><ellipse cx="41.82" cy="479" rx="6" ry="6" fill="#222" style="stroke:#222;stroke-width:1;"/></g><!--link *start* to created--><g class="link" data-entity-1="ent0001" data-entity-2="ent0002" id="lnk3" data-source-line="1" data-link-type="dependency"><path d="M122.82,26.38 C122.82,43.11 122.82,73.59 122.82,97.63" style="stroke:#181818;stroke-width:1;" fill="none" id="*start*-to-created"/><polygon points="122.82,102.63,126.82,93.63,122.82,97.63,118.82,93.63,122.82,102.63" fill="#181818" style="stroke:#181818;stroke-width:1;stroke-linejoin:miter;stroke-miterlimit:10;"/><text x="123.82" y="69.067" fill="#000" font-size="13" textLength="126.268">создание (ручное)</text></g><!--link created to syncing--><g class="link" data-entity-1="ent0002" data-entity-2="ent0004" id="lnk5" data-source-line="2" data-link-type="dependency"><path d="M122.82,153.4 C122.82,175.42 122.82,202.66 122.82,224.66" style="stroke:#181818;stroke-width:1;" fill="none" id="created-to-syncing"/><polygon points="122.82,229.66,126.82,220.66,122.82,224.66,118.82,220.66,122.82,229.66" fill="#181818" style="stroke:#181818;stroke-width:1;stroke-linejoin:miter;stroke-miterlimit:10;"/><text x="123.82" y="196.067" fill="#000" font-size="13" textLength="156.432">запрос синхронизации</text></g><!--link syncing to synced--><g class="link" data-entity-1="ent0004" data-entity-2="ent0006" id="lnk7" data-source-line="3" data-link-type="dependency"><path d="M91.83,280.27 C82.45,288.84 72.8,299.09 65.82,310 C56.71,324.25 51.92,337.491 48.18,351.851" style="stroke:#181818;stroke-width:1;" fill="none" id="syncing-to-synced"/><polygon points="46.92,356.69,53.059,348.989,48.18,351.851,45.317,346.972,46.92,356.69" fill="#181818" style="stroke:#181818;stroke-width:1;stroke-linejoin:miter;stroke-miterlimit:10;"/><text x="66.82" y="323.067" fill="#000" font-size="13" textLength="39.032">успех</text></g><!--link syncing to failed--><g class="link" data-entity-1="ent0004" data-entity-2="ent0008" id="lnk9" data-source-line="4" data-link-type="dependency"><path d="M116.61,280.33 C114.22,294.52 113.41,312.43 119.82,327 C125.98,340.98 133.826,349.799 145.236,358.869" style="stroke:#181818;stroke-width:1;" fill="none" id="syncing-to-failed"/><polygon points="149.15,361.98,144.594,353.248,145.236,358.869,139.616,359.511,149.15,361.98" fill="#181818" style="stroke:#181818;stroke-width:1;stroke-linejoin:miter;stroke-miterlimit:10;"/><text x="120.82" y="323.067" fill="#000" font-size="13" textLength="52.133">ошибка</text></g><!--link failed to syncing--><g class="link" data-entity-1="ent0008" data-entity-2="ent0004" id="lnk10" data-source-line="5" data-link-type="dependency"><path d="M182.95,356.71 C184.29,342.53 184.08,324.62 177.82,310 C173.03,298.8 168.323,292.195 159.573,283.875" style="stroke:#181818;stroke-width:1;" fill="none" id="failed-to-syncing"/><polygon points="155.95,280.43,159.716,289.53,159.573,283.875,165.229,283.733,155.95,280.43" fill="#181818" style="stroke:#181818;stroke-width:1;stroke-linejoin:miter;stroke-miterlimit:10;"/><text x="182.82" y="323.067" fill="#000" font-size="13" textLength="134.919">повторная попытка</text></g><!--link synced to *end*--><g class="link" data-entity-1="ent0006" data-entity-2="ent0011" id="lnk12" data-source-line="6" data-link-type="dependency"><path d="M41.82,407.46 C41.82,427.04 41.82,448.49 41.82,462.8" style="stroke:#181818;stroke-width:1;" fill="none" id="synced-to-*end*"/><polygon points="41.82,467.8,45.82,458.8,41.82,462.8,37.82,458.8,41.82,467.8" fill="#181818" style="stroke:#181818;stroke-width:1;stroke-linejoin:miter;stroke-miterlimit:10;"/></g><?plantuml-src NOqn3e9054HxJh6bad012oz2A0YY8J4KQcEtI50J2w-o6ZTkJDYzmlmR-HVOGgkVFpDl9eqpaIHBKUpA_52kn49G0uitNb3eOQ35Z2IrTE7FGi-ZaFJK_bWNLRrXYWa5HnAM6bzXq5Fdtw64JJhpDL4W0ZrEjamuQEf-_7LURGUVIwzCF_21YYRrRzxnqfDEd9IygEW-IevkB7fi6lDO6cTV?></g></svg>